<svg width="200" height="264" viewBox="0 0 200 264" fill="none" xmlns="http://www.w3.org/2000/svg">
<path d="M100 200C155.228 200 200 155.228 200 100C200 44.7715 155.228 0 100 0C44.7715 0 0 44.7715 0 100C0 155.228 44.7715 200 100 200Z" fill="#AACCAA"/>
<path d="M59.9572 189.321L48.2158 166.727C47.0096 164.406 44.5662 162.995 41.9529 163.111L16.5158 164.239C13.8642 164.357 12.1291 161.5 13.456 159.201L53.4092 90L105.803 120.25L65.8502 189.451C64.5232 191.75 61.181 191.676 59.9572 189.321Z" fill="#AE7609"/>
<path d="M31.9006 127.255C43.8831 143.931 61.5612 156.235 82.0885 161.327L105.804 120.251L53.4096 90.001L31.9006 127.255Z" fill="#AE7609"/>
<path d="M41.9529 163.111C44.5662 162.995 47.0095 164.406 48.2158 166.727L51.7533 173.535L88.3384 110.167L70.8736 100.084L34.2888 163.452L41.9529 163.111Z" fill="#FFE400"/>
<path d="M62.9671 154.113L88.339 110.167L70.8741 100.084L46.2007 142.82C51.3136 147.196 56.9378 150.991 62.9671 154.113Z" fill="#FEBB00"/>
<g filter="url(#filter0_d)">
<path d="M140.847 189.321L152.588 166.727C153.794 164.406 156.238 162.995 158.851 163.111L184.288 164.239C186.94 164.357 188.675 161.5 187.348 159.201L147.395 90L95.0005 120.25L134.954 189.451C136.281 191.75 139.623 191.676 140.847 189.321Z" fill="#AE7609"/>
</g>
<path d="M95 120.25L118.715 161.326C139.243 156.235 156.921 143.931 168.903 127.255L147.394 90.0005L95 120.25Z" fill="#AE7609"/>
<path d="M158.851 163.111C156.238 162.995 153.794 164.406 152.588 166.727L149.051 173.535L112.465 110.167L129.93 100.084L166.515 163.452L158.851 163.111Z" fill="#FFE400"/>
<path d="M154.603 142.82L129.93 100.084L112.465 110.167L137.837 154.113C143.866 150.991 149.49 147.196 154.603 142.82Z" fill="#FEBB00"/>
<g filter="url(#filter1_d)">
<path d="M178.125 84.8991C178.125 89.4366 174.69 93.6178 173.933 97.9385C173.155 102.382 174.942 107.482 173.433 111.627C171.897 115.845 167.236 118.599 165.017 122.434C162.778 126.305 162.708 131.714 159.848 135.119C156.981 138.533 151.662 139.535 148.248 142.402C144.844 145.262 142.939 150.329 139.068 152.569C135.234 154.787 129.897 153.918 125.679 155.453C121.534 156.962 118.011 161.072 113.568 161.85C109.247 162.607 104.537 159.96 99.9996 159.96C95.4621 159.96 90.7523 162.607 86.4316 161.85C81.9883 161.072 78.4648 156.962 74.3203 155.453C70.102 153.918 64.7656 154.787 60.9309 152.568C57.0598 150.329 55.1555 145.261 51.7512 142.401C48.3371 139.534 43.0188 138.532 40.1508 135.117C37.2914 131.713 37.2215 126.304 34.982 122.433C32.7633 118.598 28.102 115.844 26.5664 111.626C25.0574 107.482 26.8449 102.382 26.0664 97.9381C25.3102 93.6178 21.875 89.4366 21.875 84.8991C21.875 80.3616 25.3102 76.1803 26.0672 71.8596C26.8453 67.4163 25.0582 62.3163 26.5672 58.1714C28.1027 53.953 32.7641 51.1991 34.9828 47.3639C37.2223 43.4928 37.2922 38.0839 40.1516 34.6796C43.0191 31.2655 48.3379 30.2635 51.752 27.396C55.1562 24.5366 57.0605 19.469 60.9316 17.2296C64.7664 15.0108 70.1027 15.8803 74.3211 14.3448C78.4656 12.8358 81.9891 8.72643 86.4324 7.94831C90.7531 7.19167 95.4629 9.83776 100 9.83776C104.538 9.83776 109.248 7.19167 113.568 7.94831C118.012 8.72643 121.535 12.8362 125.68 14.3448C129.898 15.8803 135.234 15.0108 139.069 17.2299C142.94 19.4694 144.845 24.537 148.249 27.3967C151.663 30.2643 156.981 31.2667 159.849 34.6807C162.709 38.085 162.779 43.494 165.018 47.3651C167.237 51.1999 171.898 53.9542 173.434 58.1721C174.943 62.3167 173.155 67.4167 173.934 71.86C174.69 76.1807 178.125 80.3616 178.125 84.8991Z" fill="#AE7609"/>
</g>
<path d="M100 150.004C135.956 150.004 165.104 120.855 165.104 84.8992C165.104 48.9431 135.956 19.7949 100 19.7949C64.0439 19.7949 34.8958 48.9431 34.8958 84.8992C34.8958 120.855 64.0439 150.004 100 150.004Z" fill="#60B550"/>
<path d="M100 143.493C132.36 143.493 158.594 117.26 158.594 84.8992C158.594 52.5387 132.36 26.3054 100 26.3054C67.6396 26.3054 41.4062 52.5387 41.4062 84.8992C41.4062 117.26 67.6396 143.493 100 143.493Z" fill="#AACCAA"/>
<path d="M99.9999 136.982C128.765 136.982 152.083 113.664 152.083 84.8991C152.083 56.1344 128.765 32.8159 99.9999 32.8159C71.2352 32.8159 47.9167 56.1344 47.9167 84.8991C47.9167 113.664 71.2352 136.982 99.9999 136.982Z" fill="#E1EAF9"/>
<path d="M49.6984 71.3576L74.8581 130.52C81.8788 134.397 89.889 136.702 98.4148 136.956L61.4042 49.9275C55.9402 55.9544 51.871 63.2677 49.6984 71.3576Z" fill="#C5DEF8"/>
<path d="M123.715 38.5159C116.602 34.8718 108.541 32.8159 100 32.8159C97.304 32.8159 94.6551 33.0206 92.0696 33.4159L131.577 126.317C140.167 119.758 146.656 110.59 149.859 99.9929L123.715 38.5159Z" fill="#C5DEF8"/>
<path d="M106.271 136.606C110.687 136.076 114.934 134.994 118.939 133.43L78.1835 37.5952C74.1937 39.4386 70.4761 41.771 67.1089 44.5171L106.271 136.606Z" fill="#C5DEF8"/>
<path d="M128.134 57.2156C124.49 53.2648 96.6157 53.3831 78.2036 70.3671C68.3848 79.4245 67.7672 94.7265 76.8247 104.546C85.8821 114.364 101.184 114.982 111.003 105.925C129.415 88.9406 131.779 61.1663 128.134 57.2156Z" fill="#A3EA6E"/>
<path d="M100.37 104.545C91.3122 94.7267 91.9298 79.4244 101.749 70.367C109.568 63.1541 119.093 58.9842 127.745 56.8748C122.843 53.2865 96.0696 53.8865 78.2036 70.367C68.3848 79.4244 67.7672 94.7263 76.8247 104.545C84.5567 112.928 96.8372 114.598 106.375 109.274C104.191 108.057 102.157 106.483 100.37 104.545Z" fill="#85D249"/>
<path d="M109.363 71.6107C108.313 70.3794 106.464 70.2317 105.233 71.2821C101.482 74.4802 98.0575 77.8282 94.9426 81.3392C93.8379 77.2954 94.2879 73.5235 94.7575 71.3317C95.0965 69.7497 94.0887 68.1927 92.5063 67.8536C90.9239 67.5149 89.3668 68.5224 89.0282 70.1052C88.2938 73.5333 87.6082 80.0091 90.6289 86.5638C88.352 89.5356 86.2762 92.62 84.3954 95.8251C84.3086 95.9501 84.2301 96.0821 84.1621 96.2224C80.9801 101.71 78.3657 107.549 76.2934 113.783C75.7829 115.318 76.6137 116.977 78.1493 117.487C78.4559 117.589 78.7676 117.637 79.0739 117.637C80.3016 117.637 81.445 116.86 81.8536 115.631C83.5762 110.449 85.702 105.558 88.2434 100.927C89.5493 101.2 91.2981 101.449 93.359 101.449C97.0235 101.449 101.657 100.663 106.457 97.8298C107.85 97.0075 108.313 95.2114 107.491 93.8177C106.668 92.4239 104.872 91.9618 103.479 92.7837C98.8254 95.5298 94.4239 95.7966 91.4805 95.513C96.1735 88.2935 101.997 81.7407 109.034 75.7407C110.266 74.6911 110.413 72.8423 109.363 71.6107Z" fill="#60B550"/>
<rect width="200" height="64" transform="translate(0 200)" fill="#AACCAA"/>
<path d="M31.9496 232.004H37.2776V242.228C35.9096 243.26 34.3256 244.052 32.5256 244.604C30.7256 245.156 28.9136 245.432 27.0896 245.432C24.4736 245.432 22.1216 244.88 20.0336 243.776C17.9456 242.648 16.3016 241.1 15.1016 239.132C13.9256 237.14 13.3376 234.896 13.3376 232.4C13.3376 229.904 13.9256 227.672 15.1016 225.704C16.3016 223.712 17.9576 222.164 20.0696 221.06C22.1816 219.932 24.5576 219.368 27.1976 219.368C29.4056 219.368 31.4096 219.74 33.2096 220.484C35.0096 221.228 36.5216 222.308 37.7456 223.724L34.0016 227.18C32.2016 225.284 30.0296 224.336 27.4856 224.336C25.8776 224.336 24.4496 224.672 23.2016 225.344C21.9536 226.016 20.9816 226.964 20.2856 228.188C19.5896 229.412 19.2416 230.816 19.2416 232.4C19.2416 233.96 19.5896 235.352 20.2856 236.576C20.9816 237.8 21.9416 238.76 23.1656 239.456C24.4136 240.128 25.8296 240.464 27.4136 240.464C29.0936 240.464 30.6056 240.104 31.9496 239.384V232.004ZM50.111 225.344C53.111 225.344 55.415 226.064 57.023 227.504C58.631 228.92 59.435 231.068 59.435 233.948V245H54.179V242.588C53.123 244.388 51.155 245.288 48.275 245.288C46.787 245.288 45.491 245.036 44.387 244.532C43.307 244.028 42.479 243.332 41.903 242.444C41.327 241.556 41.039 240.548 41.039 239.42C41.039 237.62 41.711 236.204 43.055 235.172C44.423 234.14 46.523 233.624 49.355 233.624H53.819C53.819 232.4 53.447 231.464 52.703 230.816C51.959 230.144 50.843 229.808 49.355 229.808C48.323 229.808 47.303 229.976 46.295 230.312C45.311 230.624 44.471 231.056 43.775 231.608L41.759 227.684C42.815 226.94 44.075 226.364 45.539 225.956C47.027 225.548 48.551 225.344 50.111 225.344ZM49.679 241.508C50.639 241.508 51.491 241.292 52.235 240.86C52.979 240.404 53.507 239.744 53.819 238.88V236.9H49.967C47.663 236.9 46.511 237.656 46.511 239.168C46.511 239.888 46.787 240.464 47.339 240.896C47.915 241.304 48.695 241.508 49.679 241.508ZM69.8818 228.188C70.5538 227.252 71.4538 226.544 72.5818 226.064C73.7338 225.584 75.0538 225.344 76.5418 225.344V230.528C75.9178 230.48 75.4978 230.456 75.2818 230.456C73.6738 230.456 72.4138 230.912 71.5018 231.824C70.5898 232.712 70.1338 234.056 70.1338 235.856V245H64.5178V225.632H69.8818V228.188ZM99.4333 218.288V245H94.0693V242.768C92.6773 244.448 90.6613 245.288 88.0213 245.288C86.1973 245.288 84.5413 244.88 83.0533 244.064C81.5893 243.248 80.4373 242.084 79.5973 240.572C78.7573 239.06 78.3373 237.308 78.3373 235.316C78.3373 233.324 78.7573 231.572 79.5973 230.06C80.4373 228.548 81.5893 227.384 83.0533 226.568C84.5413 225.752 86.1973 225.344 88.0213 225.344C90.4933 225.344 92.4253 226.124 93.8173 227.684V218.288H99.4333ZM88.9933 240.68C90.4093 240.68 91.5853 240.2 92.5213 239.24C93.4573 238.256 93.9253 236.948 93.9253 235.316C93.9253 233.684 93.4573 232.388 92.5213 231.428C91.5853 230.444 90.4093 229.952 88.9933 229.952C87.5533 229.952 86.3653 230.444 85.4293 231.428C84.4933 232.388 84.0253 233.684 84.0253 235.316C84.0253 236.948 84.4933 238.256 85.4293 239.24C86.3653 240.2 87.5533 240.68 88.9933 240.68ZM123.603 235.388C123.603 235.46 123.567 235.964 123.495 236.9H108.843C109.107 238.1 109.731 239.048 110.715 239.744C111.699 240.44 112.923 240.788 114.387 240.788C115.395 240.788 116.283 240.644 117.051 240.356C117.843 240.044 118.575 239.564 119.247 238.916L122.235 242.156C120.411 244.244 117.747 245.288 114.243 245.288C112.059 245.288 110.127 244.868 108.447 244.028C106.767 243.164 105.471 241.976 104.559 240.464C103.647 238.952 103.191 237.236 103.191 235.316C103.191 233.42 103.635 231.716 104.523 230.204C105.435 228.668 106.671 227.48 108.231 226.64C109.815 225.776 111.579 225.344 113.523 225.344C115.419 225.344 117.135 225.752 118.671 226.568C120.207 227.384 121.407 228.56 122.271 230.096C123.159 231.608 123.603 233.372 123.603 235.388ZM113.559 229.592C112.287 229.592 111.219 229.952 110.355 230.672C109.491 231.392 108.963 232.376 108.771 233.624H118.311C118.119 232.4 117.591 231.428 116.727 230.708C115.863 229.964 114.807 229.592 113.559 229.592ZM139.114 225.344C141.514 225.344 143.446 226.064 144.91 227.504C146.398 228.944 147.142 231.08 147.142 233.912V245H141.526V234.776C141.526 233.24 141.19 232.1 140.518 231.356C139.846 230.588 138.874 230.204 137.602 230.204C136.186 230.204 135.058 230.648 134.218 231.536C133.378 232.4 132.958 233.696 132.958 235.424V245H127.342V225.632H132.706V227.9C133.45 227.084 134.374 226.46 135.478 226.028C136.582 225.572 137.794 225.344 139.114 225.344ZM171.416 235.388C171.416 235.46 171.38 235.964 171.308 236.9H156.656C156.92 238.1 157.544 239.048 158.528 239.744C159.512 240.44 160.736 240.788 162.2 240.788C163.208 240.788 164.096 240.644 164.864 240.356C165.656 240.044 166.388 239.564 167.06 238.916L170.048 242.156C168.224 244.244 165.56 245.288 162.056 245.288C159.872 245.288 157.94 244.868 156.26 244.028C154.58 243.164 153.284 241.976 152.372 240.464C151.46 238.952 151.004 237.236 151.004 235.316C151.004 233.42 151.448 231.716 152.336 230.204C153.248 228.668 154.484 227.48 156.044 226.64C157.628 225.776 159.392 225.344 161.336 225.344C163.232 225.344 164.948 225.752 166.484 226.568C168.02 227.384 169.22 228.56 170.084 230.096C170.972 231.608 171.416 233.372 171.416 235.388ZM161.372 229.592C160.1 229.592 159.032 229.952 158.168 230.672C157.304 231.392 156.776 232.376 156.584 233.624H166.124C165.932 232.4 165.404 231.428 164.54 230.708C163.676 229.964 162.62 229.592 161.372 229.592ZM180.519 228.188C181.191 227.252 182.091 226.544 183.219 226.064C184.371 225.584 185.691 225.344 187.179 225.344V230.528C186.555 230.48 186.135 230.456 185.919 230.456C184.311 230.456 183.051 230.912 182.139 231.824C181.227 232.712 180.771 234.056 180.771 235.856V245H175.155V225.632H180.519V228.188Z" fill="#1D295A"/>
<defs>
<filter id="filter0_d" x="91.0005" y="90" width="100.803" height="109.132" filterUnits="userSpaceOnUse" color-interpolation-filters="sRGB">
<feFlood flood-opacity="0" result="BackgroundImageFix"/>
<feColorMatrix in="SourceAlpha" type="matrix" values="0 0 0 0 0 0 0 0 0 0 0 0 0 0 0 0 0 0 127 0"/>
<feOffset dy="4"/>
<feGaussianBlur stdDeviation="2"/>
<feColorMatrix type="matrix" values="0 0 0 0 0 0 0 0 0 0 0 0 0 0 0 0 0 0 0.25 0"/>
<feBlend mode="normal" in2="BackgroundImageFix" result="effect1_dropShadow"/>
<feBlend mode="normal" in="SourceGraphic" in2="effect1_dropShadow" result="shape"/>
</filter>
<filter id="filter1_d" x="17.875" y="7.81226" width="164.25" height="162.174" filterUnits="userSpaceOnUse" color-interpolation-filters="sRGB">
<feFlood flood-opacity="0" result="BackgroundImageFix"/>
<feColorMatrix in="SourceAlpha" type="matrix" values="0 0 0 0 0 0 0 0 0 0 0 0 0 0 0 0 0 0 127 0"/>
<feOffset dy="4"/>
<feGaussianBlur stdDeviation="2"/>
<feColorMatrix type="matrix" values="0 0 0 0 0 0 0 0 0 0 0 0 0 0 0 0 0 0 0.25 0"/>
<feBlend mode="normal" in2="BackgroundImageFix" result="effect1_dropShadow"/>
<feBlend mode="normal" in="SourceGraphic" in2="effect1_dropShadow" result="shape"/>
</filter>
</defs>
</svg>
