<svg width="200" height="200" viewBox="0 0 200 200" fill="none" xmlns="http://www.w3.org/2000/svg">
<path d="M100 200C155.228 200 200 155.228 200 100C200 44.7715 155.228 0 100 0C44.7715 0 0 44.7715 0 100C0 155.228 44.7715 200 100 200Z" fill="#AACCAA"/>
<path d="M59.9572 189.321L48.2158 166.727C47.0096 164.406 44.5662 162.995 41.9529 163.111L16.5158 164.239C13.8642 164.357 12.1291 161.5 13.456 159.201L53.4092 90L105.803 120.25L65.8502 189.451C64.5232 191.75 61.1811 191.676 59.9572 189.321Z" fill="#AE7609"/>
<path d="M31.9006 127.255C43.8831 143.931 61.5612 156.235 82.0885 161.327L105.804 120.251L53.4096 90.0009L31.9006 127.255Z" fill="#AE7609"/>
<path d="M41.9529 163.111C44.5662 162.995 47.0095 164.406 48.2158 166.727L51.7533 173.535L88.3384 110.167L70.8736 100.084L34.2888 163.452L41.9529 163.111Z" fill="#FFE400"/>
<path d="M62.9671 154.113L88.339 110.167L70.8741 100.084L46.2007 142.82C51.3136 147.196 56.9378 150.991 62.9671 154.113Z" fill="#FEBB00"/>
<g filter="url(#filter0_d)">
<path d="M140.847 189.321L152.588 166.727C153.794 164.406 156.238 162.995 158.851 163.111L184.288 164.239C186.94 164.357 188.675 161.5 187.348 159.201L147.395 90L95.0005 120.25L134.954 189.451C136.281 191.75 139.623 191.676 140.847 189.321V189.321Z" fill="#AE7609"/>
</g>
<path d="M95 120.25L118.715 161.326C139.243 156.235 156.921 143.93 168.903 127.255L147.394 90.0004L95 120.25Z" fill="#AE7609"/>
<path d="M158.851 163.111C156.238 162.995 153.794 164.406 152.588 166.727L149.051 173.535L112.465 110.167L129.93 100.084L166.515 163.452L158.851 163.111Z" fill="#FFE400"/>
<path d="M154.603 142.82L129.93 100.084L112.465 110.167L137.837 154.113C143.866 150.991 149.49 147.196 154.603 142.82V142.82Z" fill="#FEBB00"/>
<g filter="url(#filter1_d)">
<path d="M178.125 84.8991C178.125 89.4366 174.69 93.6178 173.933 97.9385C173.155 102.382 174.942 107.482 173.433 111.627C171.897 115.845 167.236 118.599 165.017 122.434C162.778 126.305 162.708 131.714 159.848 135.119C156.981 138.533 151.662 139.535 148.248 142.402C144.844 145.262 142.939 150.329 139.068 152.569C135.234 154.787 129.897 153.918 125.679 155.453C121.534 156.962 118.011 161.072 113.568 161.85C109.247 162.607 104.537 159.96 99.9996 159.96C95.4621 159.96 90.7523 162.607 86.4316 161.85C81.9883 161.072 78.4648 156.962 74.3203 155.453C70.102 153.918 64.7656 154.787 60.9309 152.568C57.0598 150.329 55.1555 145.261 51.7512 142.401C48.3371 139.534 43.0188 138.532 40.1508 135.117C37.2914 131.713 37.2215 126.304 34.982 122.433C32.7633 118.598 28.102 115.844 26.5664 111.626C25.0574 107.482 26.8449 102.382 26.0664 97.9382C25.3102 93.6178 21.875 89.4366 21.875 84.8991C21.875 80.3616 25.3102 76.1803 26.0672 71.8596C26.8453 67.4163 25.0582 62.3163 26.5672 58.1714C28.1027 53.953 32.7641 51.1991 34.9828 47.3639C37.2223 43.4928 37.2922 38.0839 40.1516 34.6796C43.0191 31.2655 48.3379 30.2635 51.752 27.396C55.1563 24.5366 57.0605 19.469 60.9316 17.2296C64.7664 15.0108 70.1027 15.8803 74.3211 14.3448C78.4656 12.8358 81.9891 8.72643 86.4324 7.94831C90.7531 7.19167 95.4629 9.83776 100 9.83776C104.538 9.83776 109.248 7.19167 113.568 7.94831C118.012 8.72643 121.535 12.8362 125.68 14.3448C129.898 15.8803 135.234 15.0108 139.069 17.2299C142.94 19.4694 144.845 24.537 148.249 27.3967C151.663 30.2643 156.981 31.2667 159.849 34.6807C162.709 38.085 162.779 43.494 165.018 47.3651C167.237 51.1999 171.898 53.9542 173.434 58.1721C174.943 62.3167 173.155 67.4167 173.934 71.86C174.69 76.1807 178.125 80.3616 178.125 84.8991V84.8991Z" fill="#AE7609"/>
</g>
<path d="M100 150.003C135.956 150.003 165.104 120.855 165.104 84.8991C165.104 48.943 135.956 19.7948 100 19.7948C64.0439 19.7948 34.8958 48.943 34.8958 84.8991C34.8958 120.855 64.0439 150.003 100 150.003Z" fill="#60B550"/>
<path d="M100 143.493C132.36 143.493 158.594 117.26 158.594 84.8992C158.594 52.5387 132.36 26.3054 100 26.3054C67.6396 26.3054 41.4062 52.5387 41.4062 84.8992C41.4062 117.26 67.6396 143.493 100 143.493Z" fill="#AACCAA"/>
<path d="M99.9999 136.982C128.765 136.982 152.083 113.664 152.083 84.8992C152.083 56.1345 128.765 32.816 99.9999 32.816C71.2352 32.816 47.9167 56.1345 47.9167 84.8992C47.9167 113.664 71.2352 136.982 99.9999 136.982Z" fill="#E1EAF9"/>
<path d="M49.6982 71.3574L74.858 130.52C81.8787 134.397 89.8889 136.702 98.4146 136.956L61.4041 49.9274C55.94 55.9543 51.8709 63.2676 49.6982 71.3574V71.3574Z" fill="#C5DEF8"/>
<path d="M123.715 38.516C116.602 34.8719 108.541 32.816 100 32.816C97.304 32.816 94.6551 33.0207 92.0696 33.416L131.577 126.318C140.167 119.759 146.656 110.59 149.859 99.993L123.715 38.516Z" fill="#C5DEF8"/>
<path d="M106.271 136.606C110.687 136.076 114.934 134.994 118.939 133.43L78.1835 37.5952C74.1937 39.4386 70.4761 41.771 67.1089 44.5171L106.271 136.606Z" fill="#C5DEF8"/>
<path d="M128.134 57.2157C124.49 53.2649 96.6157 53.3833 78.2036 70.3672C68.3848 79.4247 67.7672 94.7266 76.8247 104.546C85.8821 114.365 101.184 114.982 111.003 105.925C129.415 88.9407 131.779 61.1665 128.134 57.2157V57.2157Z" fill="#A3EA6E"/>
<path d="M100.37 104.546C91.3122 94.7269 91.9298 79.4245 101.749 70.3671C109.568 63.1542 119.093 58.9843 127.745 56.8749C122.843 53.2866 96.0696 53.8866 78.2036 70.3671C68.3848 79.4245 67.7672 94.7265 76.8247 104.546C84.5567 112.928 96.8372 114.598 106.375 109.275C104.191 108.057 102.157 106.483 100.37 104.546Z" fill="#85D249"/>
<path d="M109.363 71.6108C108.313 70.3795 106.464 70.2319 105.233 71.2823C101.483 74.4803 98.0576 77.8283 94.9427 81.3393C93.8381 77.2955 94.2881 73.5237 94.7576 71.3319C95.0966 69.7498 94.0888 68.1928 92.5064 67.8537C90.924 67.5151 89.367 68.5225 89.0283 70.1053C88.2939 73.5334 87.6084 80.0092 90.6291 86.5639C88.3521 89.5358 86.2763 92.6201 84.3955 95.8252C84.3088 95.9502 84.2302 96.0823 84.1623 96.2225C80.9802 101.71 78.3658 107.549 76.2935 113.783C75.783 115.318 76.6138 116.977 78.1494 117.487C78.456 117.589 78.7677 117.637 79.074 117.637C80.3017 117.637 81.4451 116.86 81.8537 115.631C83.5763 110.449 85.7021 105.558 88.2435 100.927C89.5494 101.2 91.2982 101.449 93.3591 101.449C97.0236 101.449 101.657 100.663 106.457 97.8299C107.85 97.0076 108.313 95.2115 107.491 93.8178C106.669 92.424 104.872 91.9619 103.479 92.7838C98.8256 95.5299 94.424 95.7967 91.4806 95.5131C96.1736 88.2936 101.997 81.7408 109.034 75.7408C110.266 74.6912 110.413 72.8424 109.363 71.6108V71.6108Z" fill="#60B550"/>
<defs>
<filter id="filter0_d" x="91.0005" y="90" width="100.803" height="109.132" filterUnits="userSpaceOnUse" color-interpolation-filters="sRGB">
<feFlood flood-opacity="0" result="BackgroundImageFix"/>
<feColorMatrix in="SourceAlpha" type="matrix" values="0 0 0 0 0 0 0 0 0 0 0 0 0 0 0 0 0 0 127 0"/>
<feOffset dy="4"/>
<feGaussianBlur stdDeviation="2"/>
<feColorMatrix type="matrix" values="0 0 0 0 0 0 0 0 0 0 0 0 0 0 0 0 0 0 0.25 0"/>
<feBlend mode="normal" in2="BackgroundImageFix" result="effect1_dropShadow"/>
<feBlend mode="normal" in="SourceGraphic" in2="effect1_dropShadow" result="shape"/>
</filter>
<filter id="filter1_d" x="17.875" y="7.81226" width="164.25" height="162.174" filterUnits="userSpaceOnUse" color-interpolation-filters="sRGB">
<feFlood flood-opacity="0" result="BackgroundImageFix"/>
<feColorMatrix in="SourceAlpha" type="matrix" values="0 0 0 0 0 0 0 0 0 0 0 0 0 0 0 0 0 0 127 0"/>
<feOffset dy="4"/>
<feGaussianBlur stdDeviation="2"/>
<feColorMatrix type="matrix" values="0 0 0 0 0 0 0 0 0 0 0 0 0 0 0 0 0 0 0.25 0"/>
<feBlend mode="normal" in2="BackgroundImageFix" result="effect1_dropShadow"/>
<feBlend mode="normal" in="SourceGraphic" in2="effect1_dropShadow" result="shape"/>
</filter>
</defs>
</svg>
