<svg width="200" height="264" viewBox="0 0 200 264" fill="none" xmlns="http://www.w3.org/2000/svg">
<g opacity="0.3">
<path d="M100 200C155.228 200 200 155.228 200 100C200 44.7715 155.228 0 100 0C44.7715 0 0 44.7715 0 100C0 155.228 44.7715 200 100 200Z" fill="#AACCAA"/>
<path d="M59.9572 189.321L48.2158 166.727C47.0096 164.406 44.5662 162.995 41.9529 163.111L16.5158 164.239C13.8642 164.357 12.1291 161.5 13.456 159.201L53.4092 90L105.803 120.25L65.8502 189.451C64.5232 191.75 61.1811 191.676 59.9572 189.321Z" fill="#AE7609"/>
<path d="M31.9006 127.255C43.8831 143.931 61.5612 156.235 82.0885 161.327L105.804 120.251L53.4096 90.001L31.9006 127.255Z" fill="#AE7609"/>
<path d="M41.9529 163.111C44.5662 162.995 47.0095 164.406 48.2158 166.727L51.7533 173.535L88.3384 110.167L70.8736 100.084L34.2888 163.452L41.9529 163.111Z" fill="#FFE400"/>
<path d="M62.9671 154.113L88.339 110.167L70.8741 100.084L46.2007 142.82C51.3136 147.196 56.9378 150.991 62.9671 154.113Z" fill="#FEBB00"/>
<g filter="url(#filter0_d)">
<path d="M140.847 189.321L152.588 166.727C153.794 164.406 156.238 162.995 158.851 163.111L184.288 164.239C186.94 164.357 188.675 161.5 187.348 159.201L147.395 90L95.0005 120.25L134.954 189.451C136.281 191.75 139.623 191.676 140.847 189.321V189.321Z" fill="#AE7609"/>
</g>
<path d="M95 120.25L118.715 161.326C139.243 156.235 156.921 143.931 168.903 127.255L147.394 90.0005L95 120.25Z" fill="#AE7609"/>
<path d="M158.851 163.111C156.238 162.995 153.794 164.406 152.588 166.727L149.051 173.535L112.465 110.167L129.93 100.084L166.515 163.452L158.851 163.111Z" fill="#FFE400"/>
<path d="M154.603 142.82L129.93 100.084L112.465 110.167L137.837 154.113C143.866 150.991 149.49 147.196 154.603 142.82V142.82Z" fill="#FEBB00"/>
<g filter="url(#filter1_d)">
<path d="M178.125 84.8991C178.125 89.4366 174.69 93.6178 173.933 97.9385C173.155 102.382 174.942 107.482 173.433 111.627C171.897 115.845 167.236 118.599 165.017 122.434C162.778 126.305 162.708 131.714 159.848 135.119C156.981 138.533 151.662 139.535 148.248 142.402C144.844 145.262 142.939 150.329 139.068 152.569C135.234 154.787 129.897 153.918 125.679 155.453C121.534 156.962 118.011 161.072 113.568 161.85C109.247 162.607 104.537 159.96 99.9996 159.96C95.4621 159.96 90.7523 162.607 86.4316 161.85C81.9883 161.072 78.4648 156.962 74.3203 155.453C70.102 153.918 64.7656 154.787 60.9309 152.568C57.0598 150.329 55.1555 145.261 51.7512 142.401C48.3371 139.534 43.0188 138.532 40.1508 135.117C37.2914 131.713 37.2215 126.304 34.982 122.433C32.7633 118.598 28.102 115.844 26.5664 111.626C25.0574 107.482 26.8449 102.382 26.0664 97.9382C25.3102 93.6178 21.875 89.4366 21.875 84.8991C21.875 80.3616 25.3102 76.1803 26.0672 71.8596C26.8453 67.4163 25.0582 62.3163 26.5672 58.1714C28.1027 53.953 32.7641 51.1991 34.9828 47.3639C37.2223 43.4928 37.2922 38.0839 40.1516 34.6796C43.0191 31.2655 48.3379 30.2635 51.752 27.396C55.1563 24.5366 57.0605 19.469 60.9316 17.2296C64.7664 15.0108 70.1027 15.8803 74.3211 14.3448C78.4656 12.8358 81.9891 8.72643 86.4324 7.94831C90.7531 7.19167 95.4629 9.83776 100 9.83776C104.538 9.83776 109.248 7.19167 113.568 7.94831C118.012 8.72643 121.535 12.8362 125.68 14.3448C129.898 15.8803 135.234 15.0108 139.069 17.2299C142.94 19.4694 144.845 24.537 148.249 27.3967C151.663 30.2643 156.981 31.2667 159.849 34.6807C162.709 38.085 162.779 43.494 165.018 47.3651C167.237 51.1999 171.898 53.9542 173.434 58.1721C174.943 62.3167 173.155 67.4167 173.934 71.86C174.69 76.1807 178.125 80.3616 178.125 84.8991V84.8991Z" fill="#AE7609"/>
</g>
<path d="M100 150.004C135.956 150.004 165.104 120.855 165.104 84.8992C165.104 48.9431 135.956 19.7949 100 19.7949C64.0439 19.7949 34.8958 48.9431 34.8958 84.8992C34.8958 120.855 64.0439 150.004 100 150.004Z" fill="#60B550"/>
<path d="M100 143.493C132.36 143.493 158.594 117.26 158.594 84.8992C158.594 52.5387 132.36 26.3054 100 26.3054C67.6396 26.3054 41.4062 52.5387 41.4062 84.8992C41.4062 117.26 67.6396 143.493 100 143.493Z" fill="#AACCAA"/>
<path d="M99.9999 136.982C128.765 136.982 152.083 113.664 152.083 84.8991C152.083 56.1344 128.765 32.8159 99.9999 32.8159C71.2352 32.8159 47.9167 56.1344 47.9167 84.8991C47.9167 113.664 71.2352 136.982 99.9999 136.982Z" fill="#E1EAF9"/>
<path d="M49.6984 71.3576L74.8581 130.52C81.8788 134.397 89.889 136.702 98.4148 136.956L61.4042 49.9275C55.9402 55.9544 51.871 63.2677 49.6984 71.3576V71.3576Z" fill="#C5DEF8"/>
<path d="M123.715 38.5159C116.602 34.8718 108.541 32.8159 100 32.8159C97.304 32.8159 94.6551 33.0206 92.0696 33.4159L131.577 126.317C140.167 119.758 146.656 110.59 149.859 99.9929L123.715 38.5159Z" fill="#C5DEF8"/>
<path d="M106.271 136.606C110.687 136.076 114.934 134.994 118.939 133.43L78.1835 37.5952C74.1937 39.4386 70.4761 41.771 67.1089 44.5171L106.271 136.606Z" fill="#C5DEF8"/>
<path d="M128.134 57.2156C124.49 53.2648 96.6157 53.3831 78.2036 70.3671C68.3848 79.4245 67.7672 94.7265 76.8247 104.546C85.8821 114.364 101.184 114.982 111.003 105.925C129.415 88.9406 131.779 61.1663 128.134 57.2156V57.2156Z" fill="#A3EA6E"/>
<path d="M100.37 104.545C91.3122 94.7267 91.9298 79.4244 101.749 70.367C109.568 63.1541 119.093 58.9842 127.745 56.8748C122.843 53.2865 96.0696 53.8865 78.2036 70.367C68.3848 79.4244 67.7672 94.7263 76.8247 104.545C84.5567 112.928 96.8372 114.598 106.375 109.274C104.191 108.057 102.157 106.483 100.37 104.545Z" fill="#85D249"/>
<path d="M109.363 71.6107C108.313 70.3794 106.464 70.2317 105.233 71.2821C101.482 74.4802 98.0575 77.8282 94.9426 81.3392C93.8379 77.2954 94.2879 73.5235 94.7575 71.3317C95.0965 69.7497 94.0887 68.1927 92.5063 67.8536C90.9239 67.5149 89.3668 68.5224 89.0282 70.1052C88.2938 73.5333 87.6082 80.0091 90.6289 86.5638C88.352 89.5356 86.2762 92.62 84.3954 95.8251C84.3086 95.9501 84.2301 96.0821 84.1621 96.2224C80.9801 101.71 78.3657 107.549 76.2934 113.783C75.7829 115.318 76.6137 116.977 78.1493 117.487C78.4559 117.589 78.7676 117.637 79.0739 117.637C80.3016 117.637 81.445 116.86 81.8536 115.631C83.5762 110.449 85.702 105.558 88.2434 100.927C89.5493 101.2 91.2981 101.449 93.359 101.449C97.0235 101.449 101.657 100.663 106.457 97.8298C107.85 97.0075 108.313 95.2114 107.491 93.8177C106.668 92.4239 104.872 91.9618 103.479 92.7837C98.8254 95.5298 94.4239 95.7966 91.4805 95.513C96.1735 88.2935 101.997 81.7407 109.034 75.7407C110.266 74.6911 110.413 72.8423 109.363 71.6107V71.6107Z" fill="#60B550"/>
<rect width="200" height="64" transform="translate(0 200)" fill="#AACCAA"/>
<path d="M54.8885 231.896C56.3285 232.352 57.4565 233.12 58.2725 234.2C59.0885 235.256 59.4965 236.564 59.4965 238.124C59.4965 240.332 58.6325 242.036 56.9045 243.236C55.2005 244.412 52.7045 245 49.4165 245H36.3845V219.8H48.6965C51.7685 219.8 54.1205 220.388 55.7525 221.564C57.4085 222.74 58.2365 224.336 58.2365 226.352C58.2365 227.576 57.9365 228.668 57.3365 229.628C56.7605 230.588 55.9445 231.344 54.8885 231.896ZM42.1805 224.192V230.132H47.9765C49.4165 230.132 50.5085 229.88 51.2525 229.376C51.9965 228.872 52.3685 228.128 52.3685 227.144C52.3685 226.16 51.9965 225.428 51.2525 224.948C50.5085 224.444 49.4165 224.192 47.9765 224.192H42.1805ZM48.9845 240.608C50.5205 240.608 51.6725 240.356 52.4405 239.852C53.2325 239.348 53.6285 238.568 53.6285 237.512C53.6285 235.424 52.0805 234.38 48.9845 234.38H42.1805V240.608H48.9845ZM68.8798 228.188C69.5518 227.252 70.4518 226.544 71.5798 226.064C72.7318 225.584 74.0518 225.344 75.5398 225.344V230.528C74.9158 230.48 74.4958 230.456 74.2798 230.456C72.6718 230.456 71.4118 230.912 70.4998 231.824C69.5878 232.712 69.1318 234.056 69.1318 235.856V245H63.5158V225.632H68.8798V228.188ZM87.9193 245.288C85.8793 245.288 84.0433 244.868 82.4113 244.028C80.8033 243.164 79.5433 241.976 78.6313 240.464C77.7193 238.952 77.2633 237.236 77.2633 235.316C77.2633 233.396 77.7193 231.68 78.6313 230.168C79.5433 228.656 80.8033 227.48 82.4113 226.64C84.0433 225.776 85.8793 225.344 87.9193 225.344C89.9593 225.344 91.7833 225.776 93.3913 226.64C94.9993 227.48 96.2593 228.656 97.1713 230.168C98.0833 231.68 98.5393 233.396 98.5393 235.316C98.5393 237.236 98.0833 238.952 97.1713 240.464C96.2593 241.976 94.9993 243.164 93.3913 244.028C91.7833 244.868 89.9593 245.288 87.9193 245.288ZM87.9193 240.68C89.3593 240.68 90.5353 240.2 91.4473 239.24C92.3833 238.256 92.8513 236.948 92.8513 235.316C92.8513 233.684 92.3833 232.388 91.4473 231.428C90.5353 230.444 89.3593 229.952 87.9193 229.952C86.4793 229.952 85.2913 230.444 84.3553 231.428C83.4193 232.388 82.9513 233.684 82.9513 235.316C82.9513 236.948 83.4193 238.256 84.3553 239.24C85.2913 240.2 86.4793 240.68 87.9193 240.68ZM114.065 225.344C116.465 225.344 118.397 226.064 119.861 227.504C121.349 228.944 122.093 231.08 122.093 233.912V245H116.477V234.776C116.477 233.24 116.141 232.1 115.469 231.356C114.797 230.588 113.825 230.204 112.553 230.204C111.137 230.204 110.009 230.648 109.169 231.536C108.329 232.4 107.909 233.696 107.909 235.424V245H102.293V225.632H107.657V227.9C108.401 227.084 109.325 226.46 110.429 226.028C111.533 225.572 112.745 225.344 114.065 225.344ZM143.132 240.68V245H125.852V241.616L135.716 229.952H126.104V225.632H142.808V229.016L132.944 240.68H143.132ZM165.457 235.388C165.457 235.46 165.421 235.964 165.349 236.9H150.697C150.961 238.1 151.585 239.048 152.569 239.744C153.553 240.44 154.777 240.788 156.241 240.788C157.249 240.788 158.137 240.644 158.905 240.356C159.697 240.044 160.429 239.564 161.101 238.916L164.089 242.156C162.265 244.244 159.601 245.288 156.097 245.288C153.913 245.288 151.981 244.868 150.301 244.028C148.621 243.164 147.325 241.976 146.413 240.464C145.501 238.952 145.045 237.236 145.045 235.316C145.045 233.42 145.489 231.716 146.377 230.204C147.289 228.668 148.525 227.48 150.085 226.64C151.669 225.776 153.433 225.344 155.377 225.344C157.273 225.344 158.989 225.752 160.525 226.568C162.061 227.384 163.261 228.56 164.125 230.096C165.013 231.608 165.457 233.372 165.457 235.388ZM155.413 229.592C154.141 229.592 153.073 229.952 152.209 230.672C151.345 231.392 150.817 232.376 150.625 233.624H160.165C159.973 232.4 159.445 231.428 158.581 230.708C157.717 229.964 156.661 229.592 155.413 229.592Z" fill="#1D295A"/>
</g>
<defs>
<filter id="filter0_d" x="91.0005" y="90" width="100.803" height="109.132" filterUnits="userSpaceOnUse" color-interpolation-filters="sRGB">
<feFlood flood-opacity="0" result="BackgroundImageFix"/>
<feColorMatrix in="SourceAlpha" type="matrix" values="0 0 0 0 0 0 0 0 0 0 0 0 0 0 0 0 0 0 127 0"/>
<feOffset dy="4"/>
<feGaussianBlur stdDeviation="2"/>
<feColorMatrix type="matrix" values="0 0 0 0 0 0 0 0 0 0 0 0 0 0 0 0 0 0 0.25 0"/>
<feBlend mode="normal" in2="BackgroundImageFix" result="effect1_dropShadow"/>
<feBlend mode="normal" in="SourceGraphic" in2="effect1_dropShadow" result="shape"/>
</filter>
<filter id="filter1_d" x="17.875" y="7.81226" width="164.25" height="162.174" filterUnits="userSpaceOnUse" color-interpolation-filters="sRGB">
<feFlood flood-opacity="0" result="BackgroundImageFix"/>
<feColorMatrix in="SourceAlpha" type="matrix" values="0 0 0 0 0 0 0 0 0 0 0 0 0 0 0 0 0 0 127 0"/>
<feOffset dy="4"/>
<feGaussianBlur stdDeviation="2"/>
<feColorMatrix type="matrix" values="0 0 0 0 0 0 0 0 0 0 0 0 0 0 0 0 0 0 0.25 0"/>
<feBlend mode="normal" in2="BackgroundImageFix" result="effect1_dropShadow"/>
<feBlend mode="normal" in="SourceGraphic" in2="effect1_dropShadow" result="shape"/>
</filter>
</defs>
</svg>
