<svg width="800" height="600" viewBox="0 0 1013 1084" fill="none" xmlns="http://www.w3.org/2000/svg">
<g clip-path="url(#clip0)">
<path d="M170.481 823.348C170.481 823.348 174.043 746.712 247.079 755.62L170.481 823.348Z" fill="#E6E6E6"/>
<path d="M169.623 1083.03C169.532 1082.23 160.911 1002.37 195.816 960.11C208.698 944.513 225.959 935.778 247.12 934.15L247.353 937.161C227.043 938.723 210.487 947.09 198.148 962.027C164.06 1003.29 172.533 1081.9 172.621 1082.69L169.623 1083.03Z" fill="#E6E6E6"/>
<path d="M169.71 744.992H166.672V1080.75H169.71V744.992Z" fill="#E6E6E6"/>
<path d="M170.481 746.712C184.254 746.712 195.42 735.545 195.42 721.77C195.42 707.995 184.254 696.828 170.481 696.828C156.707 696.828 145.542 707.995 145.542 721.77C145.542 735.545 156.707 746.712 170.481 746.712Z" fill="#6CC49B"/>
<path d="M247.237 960.439C260.923 960.439 272.018 949.343 272.018 935.655C272.018 921.967 260.923 910.87 247.237 910.87C233.55 910.87 222.455 921.967 222.455 935.655C222.455 949.343 233.55 960.439 247.237 960.439Z" fill="#E6E6E6"/>
<path d="M1013 274.053V275.694C1012.96 279.814 1012.84 283.915 1012.65 287.998C1009.09 357.872 978.952 423.74 928.404 472.104C877.855 520.468 810.726 547.666 740.772 548.124C670.819 548.581 603.339 522.264 552.162 474.565C500.985 426.867 469.986 361.398 465.519 291.578C465.146 285.78 464.96 279.938 464.96 274.053C464.862 217.292 482.476 161.915 515.346 115.643C517.974 111.914 520.708 108.254 523.548 104.662C525.505 102.164 527.518 99.7218 529.55 97.2982C575.807 42.492 641.7 8.00132 713.092 1.22583C784.484 -5.54966 855.687 15.9298 911.426 61.0561C914.725 63.722 917.969 66.4812 921.138 69.2963C923.673 71.5521 926.165 73.8577 928.613 76.2129C976.828 122.338 1006.51 184.511 1012.05 251.01C1012.68 258.617 1013 266.298 1013 274.053Z" fill="#42A9C5"/>
<path d="M523.548 104.662C523.682 104.719 523.808 104.794 523.921 104.886C525.393 106.098 523.548 108.428 523.772 110.348C524.033 112.809 527.313 113.35 529.793 113.592C532.272 113.853 535.404 115.848 534.229 118.048C528.003 120.192 521.702 118.085 515.346 115.643C482.475 161.915 464.862 217.292 464.96 274.053C464.96 279.944 465.146 285.786 465.519 291.578C466.04 291.958 466.611 292.265 467.215 292.491C469.079 293.2 471.242 293.069 472.957 294.076C474.318 294.878 475.231 296.294 476.592 297.04C480.488 299.165 485.894 295.083 489.528 297.618C490.468 298.474 491.358 299.383 492.194 300.34C495.549 303.248 501.067 301.291 504.944 303.472C507.442 304.87 508.729 307.667 510.071 310.202C513.407 316.541 518.813 322.768 525.953 323.271C528.204 323.168 530.461 323.242 532.701 323.495C534.9 323.998 537.063 325.918 536.708 328.137C536.093 331.959 537.976 336.135 537.473 339.957C536.559 346.948 526.661 350.005 525.822 356.996C525.819 358.535 525.732 360.072 525.561 361.601C525.114 363.428 523.734 364.92 523.25 366.747C522.318 370.196 524.797 373.645 527.5 375.956C530.221 378.287 533.465 380.3 534.956 383.544C536.522 386.993 535.758 391.001 536.261 394.749C537.379 402.933 544.444 408.992 551.714 412.907C554.044 413.881 556.113 415.388 557.754 417.307C559.618 420.01 559.431 423.571 560.065 426.796C561.594 434.682 568.23 441.188 568.416 449.224C568.547 454.947 565.378 460.13 563.477 465.518C561.521 471.166 560.939 477.199 561.78 483.117C572.409 492.132 583.707 500.328 595.576 507.632C596.222 506.678 596.695 505.618 596.974 504.5C597.2 503.264 597.044 501.989 596.528 500.844C596.012 499.698 595.16 498.737 594.085 498.087C596.088 497.33 597.911 496.162 599.435 494.657C600.184 493.887 600.678 492.905 600.851 491.845C601.025 490.785 600.869 489.697 600.404 488.728C603.685 489.138 607.581 489.344 609.743 486.827C611.477 484.813 611.365 481.793 610.675 479.239C609.985 476.666 608.83 474.187 608.811 471.521C616.412 471.891 624.031 471.635 631.59 470.756C630.496 467.069 628.009 463.952 624.656 462.069C628.086 461.491 631.199 457.389 632.28 454.089C633.215 450.723 633.266 447.172 632.429 443.78C632.17 442.908 632.131 441.985 632.317 441.095C632.869 439.913 633.838 438.976 635.039 438.466C640.706 435.204 646.372 431.948 652.039 428.697C653.05 428.188 653.97 427.513 654.761 426.703C656.532 424.596 656.271 421.445 655.357 418.854C654.444 416.263 652.99 413.82 652.636 411.098C651.592 402.951 660.316 397.098 663.261 389.417C664.262 386.35 664.802 383.152 664.864 379.927C665.106 376.46 665.125 372.451 662.478 370.233C659.924 368.089 655.954 368.574 653.288 366.579C650.846 364.752 650.007 361.228 647.342 359.755C644.918 358.413 641.898 359.271 639.196 358.637C634.461 357.537 631.478 352.075 626.632 351.571C623.91 351.273 620.816 352.615 618.579 351.031C616.603 349.614 616.528 346.799 616.156 344.412C615.494 340.695 613.71 337.27 611.044 334.597C608.378 331.924 604.958 330.132 601.243 329.46C598.428 329.013 595.371 329.181 592.966 327.633C590.543 326.067 589.443 323.141 587.523 320.959C584.466 317.473 579.619 316.224 575.09 315.161C568.938 313.726 562.793 312.284 556.654 310.836C553.392 310.053 549.179 309.643 547.408 312.514C546.884 313.606 546.52 314.767 546.327 315.963C545.661 318.114 544.333 320.001 542.532 321.353C540.732 322.706 538.55 323.455 536.298 323.495C534.757 320.862 532.26 318.926 529.327 318.088C527.41 317.766 525.517 317.318 523.66 316.746C522.69 316.271 521.827 315.603 521.124 314.782C520.421 313.962 519.893 313.007 519.572 311.976C519.251 310.944 519.144 309.858 519.257 308.784C519.37 307.71 519.701 306.67 520.23 305.728C521.287 303.836 521.693 301.649 521.387 299.504C521.081 297.358 520.078 295.373 518.534 293.852C515.402 291.037 510.872 290.347 506.659 290.627C505.56 288.222 507.405 285.519 509.381 283.766C511.375 282.033 513.78 280.317 514.209 277.707C514.899 273.606 509.661 270.492 505.69 271.704C501.72 272.935 499.184 276.794 497.507 280.597C496.693 282.841 495.583 284.967 494.207 286.917C493.502 287.882 492.544 288.633 491.439 289.087C490.333 289.541 489.124 289.68 487.944 289.49C484.663 288.651 483.414 284.754 482.687 281.473C481.522 277.088 480.933 272.569 480.935 268.032C480.964 263.449 482.783 259.06 486.005 255.802C491.43 250.805 499.781 251.29 507.107 252.092C506.322 251.045 505.946 249.748 506.049 248.444C506.152 247.14 506.727 245.918 507.666 245.007C508.646 244.137 509.824 243.519 511.098 243.207C512.371 242.895 513.701 242.899 514.973 243.218C517.182 243.675 519.172 244.864 520.621 246.592C522.709 249.127 523.306 252.576 524.871 255.447C526.456 258.337 529.998 260.798 532.887 259.251C535.403 257.908 535.795 254.441 535.18 251.663C534.546 248.904 533.222 246.201 533.446 243.367C533.875 237.979 539.486 234.716 544.426 232.498C549.365 230.279 555.014 227.278 555.797 221.909C555.833 220.864 556.034 219.832 556.393 218.851C556.94 217.975 557.704 217.256 558.611 216.763C573.021 207.237 587.691 197.579 604.169 192.378C605.027 192.098 605.12 192.397 605.996 192.192C607.227 191.483 606.406 189.526 605.232 188.743C604.058 187.96 602.492 187.344 602.194 185.965C601.988 184.958 602.585 183.951 602.734 182.926C602.773 182.307 602.66 181.687 602.404 181.122C602.147 180.557 601.757 180.063 601.265 179.684C600.774 179.305 600.197 179.052 599.586 178.948C598.974 178.843 598.346 178.891 597.757 179.086C596.434 177.333 599.043 175.301 601.168 174.704C607.531 172.961 614.061 171.899 620.648 171.535C621.408 171.409 622.189 171.541 622.866 171.908C623.351 172.375 623.638 173.01 623.669 173.683C623.7 174.355 623.473 175.014 623.034 175.525C622.137 176.521 621.144 177.426 620.07 178.228C619.001 179.267 618.237 180.579 617.862 182.023C617.487 183.466 617.516 184.984 617.945 186.412C621.394 188.165 625.122 189.973 628.943 189.358C632.746 188.743 636.12 184.455 634.33 181.043C632.671 177.855 627.657 177.128 626.799 173.642C625.793 169.559 631.571 165.923 630.267 161.934C629.707 160.181 627.955 159.137 626.613 157.888C625.033 156.333 623.959 154.338 623.53 152.163C623.101 149.988 623.338 147.734 624.208 145.696C622.026 146.077 619.784 145.931 617.67 145.269C615.556 144.608 613.63 143.45 612.054 141.893C609.147 138.966 606.835 134.323 602.697 134.473C598.913 134.584 595.65 139.003 592.109 137.661C591.233 137.325 590.319 136.654 589.48 137.045C589.204 137.223 588.971 137.462 588.8 137.743C588.629 138.024 588.524 138.34 588.493 138.667C587.598 142.974 589.145 147.877 586.796 151.606C584.242 155.651 578.333 156.21 575.239 159.864C573.561 161.841 572.909 164.507 571.362 166.595C569.814 168.683 566.552 170.025 564.688 168.198C565.601 166.326 565.851 164.2 565.397 162.168C564.943 160.135 563.813 158.317 562.19 157.012C560.473 155.885 558.619 154.983 556.673 154.328C554.498 153.41 552.43 152.26 550.502 150.897C549.542 150.312 548.762 149.474 548.247 148.474C547.84 147.216 547.893 145.855 548.396 144.633C549.34 141.941 551 139.556 553.197 137.736C555.394 135.917 558.046 134.73 560.867 134.305C563.327 133.969 566.198 134.081 567.838 132.198C568.696 131.21 569.143 129.7 570.411 129.309C571.209 129.142 572.041 129.24 572.778 129.588C575.854 130.67 578.911 131.751 581.987 132.832C583.012 133.303 584.145 133.489 585.268 133.373C585.824 133.301 586.332 133.02 586.688 132.587C587.045 132.155 587.224 131.602 587.188 131.042C586.889 129.514 584.541 128.787 584.764 127.239C584.873 126.734 585.141 126.276 585.529 125.934C588.853 122.397 592.918 119.639 597.433 117.857C601.948 116.075 606.801 115.312 611.644 115.625C612.8 117.545 610.973 119.801 609.426 121.423C607.898 123.063 606.667 125.971 608.531 127.221C609.283 127.615 610.125 127.808 610.973 127.78C613.24 128.084 615.443 128.751 617.498 129.756C620.685 131.136 623.817 132.664 626.874 134.305C626.424 132.306 626.501 130.225 627.098 128.265C627.434 127.302 628.117 126.5 629.013 126.014C629.909 125.528 630.954 125.393 631.944 125.636C633.771 126.344 634.703 128.768 636.66 128.992C639.252 129.29 640.277 125.449 639.196 123.063C638.114 120.677 635.952 118.701 635.784 116.072C635.654 114.32 636.325 112.138 634.927 111.076C634.43 110.746 633.861 110.542 633.268 110.479C621.561 108.335 609.849 106.185 598.13 104.029C596.042 103.637 593.041 103.935 592.948 106.042C592.892 107.235 593.954 108.41 593.488 109.491C592.985 110.647 591.345 110.554 590.152 110.964C589.255 111.37 588.516 112.058 588.045 112.922C587.574 113.787 587.397 114.781 587.542 115.755C587.86 117.694 588.612 119.535 589.741 121.143C587.449 120.192 584 120.024 581.707 119.055C581.374 116.4 580.697 113.799 579.694 111.318C579.637 110.923 579.494 110.546 579.275 110.212C579.056 109.879 578.766 109.597 578.427 109.387C578.088 109.178 577.706 109.045 577.31 108.998C576.914 108.952 576.512 108.993 576.134 109.118C573.114 109.584 570.094 110.032 567.074 110.498C566.316 110.534 565.59 110.815 565.005 111.299C563.831 112.548 564.986 114.543 564.949 116.258C564.84 117.217 564.435 118.119 563.79 118.837C563.145 119.555 562.293 120.055 561.351 120.267C559.454 120.652 557.497 120.626 555.61 120.192C551.379 119.54 547.166 118.887 542.934 118.235C546.669 117.044 549.991 114.821 552.516 111.821C554.193 109.845 555.088 106.154 552.665 105.222C551.949 105.025 551.202 104.968 550.465 105.054C544.724 105.091 540.194 100.3 534.826 98.2678C533.138 97.638 531.352 97.3099 529.55 97.2984L523.548 104.662Z" fill="#AACCAA"/>
<path d="M1012.65 287.998C1011.99 288.881 1011.12 289.589 1010.13 290.06C1009.14 290.531 1008.04 290.752 1006.94 290.702C1001.11 290.198 998.647 281.79 992.868 280.839C992.357 280.708 991.816 280.761 991.339 280.988C990.482 281.455 990.333 282.61 990.277 283.58C990.035 288.39 989.829 293.386 991.712 297.823C994.452 304.311 1001.55 309.755 1000.06 316.634C992.048 312.924 987.872 303.919 985.989 295.288C984.088 286.656 983.79 277.595 980.397 269.43C977.806 272.73 972.4 270.008 970.052 266.54C967.815 263.259 966.435 259.456 964.273 256.119C962.111 252.8 958.793 249.817 954.841 249.631C950.684 249.444 947.067 252.297 943.898 255C941.142 257.037 938.827 259.612 937.095 262.569C934.876 267.044 935.454 272.301 935.342 277.279C935.231 282.648 934.093 288.334 930.421 292.286C926.749 296.22 919.982 297.6 915.937 294.039C913.982 292 912.588 289.488 911.892 286.749C907.495 273.932 903.835 260.873 900.931 247.636C900.26 250.656 897.595 254.553 895.06 252.782C894.493 252.3 894.035 251.702 893.717 251.029C888.983 243.031 880.24 238.221 871.386 235.332C862.55 232.461 853.248 231.118 844.506 227.949C839.603 226.169 834.919 223.836 830.544 220.995C829.432 222.632 828.784 224.539 828.665 226.514C828.547 228.49 828.964 230.46 829.873 232.218C830.855 233.938 832.378 235.286 834.205 236.051C836.032 236.816 838.061 236.957 839.976 236.45C841.915 235.816 843.555 234.474 845.475 233.803C847.395 233.15 849.986 233.467 850.825 235.332C851.645 237.103 850.415 239.247 851.03 241.111C851.943 243.926 856.212 244.15 857.703 246.723C858.142 247.741 858.242 248.874 857.991 249.954C857.739 251.034 857.149 252.005 856.305 252.726C854.59 254.125 852.697 255.291 850.676 256.193C844.413 259.68 839.957 265.627 834.477 270.25C828.997 274.892 821.261 278.267 814.736 275.303C816.284 267.416 806.907 261.637 805.174 253.788C804.596 251.197 804.894 248.456 804.092 245.94C802.918 242.286 799.675 239.787 797.028 237.028C793.812 233.641 791.306 229.645 789.657 225.274C788.008 220.904 787.25 216.248 787.428 211.58C787.577 208.337 788.173 205.037 787.428 201.867C786.701 198.717 784.072 195.659 780.829 195.79C773.428 196.125 764.089 196.685 760.212 190.365C758.814 188.109 758.217 184.809 760.231 183.075C761.647 181.863 763.735 181.975 765.58 182.162C771.154 182.702 776.709 183.262 782.283 183.802C786.179 184.175 790.391 184.492 793.747 182.46C797.102 180.428 798.556 175.003 795.443 172.598C793.187 170.845 789.124 170.939 788.453 168.161C787.912 165.83 790.485 163.202 789.087 161.244C788.099 159.865 785.862 160.237 784.501 161.281C783.313 162.514 782.023 163.643 780.642 164.656C777.977 166.035 774.808 164.712 771.937 163.817C769.066 162.922 765.226 162.847 763.847 165.513C762.281 168.478 765.208 172.393 763.679 175.376C761.629 179.309 754.732 177.072 751.861 180.465C748.58 184.343 754.098 190.16 752.998 195.119C751.582 195.821 750.008 196.144 748.43 196.056C746.852 195.967 745.323 195.471 743.994 194.615C742.69 193.728 741.651 192.503 740.988 191.072C740.325 189.64 740.062 188.056 740.229 186.487C740.49 184.25 741.664 181.957 740.881 179.85C740.037 178.223 738.644 176.948 736.948 176.252C731.542 173.25 726.136 170.261 720.731 167.285C719.221 170.081 721.122 173.53 723.508 175.637C725.875 177.725 728.858 179.309 730.424 182.069C731.415 183.981 731.639 186.199 731.05 188.271C730.461 190.343 729.104 192.112 727.255 193.217C727.021 193.378 726.755 193.486 726.475 193.535C726.195 193.583 725.908 193.57 725.633 193.497C725.375 193.345 725.149 193.143 724.97 192.903C724.791 192.663 724.661 192.389 724.589 192.098C721.737 184.772 717.431 177.557 710.571 173.735C703.693 169.895 693.832 170.696 689.321 177.128C688.258 178.657 687.531 180.409 686.599 182.031C681.659 190.626 671.034 194.69 661.117 194.429C660.147 194.491 659.181 194.264 658.34 193.776C656.737 192.676 656.811 190.327 657.053 188.389C657.408 185.648 657.743 182.926 658.097 180.186C658.106 178.512 658.753 176.905 659.906 175.693C661.751 174.238 664.398 175.152 666.747 175.115C668.519 175.036 670.224 174.411 671.629 173.327C673.034 172.242 674.069 170.751 674.595 169.056C675.067 167.345 675.063 165.538 674.583 163.829C674.104 162.121 673.167 160.576 671.873 159.361C670.81 158.355 669.375 157.087 669.934 155.726C670.162 155.351 670.468 155.03 670.831 154.785C671.195 154.541 671.608 154.378 672.041 154.309C676.235 153.097 680.69 152.78 684.81 151.326C688.948 149.891 692.956 146.945 693.944 142.676C694.242 141.371 694.372 139.786 695.547 139.134C696.14 138.896 696.772 138.769 697.411 138.761C699.652 138.439 701.692 137.292 703.131 135.543C704.569 133.794 705.301 131.57 705.184 129.309C707.16 127.929 709.937 128.954 711.857 130.427C713.759 131.9 715.455 133.839 717.785 134.473C722.129 135.666 726.323 131.807 730.834 131.788C732.735 131.788 734.692 132.459 736.463 131.807C738.271 131.154 739.353 129.365 740.732 128.041C742.13 126.699 744.553 125.897 745.84 127.333C745.467 124.629 745.113 121.945 744.74 119.26C746.936 119.813 749.225 119.89 751.453 119.485C753.681 119.079 755.797 118.202 757.658 116.911C752.961 115.326 748.282 113.742 743.584 112.157C743.091 112.035 742.636 111.792 742.261 111.449C741.235 110.349 742.261 108.633 743.081 107.384C745.075 104.383 745.411 99.4425 742.13 97.951C739.893 96.9256 737.339 98.1561 735.196 99.3492C731.766 101.251 728.336 103.171 724.906 105.073C724.589 107.03 726.975 108.149 728.448 109.454C729.345 110.25 729.981 111.299 730.27 112.463C730.56 113.627 730.49 114.852 730.071 115.976C729.651 117.1 728.901 118.07 727.919 118.76C726.937 119.449 725.77 119.825 724.571 119.838C725.246 120.72 725.716 121.742 725.945 122.829C726.174 123.916 726.156 125.041 725.894 126.121C723.601 126.288 721.29 126.456 718.978 126.624C718.594 126.701 718.199 126.7 717.815 126.624C717.431 126.547 717.066 126.395 716.741 126.177C715.996 125.524 716.108 124.368 715.921 123.399C715.614 122.24 714.967 121.2 714.063 120.412C713.159 119.625 712.041 119.126 710.851 118.98C708.476 118.713 706.072 118.935 703.786 119.633C702.792 119.983 701.705 119.957 700.729 119.558C700.176 119.192 699.757 118.655 699.536 118.03C699.13 116.751 699.061 115.39 699.335 114.077C699.61 112.764 700.218 111.544 701.102 110.535C702.892 108.547 704.864 106.731 706.992 105.11C711.816 100.887 715.361 95.3974 717.226 89.2634C721.029 87.6601 724.962 85.4975 728.783 83.8942C731.856 82.4703 735.075 81.3887 738.383 80.6689C741.497 80.1933 744.652 80.0434 747.797 80.2215C752.084 80.296 756.39 80.3706 760.678 80.4638C764.505 80.303 768.329 80.8529 771.956 82.0858C775.479 83.54 778.592 86.6906 778.834 90.4938C778.907 90.9272 778.869 91.3722 778.722 91.7866C778.575 92.2009 778.325 92.5709 777.995 92.8615C777.5 93.1352 776.938 93.2644 776.373 93.2344C772.813 93.3462 771.303 94.2411 767.743 94.3716C769.998 96.7765 772.533 99.312 775.814 99.7408C781.593 100.486 785.75 94.5021 788.415 89.3007C788.511 90.6246 789.12 91.8589 790.112 92.7401C791.105 93.6213 792.402 94.0797 793.728 94.0174C795.156 93.7718 796.52 93.239 797.736 92.4513C809.201 86.1845 822.045 82.866 835.111 82.7942C834.982 81.8049 835.226 80.8033 835.794 79.9834C836.363 79.1636 837.215 78.5841 838.186 78.3572C840.852 77.8352 843.238 80.1283 844.524 82.5146C845.792 84.9009 846.593 87.66 848.644 89.4498C850.676 91.2395 854.609 91.1463 855.41 88.5736C856.193 86.0941 853.602 83.9687 851.459 82.4959C849.296 81.0418 847.041 78.3385 848.495 76.1759C859.456 73.7336 870.51 71.31 881.75 70.8253C883.66 70.8832 885.563 70.5534 887.342 69.8559C888.223 69.4826 888.957 68.829 889.429 67.9965C889.9 67.1639 890.084 66.1988 889.952 65.251C887.499 65.8235 884.932 65.6542 882.575 64.7646C880.219 63.8751 878.18 62.3053 876.717 60.2547C888.256 59.3039 900.335 58.465 911.426 61.0563L921.138 69.2965C919.293 71.2168 916.832 73.0252 918.174 74.9454C918.617 75.3864 919.154 75.7212 919.745 75.9247C920.336 76.1281 920.965 76.1949 921.585 76.1199C923.934 76.1572 926.283 76.2131 928.613 76.2131C976.828 122.339 1006.51 184.512 1012.05 251.011C1008.13 250.862 1004.54 255.821 1005.04 260.146C1005.64 265.161 1009.25 269.188 1011.84 273.513C1012.27 274.216 1012.66 274.944 1013 275.694L1012.65 287.998Z" fill="#AACCAA"/>
<path d="M650.353 543.801C676.36 543.801 697.443 522.715 697.443 496.704C697.443 470.694 676.36 449.608 650.353 449.608C624.345 449.608 603.262 470.694 603.262 496.704C603.262 522.715 624.345 543.801 650.353 543.801Z" fill="#2F2E41"/>
<path d="M627.873 520.498C627.873 520.498 612.535 554.465 608.153 555.561C603.77 556.656 644.307 576.379 644.307 576.379C644.307 576.379 651.976 534.742 655.263 532.551C658.549 530.359 627.873 520.498 627.873 520.498Z" fill="#FFB9B9"/>
<path d="M536.94 798.809L508.455 878.796L539.131 890.85L591.719 786.757L536.94 798.809Z" fill="#FFB9B9"/>
<path d="M636.638 801.001C636.638 801.001 693.608 880.988 696.895 882.084C700.182 883.18 723.189 863.457 723.189 863.457C723.189 863.457 694.704 794.427 685.939 791.14C677.175 787.852 636.638 801.001 636.638 801.001Z" fill="#FFB9B9"/>
<path d="M504.072 864.552L459.153 981.794C459.153 981.794 462.44 988.368 459.153 989.464C455.867 990.56 448.198 1008.09 448.198 1009.19C448.198 1010.28 440.529 1011.38 440.529 1014.67C440.529 1017.95 433.955 1044.25 433.955 1044.25C433.955 1044.25 446.006 1070.55 453.676 1062.88C461.345 1055.21 464.631 1039.87 464.631 1039.87L475.587 1011.38C475.587 1011.38 474.492 996.038 482.161 993.847C489.83 991.656 494.212 964.263 494.212 964.263C494.212 964.263 506.264 952.21 508.455 948.923C510.646 945.635 548.991 887.562 545.704 886.467C542.418 885.371 504.072 864.552 504.072 864.552Z" fill="#2F2E41"/>
<path d="M690.321 879.892L723.189 857.978C723.189 857.978 780.159 962.071 780.159 964.263C780.159 966.454 777.968 973.028 780.159 975.22C782.35 977.411 800.975 1012.47 813.026 1015.76C825.078 1019.05 827.269 1032.2 817.409 1034.39C807.549 1036.58 794.402 1042.06 791.115 1034.39C789.193 1029.88 786.998 1025.48 784.541 1021.24C784.541 1021.24 773.585 1024.53 772.49 1022.34C771.226 1019.11 770.129 1015.82 769.203 1012.47C769.203 1012.47 760.439 997.134 760.439 991.655C760.439 986.177 754.961 985.081 754.961 985.081C754.961 985.081 742.909 956.593 735.24 952.21C727.571 947.827 720.998 925.913 720.998 925.913L690.321 879.892Z" fill="#2F2E41"/>
<path d="M650.88 545.699C668.427 545.699 682.652 531.473 682.652 513.923C682.652 496.374 668.427 482.148 650.88 482.148C633.333 482.148 619.108 496.374 619.108 513.923C619.108 531.473 633.333 545.699 650.88 545.699Z" fill="#FFB9B9"/>
<path d="M556.66 706.769C556.66 706.769 509.637 831.704 516.211 831.704C522.784 831.704 704.641 835.661 710.119 826.895C715.597 818.13 662.932 730.875 660.741 729.779C658.55 728.684 556.66 706.769 556.66 706.769Z" fill="#2F2E41"/>
<path d="M509.55 445.989L476.683 395.586C476.683 395.586 484.811 342.713 473.855 352.574C462.899 362.436 459.432 402.259 459.432 402.259L497.499 460.233L509.55 445.989Z" fill="#FFB9B9"/>
<path d="M807.549 538.029L837.129 535.838C837.129 535.838 872.188 498.583 874.379 510.636C876.57 522.689 845.894 548.986 845.894 548.986L805.357 553.369L807.549 538.029Z" fill="#FFB9B9"/>
<path d="M591.719 548.986V538.029C591.719 538.029 563.234 519.402 564.329 516.115C565.425 512.828 562.138 510.636 562.138 510.636C562.138 510.636 558.851 506.254 558.851 505.158C558.851 504.062 554.469 502.966 554.469 502.966L527.079 471.191C527.079 471.191 511.741 440.511 508.454 441.606C505.168 442.702 487.638 449.276 489.83 453.659C492.021 458.042 553.373 552.274 553.373 552.274C553.373 552.274 556.66 573.092 562.138 573.092C567.616 573.092 591.719 548.986 591.719 548.986Z" fill="#3F3D56"/>
<path d="M665.123 562.135C665.123 562.135 689.226 561.039 690.322 562.135C691.417 563.231 706.755 562.135 706.755 562.135C706.755 562.135 748.387 552.274 751.674 548.986C754.961 545.699 809.74 531.455 811.931 538.029C814.122 544.604 819.6 557.752 814.122 559.944C808.644 562.135 660.741 599.389 660.741 599.389L665.123 562.135Z" fill="#3F3D56"/>
<path d="M633.88 466.624C644.641 466.624 653.365 457.899 653.365 447.136C653.365 436.373 644.641 427.648 633.88 427.648C623.118 427.648 614.394 436.373 614.394 447.136C614.394 457.899 623.118 466.624 633.88 466.624Z" fill="#2F2E41"/>
<path d="M607.899 436.58C607.899 431.763 609.683 427.117 612.907 423.538C616.13 419.958 620.565 417.7 625.355 417.198C624.68 417.128 624.003 417.092 623.325 417.092C618.157 417.092 613.201 419.145 609.547 422.8C605.892 426.455 603.839 431.412 603.839 436.58C603.839 441.749 605.892 446.706 609.547 450.36C613.201 454.015 618.157 456.068 623.325 456.068C624.003 456.068 624.68 456.033 625.355 455.963C620.565 455.461 616.13 453.202 612.907 449.623C609.683 446.044 607.899 441.397 607.899 436.58Z" fill="#2F2E41"/>
<path d="M655.83 506.207C673.766 506.207 688.306 497.482 688.306 486.719C688.306 475.956 673.766 467.231 655.83 467.231C637.894 467.231 623.354 475.956 623.354 486.719C623.354 497.482 637.894 506.207 655.83 506.207Z" fill="#2F2E41"/>
<path d="M618.561 537.481C618.561 537.481 608.701 545.151 606.51 546.247C604.319 547.343 591.171 536.386 588.98 536.386C586.789 536.386 558.304 569.257 558.304 569.257C558.304 569.257 563.598 575.355 558.304 606.511C556.319 618.196 552.38 668.151 552.38 674.725C552.38 681.3 530.914 697.456 550.635 711.7C570.355 725.944 664.575 741.284 665.671 732.519C666.767 723.753 654.715 700.743 660.193 689.786C665.671 678.829 665.671 638.287 665.671 638.287L672.245 595.554L677.722 561.587C677.722 561.587 651.976 554.465 649.785 554.465C647.594 554.465 637.734 569.805 618.561 537.481Z" fill="#3F3D56"/>
<path d="M1008.66 1080.6H0V1084H1008.66V1080.6Z" fill="#3F3D56"/>
</g>
<defs>
<clipPath id="clip0">
<rect width="1013" height="1084" fill="white"/>
</clipPath>
</defs>
</svg>
