<svg width="328" height="328" viewBox="0 0 328 328" fill="none" xmlns="http://www.w3.org/2000/svg">
<path d="M310.949 124.397V76.9641C310.928 58.3137 295.813 43.1988 277.162 43.1772H268.266V37.8426C268.189 22.7061 255.896 10.4812 240.762 10.4812C225.628 10.4812 213.338 22.7061 213.256 37.8426V43.1772H113.887V37.8426C113.81 22.7061 101.518 10.4812 86.3837 10.4812C71.2495 10.4812 58.9597 22.7061 58.8778 37.8426V43.1772H49.9789C31.3309 43.1988 16.216 58.3137 16.1943 76.9641V284.194C16.216 302.845 31.3309 317.96 49.9789 317.981H277.162C295.813 317.96 310.928 302.845 310.949 284.194V129.274C311.484 127.691 311.484 125.979 310.949 124.397V124.397ZM240.762 25.7189C247.453 25.7286 252.874 31.1474 252.881 37.8426V54.0413C252.831 60.6956 247.417 66.0638 240.757 66.0638C234.101 66.0638 228.689 60.6956 228.636 54.0413V37.8426C228.643 31.1474 234.067 25.7261 240.762 25.7189ZM74.2576 37.8426C74.3106 31.1835 79.7222 25.8153 86.3789 25.8153C93.038 25.8153 98.4472 31.1835 98.5026 37.8426V54.0413C98.4472 60.6956 93.038 66.0638 86.3789 66.0638C79.7222 66.0638 74.3106 60.6956 74.2576 54.0413V37.8426ZM49.9789 58.5594H59.2535C61.4644 71.8198 72.9354 81.54 86.3789 81.54C99.8248 81.54 111.296 71.8198 113.507 58.5594H213.634C215.845 71.8198 227.319 81.54 240.762 81.54C254.206 81.54 265.679 71.8198 267.888 58.5594H277.162C287.323 58.5714 295.555 66.8032 295.567 76.9641V119.142H31.5766V76.9665C31.5862 66.8056 39.8228 58.5714 49.9789 58.5594V58.5594ZM277.162 302.599H49.9789C39.8228 302.587 31.5886 294.355 31.5766 284.194V134.524H295.567V284.194C295.555 294.355 287.323 302.587 277.162 302.599V302.599Z" fill="#F5F5F5"/>
<path d="M210.428 203.102L182.776 199.162L170.44 174.657C169.135 172.061 166.478 170.423 163.569 170.423C160.664 170.423 158.008 172.061 156.703 174.657L144.362 199.162L116.714 203.102C113.798 203.516 111.375 205.561 110.474 208.364C109.576 211.168 110.354 214.241 112.485 216.276L132.4 235.309L127.708 262.141C127.205 265.019 128.373 267.933 130.728 269.662C133.081 271.394 136.212 271.639 138.808 270.303L163.574 257.541L188.339 270.303C190.933 271.639 194.064 271.391 196.414 269.66C198.765 267.933 199.938 265.019 199.437 262.143L194.743 235.311L214.66 216.278C216.789 214.245 217.569 211.17 216.668 208.369C215.768 205.566 213.345 203.519 210.428 203.104V203.102ZM181.143 227.022C179.286 228.794 178.438 231.379 178.881 233.907L181.615 249.53L167.095 242.048C164.886 240.908 162.261 240.908 160.048 242.048L145.528 249.53L148.259 233.907C148.704 231.379 147.854 228.794 145.997 227.022L134.562 216.097L150.511 213.826C153.003 213.472 155.164 211.919 156.296 209.672L163.569 195.222L170.847 209.672C171.979 211.919 174.139 213.472 176.629 213.826L192.58 216.097L181.143 227.022Z" fill="#F5F5F5"/>
</svg>
