<svg id="Flat" height="512" viewBox="0 0 512 512" width="512" xmlns="http://www.w3.org/2000/svg"><path d="m200 72a40 40 0 0 1 40 40v136a0 0 0 0 1 0 0h-80a0 0 0 0 1 0 0v-136a40 40 0 0 1 40-40z" fill="#efa702"/><path d="m176 136 15.1248-10.0832a16 16 0 0 1 17.7504 0l15.1248 10.0832-15.1248 10.0832a16 16 0 0 1 -17.7504 0z" fill="#eedc9a"/><path d="m176 192 15.1248-10.0832a16 16 0 0 1 17.7504 0l15.1248 10.0832-15.1248 10.0832a16 16 0 0 1 -17.7504 0z" fill="#eedc9a"/><path d="m42.29 95.432h47.999v25.775h-47.999z" fill="#ad7d4d" transform="matrix(.884 -.468 .468 .884 -42.981 43.609)"/><path d="m182.58008 242.5-70.7002 37.42993-43.40991-82-7.50997-14.17993a11.99676 11.99676 0 0 1 4.99-16.21l.01-.01a11.99661 11.99661 0 0 0 4.99-16.21l-12.77007-24.12 28.28-14.98 12.77 24.11987a11.98849 11.98849 0 0 0 16.22 4.99024 11.88478 11.88478 0 0 1 5.6001-1.40015 12.00482 12.00482 0 0 1 10.60986 6.39014l7.51 14.17993z" fill="#8acce7"/><path d="m85.527 173.824h79.997v92.782h-79.997z" fill="#eedc9a" transform="matrix(.884 -.468 .468 .884 -88.449 84.324)"/><path d="m462.18994 225.16992-2.31006 4.03a69.04026 69.04026 0 0 1 -59.95996 34.80008h-31.91992l-4.49-20.19995-3.29-14.79a69.07473 69.07473 0 0 1 18.59009-63.82007 25.88694 25.88694 0 0 1 29.87988-4.8501l1 .5a25.89673 25.89673 0 0 1 14.31003 23.16012h13.28a25.895 25.895 0 0 1 18.30005 7.58008l2.43995 2.43992a25.89636 25.89636 0 0 1 4.16994 31.14992z" fill="#e44b4d"/><path d="m413.65723 205.65723-11.31446-11.31446 23.0293-23.02929a49.61405 49.61405 0 0 0 14.62793-35.31348h16a65.5138 65.5138 0 0 1 -19.31348 46.62793z" fill="#ad7d4d"/><path d="m424 216a32.03667 32.03667 0 0 1 -32-32h16a16.01833 16.01833 0 0 0 16 16z" fill="#d14547"/><path d="m373.14014 229.14014-2.31006 4.02978a77.59844 77.59844 0 0 1 -7.32008 10.63013l-3.29-14.79a68.98639 68.98639 0 0 1 4.54-43.54c.15991.15015.32007.3.48.46l2.42993 2.42993a33.96841 33.96841 0 0 1 5.47021 40.78016z" fill="#d14547"/><path d="m282.80578 165.19422a25.88851 25.88851 0 0 1 29.88364-4.84945l.99972.49986a25.88851 25.88851 0 0 1 14.31086 23.15537h13.27662a25.88851 25.88851 0 0 1 18.30595 7.58257l2.43543 2.43543a25.88852 25.88852 0 0 1 4.17159 31.15025l-2.30636 4.03613a69.058 69.058 0 0 1 -59.95914 34.79562h-31.92409l-7.77636-34.99363a69.058 69.058 0 0 1 18.58214-63.81215z" fill="#e44b4d"/><path d="m317.65723 205.65723-11.31446-11.31446 23.0293-23.02929a49.61405 49.61405 0 0 0 14.62793-35.31348h16a65.5138 65.5138 0 0 1 -19.31348 46.62793z" fill="#ad7d4d"/><path d="m328 216a32.03667 32.03667 0 0 1 -32-32h16a16.01833 16.01833 0 0 0 16 16z" fill="#d14547"/><path d="m272 40v200h-32v-200a16 16 0 1 1 32 0z" fill="#ad7d4d"/><path d="m272 208.33984v31.66016h-32v-31.66016a24.82619 24.82619 0 0 1 9.65991 6l6.34009 6.34009 6.34009-6.34009a24.82619 24.82619 0 0 1 9.65991-6z" fill="#805038"/><path d="m456 272v152c0 1.14014-.03 2.28-.09009 3.3999a63.60452 63.60452 0 0 1 -13.34985 35.8501 64.40319 64.40319 0 0 1 -11.31006 11.31006 63.60632 63.60632 0 0 1 -35.8501 13.34985c-1.1199.06009-2.25976.09009-3.3999.09009h-272a63.77322 63.77322 0 0 1 -34.57007-10.12012 64.782 64.782 0 0 1 -12.30981-10.30981 63.708 63.708 0 0 1 -17.04-40.34009c-.05012-1.07007-.08012-2.1499-.08012-3.22998v-152z" fill="#ad7d4d"/><path d="m456 316.68994-24.68994-24.68994 20-20h-22.62012l-8.68994 8.68994-8.68994-8.68994h-22.62012l20 20-28.68994 28.68994-28.68994-28.68994 20-20h-22.62012l-8.68994 8.68994-8.68994-8.68994h-22.62012l20 20-28.68994 28.68994-16.04-16.04-12.64994-12.64994 20-20h-22.62012l-8.68994 8.68994-8.68994-8.68994h-22.62012l20 20-28.68994 28.68994-28.68994-28.68994 20-20h-22.62012l-8.68994 8.68994-8.68994-8.68994h-22.62012l20 20-28.68994 28.68994-28.68994-28.68994 20-20h-22.62012l-8.68994 8.68994-8.68994-8.68994h-22.62012l20 20-28.68994 28.68994-4-4v30.62012l4-4 28.68994 28.68994-28.68994 28.68994-4-4v27.31006c0 1.08008.03 2.15991.08008 3.23l3.91992-3.91994 28.68994 28.68994-15.56982 15.57007a64.782 64.782 0 0 0 12.30981 10.30981l14.57007-14.56982 24.68994 24.68994h30.62012l24.68994-24.68994 24.68994 24.68994h30.62012l24.68994-24.68994 24.68994 24.68994h30.62012l24.68994-24.68994 24.68994 24.68994h27.31006c1.14014 0 2.28-.03 3.3999-.09009l24.6001-24.59985 11.25 11.25a64.40319 64.40319 0 0 0 11.31006-11.31006l-11.25-11.25 24.59985-24.6001c.06009-1.1199.09009-2.25976.09009-3.3999v-27.31006l-24.68994-24.68994 24.68994-24.68994zm-47.31006 55.31006-28.68994 28.68994-28.68994-28.68994 28.68994-28.68994zm-68.68994-68.68994 28.68994 28.68994-28.68994 28.68994-28.68994-28.68994zm-11.31006 68.68994-28.68994 28.68994-28.68994-28.68994 28.68994-28.68994zm-68.68994-68.68994 28.68994 28.68994-28.68994 28.68994-28.68994-28.68994zm-11.31006 68.68994-28.68994 28.68994-28.68994-28.68994 28.68994-28.68994zm-68.68994-68.68994 28.68994 28.68994-28.68994 28.68994-28.68994-28.68994zm-11.31006 68.68994-28.68994 28.68994-28.68994-28.68994 28.68994-28.68994zm-97.37988-40 28.68994-28.68994 28.68994 28.68994-28.68994 28.68994zm0 80 28.68994-28.68994 28.68994 28.68994-28.68994 28.68994zm68.68994 68.68994-28.68994-28.68994 28.68994-28.68994 28.68994 28.68994zm11.31006-68.68994 28.68994-28.68994 28.68994 28.68994-28.68994 28.68994zm68.68994 68.68994-28.68994-28.68994 28.68994-28.68994 28.68994 28.68994zm11.31006-68.68994 28.68994-28.68994 28.68994 28.68994-28.68994 28.68994zm68.68994 68.68994-28.68994-28.68994 28.68994-28.68994 28.68994 28.68994zm11.31006-68.68994 28.68994-28.68994 28.68994 28.68994-28.68994 28.68994zm68.68994 68.68994-28.68994-28.68994 28.68994-28.68994 28.68994 28.68994zm68.68994-68.68994-28.68994 28.68994-28.68994-28.68994 28.68994-28.68994zm-28.68994-51.31006-28.68994-28.68994 28.68994-28.68994 28.68994 28.68994z" fill="#966342"/><path d="m56 272h400v16h-400z" fill="#966342"/><path d="m108.69 272h22.62l-16 16h-30.62l-16-16h22.62l8.69 8.69z" fill="#805038"/><path d="m188.69 272h22.62l-16 16h-30.62l-16-16h22.62l8.69 8.69z" fill="#805038"/><path d="m268.69 272h22.62l-16 16h-30.62l-16-16h22.62l8.69 8.69z" fill="#805038"/><path d="m348.69 272h22.62l-16 16h-30.62l-16-16h22.62l8.69 8.69z" fill="#805038"/><path d="m451.31 272-16 16h-30.62l-16-16h22.62l8.69 8.69 8.69-8.69z" fill="#805038"/><path d="m480 256a15.97833 15.97833 0 0 1 -16 16h-416a16 16 0 1 1 0-32h416a15.99548 15.99548 0 0 1 16 16z" fill="#ad7d4d"/><path d="m304.97 280a24.97489 24.97489 0 0 1 -42.62988 17.65991l-6.34012-6.33984-6.34009 6.33984a24.969 24.969 0 0 1 -41.30981-25.65991h95.30981a24.88928 24.88928 0 0 1 1.31009 8z" fill="#966342"/><path d="m208.3501 272h2.96l-3.93994 3.93994a25.47622 25.47622 0 0 1 .97994-3.93994z" fill="#805038"/><path d="m271.31006 292 12.64994 12.6499a23.57745 23.57745 0 0 1 -3.96.3201 24.84221 24.84221 0 0 1 -17.65991-7.31006l-6.34009-6.33987-6.34009 6.33984a24.82955 24.82955 0 0 1 -13.60986 6.98023l12.63989-12.64014-20-20h22.62012l8.68994 8.68994 8.68994-8.68994h22.62012z" fill="#805038"/><path d="m214.34009 262.33984 6.33984-6.33984-6.33984-6.34009a24.82035 24.82035 0 0 1 -6-9.65991h95.30981a24.84136 24.84136 0 0 1 -5.99 9.65991l-6.33983 6.34009 6.33984 6.33984a24.823 24.823 0 0 1 6 9.66016h-95.30981a24.844 24.844 0 0 1 5.98999-9.66016z" fill="#805038"/><path d="m304.97 280a24.88928 24.88928 0 0 1 -1.31006 8h-95.30984a25.17028 25.17028 0 0 1 0-16h95.30981a24.88928 24.88928 0 0 1 1.31009 8z" fill="#805038"/><path d="m240 240-18.34 18.35-11.31 11.31-12.69 12.68-11.32 11.32-12.68 12.68-11.32 11.32-12.43 12.44-35.56 35.56-26.35 26.34v-152z" fill="#d3e1e9"/><path d="m144.01 276.68994h-.01l-12.67993-12.67994-11.31007 11.31007 12.67994 12.67993v.01zm0 0h-.01l-12.67993-12.67994-11.31007 11.31007 12.67994 12.67993v.01zm66.34009-7.03 11.30981-11.30981-18.34984-18.35013h-22.62012l-12.67994 12.68994h-.01l-12.68994-12.68994h-22.62012v.01l-12.67994 12.67994h-.01l-12.68994-12.68994h-19.31006v3.32007l20.67993 20.67993h.01v.01l-12.43993 12.42994-8.25-8.25v39.12012l8.25-8.25 12.68994 12.68994-12.93994 12.93994-8-8v38.62012l8-8 18.3501 18.34985 11.30981-11.30981-18.34985-18.3501 12.93994-12.93994 18.3501 18.34985 11.30981-11.30981-18.34985-18.3501 12.43994-12.42993 18.34009 18.33984 11.31982-11.32007-18.33984-18.33984 12.67993-12.67993 18.34009 18.33984 11.31982-11.32007-18.33984-18.33984 12.67993-12.68994zm-90.1001 30.78-12.68993-12.68994 12.43994-12.42993h.01l12.67994 12.67993v.01zm23.76-23.75h-.00999l-12.68994-12.68994h.01l12.67994-12.67993h.01l12.67994 12.67993v.01zm0 0h-.00999l-12.67993-12.67994-11.31007 11.31007 12.67994 12.67993v.01zm0 0h-.00999l-12.67993-12.67994-11.31007 11.31007 12.67994 12.67993v.01z" fill="#e7999b"/><g fill="#d14547"><path d="m107.31 336-11.31 11.31-8-8v-6.62l8-8z"/><path d="m112.253 303.753h15.995v15.995h-15.995z" transform="matrix(.707 -.707 .707 .707 -185.22 176.339)"/><path d="m136.001 280.008h16.009v15.995h-16.009z" transform="matrix(.707 -.707 .707 .707 -161.472 186.182)"/><path d="m160.001 256.008h16.009v15.995h-16.009z" transform="matrix(.707 -.707 .707 .707 -137.472 196.123)"/><path d="m203.31 240-11.31 11.31-11.31-11.31z"/><path d="m107.57 287.76-11.31 11.31-8.26-8.26v-6.12l8.25-8.25z"/><path d="m111.996 255.996h16.009v16.009h-16.009z" transform="matrix(.707 -.707 .707 .707 -151.529 162.177)"/><path d="m155.32 240v.01l-11.31 11.31h-.01l-11.32-11.32z"/></g><path d="m292 292a16.972 16.972 0 0 1 -24 0l-6.34009-6.34009-35.31982-35.32007-6.34009-6.33984a16.97056 16.97056 0 0 1 24-24l6.34009 6.33984 35.31982 35.32007 6.34009 6.34009a16.96611 16.96611 0 0 1 0 24z" fill="#d29979"/><path d="m239.029 231.025h33.941v49.95h-33.941z" fill="#ad7d4d" transform="matrix(.707 -.707 .707 .707 -106.039 256)"/><path d="m222.05886 239.02944h67.88229a16.97055 16.97055 0 0 1 16.97054 16.97056 16.97055 16.97055 0 0 1 -16.97055 16.97055h-67.88228a16.97054 16.97054 0 0 1 -16.97055-16.97055 16.97055 16.97055 0 0 1 16.97055-16.97056z" fill="#d29979" transform="matrix(.707 -.707 .707 .707 -106.039 256)"/><path d="m144 488 80-144h64l-80 144z" fill="#f4ceaf"/><path d="m170.74805 493.08691a8.00146 8.00146 0 0 1 -6.98633-11.88671c5.26562-9.47559 11.70117-12.46 16.87305-14.85743 4.14355-1.92089 6.88183-3.18945 9.61621-8.1123 2.73437-4.92188 2.36523-7.917 1.80761-12.4502-.69629-5.6582-1.56347-12.69922 3.70215-22.17675 5.26465-9.47657 11.70117-12.46 16.87305-14.85743 4.14355-1.92089 6.88086-3.19043 9.61523-8.1123 2.73536-4.92383 2.36719-7.91895 1.8086-12.45313-.69629-5.6582-1.5625-12.69921 3.70312-22.17675 5.26563-9.47852 11.70215-12.46192 16.874-14.86036 4.14355-1.92187 6.88183-3.1914 9.61718-8.11425a7.99973 7.99973 0 0 1 13.98633 7.76953c-5.26562 9.47851-11.70215 12.46289-16.874 14.86035-4.14356 1.92187-6.88184 3.19141-9.61719 8.11426-2.73535 4.92383-2.36719 7.91894-1.80859 12.45312.69629 5.65821 1.5625 12.69922-3.70313 22.17676-5.26465 9.47754-11.70117 12.46094-16.87305 14.8584-4.14355 1.9209-6.88085 3.19043-9.61523 8.1123-2.73535 4.92286-2.36621 7.918-1.80859 12.45215.69629 5.65723 1.56347 12.69824-3.70118 22.17481-5.26562 9.47656-11.70117 12.46093-16.873 14.8584-4.14356 1.92089-6.88184 3.18945-9.61621 8.1123a7.99844 7.99844 0 0 1 -7.00003 4.11523z" fill="#4ba477"/><path d="m368 488-80-144-80 144z" fill="#f2c194"/><path d="m264 488 80-144h64l-80 144z" fill="#f4ceaf"/><path d="m290.74805 493.08691a8.00146 8.00146 0 0 1 -6.98633-11.88671c5.26562-9.47559 11.70117-12.46 16.873-14.85743 4.14355-1.92089 6.88183-3.18945 9.61621-8.1123 2.73437-4.92188 2.36523-7.917 1.80761-12.4502-.69629-5.6582-1.56347-12.69922 3.70215-22.17675 5.26465-9.47657 11.70117-12.46 16.873-14.85743 4.14355-1.92089 6.88086-3.19043 9.61523-8.1123 2.73536-4.92383 2.36719-7.91895 1.8086-12.45313-.69629-5.6582-1.5625-12.69921 3.70312-22.17675 5.26563-9.47852 11.70215-12.46192 16.874-14.86036 4.14355-1.92187 6.88183-3.1914 9.61718-8.11425a7.99973 7.99973 0 0 1 13.98633 7.76953c-5.26562 9.47851-11.70215 12.46289-16.874 14.86035-4.14356 1.92187-6.88184 3.19141-9.61719 8.11426-2.73535 4.92383-2.36719 7.91894-1.80859 12.45312.69629 5.65821 1.5625 12.69922-3.70313 22.17676-5.26465 9.47754-11.70117 12.46094-16.873 14.8584-4.14355 1.9209-6.88085 3.19043-9.61523 8.1123-2.73535 4.92286-2.36621 7.918-1.80859 12.45215.69629 5.65723 1.56347 12.69824-3.70118 22.17481-5.26562 9.47656-11.70117 12.46093-16.873 14.8584-4.14356 1.92089-6.88184 3.18945-9.61621 8.1123a7.99844 7.99844 0 0 1 -6.99998 4.11523z" fill="#4ba477"/><path d="m488 488-80-144-80 144z" fill="#f2c194"/></svg>