<svg width="200" height="264" viewBox="0 0 200 264" fill="none" xmlns="http://www.w3.org/2000/svg">
<g opacity="0.3">
<path d="M100 200C155.228 200 200 155.228 200 100C200 44.7715 155.228 0 100 0C44.7715 0 0 44.7715 0 100C0 155.228 44.7715 200 100 200Z" fill="#F1F3F6"/>
<g filter="url(#filter0_d)">
<path d="M59.9572 189.321L48.2158 166.727C47.0096 164.406 44.5662 162.995 41.9529 163.111L16.5158 164.239C13.8642 164.357 12.1291 161.5 13.456 159.201L53.4092 90L105.803 120.25L65.8502 189.451C64.5232 191.75 61.181 191.676 59.9572 189.321Z" fill="#FFF442"/>
</g>
<path d="M31.9006 127.255C43.8831 143.931 61.5612 156.235 82.0885 161.327L105.804 120.251L53.4096 90.001L31.9006 127.255Z" fill="#FFE400"/>
<path d="M41.9531 163.111C44.5664 162.995 47.0098 164.406 48.216 166.727L51.7535 173.535L88.3387 110.167L70.8738 100.084L34.2891 163.452L41.9531 163.111Z" fill="#FFE400"/>
<path d="M62.9671 154.113L88.339 110.167L70.8741 100.084L46.2007 142.82C51.3136 147.196 56.9378 150.991 62.9671 154.113Z" fill="#FEBB00"/>
<g filter="url(#filter1_d)">
<path d="M140.847 189.321L152.588 166.727C153.794 164.406 156.238 162.995 158.851 163.111L184.288 164.239C186.94 164.357 188.675 161.5 187.348 159.201L147.395 90L95.0005 120.25L134.954 189.451C136.281 191.75 139.623 191.676 140.847 189.321Z" fill="#FFF442"/>
</g>
<path d="M95 120.25L118.715 161.326C139.243 156.235 156.921 143.931 168.903 127.255L147.394 90.0005L95 120.25Z" fill="#FFE400"/>
<path d="M158.851 163.111C156.237 162.995 153.794 164.406 152.588 166.727L149.05 173.535L112.465 110.167L129.93 100.084L166.515 163.452L158.851 163.111Z" fill="#FFE400"/>
<path d="M154.603 142.82L129.93 100.084L112.465 110.167L137.837 154.113C143.866 150.991 149.49 147.196 154.603 142.82Z" fill="#FEBB00"/>
<g filter="url(#filter2_d)">
<path d="M178.125 84.8992C178.125 89.4367 174.69 93.618 173.933 97.9387C173.155 102.382 174.942 107.482 173.433 111.627C171.897 115.845 167.236 118.599 165.017 122.434C162.778 126.305 162.708 131.714 159.848 135.119C156.981 138.533 151.662 139.535 148.248 142.402C144.844 145.262 142.939 150.329 139.068 152.569C135.234 154.787 129.897 153.918 125.679 155.454C121.534 156.962 118.011 161.072 113.568 161.85C109.247 162.607 104.537 159.961 99.9996 159.961C95.4621 159.961 90.7523 162.607 86.4316 161.85C81.9883 161.072 78.4648 156.962 74.3203 155.454C70.102 153.918 64.7656 154.788 60.9309 152.568C57.0598 150.329 55.1555 145.261 51.7512 142.402C48.3371 139.534 43.0188 138.532 40.1508 135.118C37.2914 131.713 37.2215 126.304 34.982 122.433C32.7633 118.598 28.102 115.844 26.5664 111.626C25.0574 107.482 26.8449 102.382 26.0664 97.9383C25.3102 93.618 21.875 89.4367 21.875 84.8992C21.875 80.3617 25.3102 76.1805 26.0672 71.8598C26.8453 67.4164 25.0582 62.3164 26.5672 58.1715C28.1027 53.9531 32.7641 51.1992 34.9828 47.3641C37.2223 43.493 37.2922 38.084 40.1516 34.6797C43.0191 31.2656 48.3379 30.2637 51.752 27.3961C55.1562 24.5367 57.0605 19.4691 60.9316 17.2297C64.7664 15.0109 70.1027 15.8805 74.3211 14.3449C78.4656 12.8359 81.9891 8.72655 86.4324 7.94843C90.7531 7.19179 95.4629 9.83788 100 9.83788C104.538 9.83788 109.248 7.19179 113.568 7.94843C118.012 8.72655 121.535 12.8363 125.68 14.3449C129.898 15.8805 135.234 15.0109 139.069 17.2301C142.94 19.4695 144.845 24.5371 148.249 27.3969C151.663 30.2644 156.981 31.2668 159.849 34.6808C162.709 38.0851 162.779 43.4941 165.018 47.3652C167.237 51.2 171.898 53.9543 173.434 58.1723C174.943 62.3168 173.155 67.4168 173.934 71.8602C174.69 76.1809 178.125 80.3617 178.125 84.8992Z" fill="#FFE400"/>
</g>
<path d="M100 150.004C135.956 150.004 165.104 120.855 165.104 84.8992C165.104 48.9431 135.956 19.7949 100 19.7949C64.0439 19.7949 34.8957 48.9431 34.8957 84.8992C34.8957 120.855 64.0439 150.004 100 150.004Z" fill="#60B550"/>
<path d="M100 143.493C132.36 143.493 158.594 117.26 158.594 84.8992C158.594 52.5387 132.36 26.3054 100 26.3054C67.6396 26.3054 41.4062 52.5387 41.4062 84.8992C41.4062 117.26 67.6396 143.493 100 143.493Z" fill="#AACCAA"/>
<path d="M99.9572 137.798C129.269 137.798 153.031 114.036 153.031 84.7239C153.031 55.4118 129.269 31.6497 99.9572 31.6497C70.6451 31.6497 46.883 55.4118 46.883 84.7239C46.883 114.036 70.6451 137.798 99.9572 137.798Z" fill="#3997EE"/>
<path d="M53.994 111.26C66.1819 132.37 90.6819 141.937 113.187 136.132C94.5569 132.57 77.5236 121.236 67.2955 103.52C57.1084 85.875 55.7807 65.5504 61.9252 47.6868C45.7498 64.2797 41.8369 90.2032 53.994 111.26Z" fill="#1F7FE8"/>
<path d="M93.4202 32.0398C95.5815 36.3484 95.5928 36.2261 95.4831 36.6039C93.4846 43.4929 93.5327 43.1031 93.6541 43.4273C95.6061 48.6355 95.4647 48.4672 95.8147 48.648L100.917 51.2871C101.407 51.5406 101.991 51.1851 101.991 50.6332V44.4379C101.991 44.1 102.221 43.8058 102.549 43.7238C106.706 42.6847 106.397 42.7672 106.483 42.7285C114.819 39.0023 114.847 39.1886 114.847 38.5097C114.847 38.423 114.847 36.1652 114.847 33.7812C107.952 31.7672 100.657 31.1449 93.4202 32.0398Z" fill="#32CC65"/>
<path d="M89.8698 101.753C89.1756 101.589 86.426 98.2303 85.8006 97.8405C80.9331 94.8225 83.1194 95.7381 77.2835 94.0561C77.0338 93.9831 77.1917 94.0288 72.6807 91.3889C72.2088 91.1116 72.2862 91.2835 66.6545 91.2307C66.4522 91.2307 66.2557 91.2874 66.0815 91.3881L59.5229 87.9729L58.1038 84.6971C57.3155 82.8772 55.6506 83.1089 48.9686 80.3061C49.0979 78.3694 48.6131 77.3206 49.5475 76.7889C53.7823 74.521 53.9928 73.926 54.8475 74.2296C58.221 75.2796 56.1471 75.0405 58.9878 75.0756C60.7756 75.0756 60.0909 71.7921 60.9616 70.9307L64.7983 67.1362C65.2292 66.7104 67.5585 61.2975 67.971 60.9108L70.5713 58.4729C71.2795 57.8089 71.1948 55.6311 72.1737 55.1827C75.8991 53.5358 75.928 53.3178 76.4995 53.3932C84.2846 54.1854 80.8018 54.7467 85.6913 52.9756C86.4835 52.6768 86.6885 51.6518 86.0725 51.071C83.5815 48.7139 84.8803 50.2128 80.6045 44.6729C80.1897 44.1366 79.7092 44.2714 77.9967 43.8292C76.4772 43.4967 77.1221 40.2292 75.2604 40.4694C74.312 40.6749 73.4397 40.4499 73.0159 41.2444L70.3229 46.2936C68.8299 49.0424 68.8983 49.7284 68.0663 49.9573C67.0217 50.1217 65.7585 51.0077 65.0565 49.9854C63.5171 47.7659 63.1807 47.1674 62.8217 46.7874C52.3233 57.0499 46.6932 71.1378 46.8831 85.4741C46.9717 85.5452 47.0569 85.5874 47.1713 85.6311C47.1713 85.6311 47.1721 85.6323 47.1725 85.6327L53.4807 87.9702L54.8276 91.0788C55.4983 92.6272 56.4745 92.428 63.7905 96.4452C64.2088 97.3131 64.6717 97.676 64.5057 98.3534C63.1651 104.109 63.3518 100.916 64.5561 106.332C64.6573 106.72 64.4776 106.32 69.0635 112.484C69.3206 112.827 69.1608 112.613 74.5561 115.678C75.2038 116.041 74.944 116.198 77.5194 122.725C77.6042 122.949 77.2768 122.392 83.928 132.457C84.2319 132.916 84.5463 132.877 86.3729 133.756C87.417 134.228 88.4307 133.044 87.803 132.085C87.1358 131.066 88.2877 130.371 89.876 127.437C90.028 127.189 89.9342 127.335 91.4698 121.887C91.7436 120.905 92.6124 121.119 96.3561 119.652C97.0788 119.398 97.0393 118.824 98.4682 116.269C98.8374 115.56 98.3022 112.873 98.7717 112.121L101.051 108.469C101.595 107.597 100.776 106.955 99.8026 104.548C99.387 103.651 99.0885 104.086 89.8698 101.753Z" fill="#32CC65"/>
<path d="M90.0249 127.069C80.9195 121.393 73.0359 113.461 67.296 103.52C66.2859 101.77 65.3663 99.9922 64.5284 98.1946C64.523 98.2465 64.5198 98.2977 64.5062 98.3536C63.1655 104.109 63.3523 100.916 64.5566 106.332C64.6577 106.72 64.478 106.32 69.064 112.484C69.321 112.827 69.1612 112.613 74.5566 115.678C75.2042 116.041 74.9445 116.198 77.5198 122.725C77.6046 122.949 77.2773 122.392 83.9284 132.457C84.2323 132.916 84.5468 132.877 86.3737 133.756C87.4179 134.228 88.4316 133.044 87.8038 132.085C87.1366 131.066 88.2886 130.372 89.8773 127.437C89.9292 127.351 89.9527 127.311 90.0249 127.069Z" fill="#23B658"/>
<path d="M60.953 88.7177L59.5237 87.9731L58.1042 84.6974C57.3159 82.8774 55.6514 83.1091 48.969 80.3063C49.0983 78.3696 48.6136 77.3208 49.5479 76.7892C53.7827 74.5212 53.9932 73.9263 54.8479 74.2298C57.9737 75.2028 56.4253 75.0692 58.4409 75.072C57.7073 65.7563 58.9194 56.4274 61.9257 47.688C52.0878 57.7657 46.6979 71.4431 46.8839 85.4743C46.9725 85.5454 47.0577 85.5876 47.1721 85.6313C47.1721 85.6313 47.1729 85.6325 47.1733 85.6329L53.4815 87.9704L54.8284 91.079C55.4975 92.6231 56.4714 92.4306 63.7304 96.4122C62.6382 93.8813 61.7147 91.3118 60.953 88.7177Z" fill="#23B658"/>
<path d="M145.921 58.186C141.792 51.0348 136.25 45.2083 129.851 40.8547C129.951 41.2946 129.921 41.7661 129.723 42.2071C129.336 42.884 129.212 44.052 127.983 44.5063C121.253 47.0981 125.496 44.7676 118.99 50.5922C118.403 51.1586 118.187 52.0079 118.432 52.7848C118.817 54.009 118.147 55.3055 116.889 55.561L114.73 55.9993C112.533 56.445 113.074 58.9321 113.007 59.2145C113.007 60.4028 113.97 61.3657 115.158 61.3657C117.105 61.3657 118.761 61.3657 120.702 61.3657C122.445 61.3657 122.75 59.7297 124.915 57.1372C125.637 56.1622 126.468 56.3528 129.703 55.3348C131.081 54.9524 131.801 55.959 134.219 57.1739C135.279 57.777 136.628 57.3786 137.191 56.2965L137.714 55.2918C138.822 53.1606 142.142 54.2731 142.142 56.4583C142.064 59.5903 142.335 60.0735 141.845 60.9055C141.488 61.7782 139.876 63.2059 141.017 64.8157L142.513 66.9274C143.773 68.7059 141.797 70.1399 141.644 70.4243C141.12 71.0235 140.307 71.284 139.532 71.1016C134.642 69.9004 134.487 70.0368 133.887 69.6083C130.514 67.2536 130.465 67.0317 129.784 66.8614C124.897 65.7454 124.439 65.2622 123.392 65.636C116.362 68.236 116.175 68.004 115.536 68.7227C113.604 70.902 112.326 72.3368 111.472 73.2954L104.135 80.2477V85.6497L108.173 91.018C113.028 94.2598 113.151 94.7446 114.254 94.7446C118.178 94.7446 121.421 94.7446 125.058 94.7446C125.938 94.7446 126.729 95.2801 127.055 96.0969C127.684 97.8286 128.099 98.2758 127.989 99.1544C126.928 107.169 128.06 102.897 124.296 110.72C120.292 118.574 121.107 116.649 120.305 119.33C119.746 121.158 121.672 122.752 123.364 121.862C125.298 120.766 122.41 123.042 134.52 110.822C134.767 110.567 140.413 102.868 140.66 102.587C144.253 98.5383 142.178 100.382 149.038 95.0633C150.042 94.2848 150.764 93.193 151.081 91.9622C152.024 88.2989 152.626 84.5868 152.903 80.8696C152.343 73.1184 150.067 65.3688 145.921 58.186Z" fill="#32CC65"/>
<rect width="200" height="64" transform="translate(0 200)" fill="#F1F3F6"/>
<path d="M76.4574 232.004H81.7854V242.228C80.4174 243.26 78.8334 244.052 77.0334 244.604C75.2334 245.156 73.4214 245.432 71.5974 245.432C68.9814 245.432 66.6294 244.88 64.5414 243.776C62.4534 242.648 60.8094 241.1 59.6094 239.132C58.4334 237.14 57.8454 234.896 57.8454 232.4C57.8454 229.904 58.4334 227.672 59.6094 225.704C60.8094 223.712 62.4654 222.164 64.5774 221.06C66.6894 219.932 69.0654 219.368 71.7054 219.368C73.9134 219.368 75.9174 219.74 77.7174 220.484C79.5174 221.228 81.0294 222.308 82.2534 223.724L78.5094 227.18C76.7094 225.284 74.5374 224.336 71.9934 224.336C70.3854 224.336 68.9574 224.672 67.7094 225.344C66.4614 226.016 65.4894 226.964 64.7934 228.188C64.0974 229.412 63.7494 230.816 63.7494 232.4C63.7494 233.96 64.0974 235.352 64.7934 236.576C65.4894 237.8 66.4494 238.76 67.6734 239.456C68.9214 240.128 70.3374 240.464 71.9214 240.464C73.6014 240.464 75.1134 240.104 76.4574 239.384V232.004ZM96.0228 245.288C93.9828 245.288 92.1468 244.868 90.5148 244.028C88.9068 243.164 87.6468 241.976 86.7348 240.464C85.8228 238.952 85.3668 237.236 85.3668 235.316C85.3668 233.396 85.8228 231.68 86.7348 230.168C87.6468 228.656 88.9068 227.48 90.5148 226.64C92.1468 225.776 93.9828 225.344 96.0228 225.344C98.0628 225.344 99.8868 225.776 101.495 226.64C103.103 227.48 104.363 228.656 105.275 230.168C106.187 231.68 106.643 233.396 106.643 235.316C106.643 237.236 106.187 238.952 105.275 240.464C104.363 241.976 103.103 243.164 101.495 244.028C99.8868 244.868 98.0628 245.288 96.0228 245.288ZM96.0228 240.68C97.4628 240.68 98.6388 240.2 99.5508 239.24C100.487 238.256 100.955 236.948 100.955 235.316C100.955 233.684 100.487 232.388 99.5508 231.428C98.6388 230.444 97.4628 229.952 96.0228 229.952C94.5828 229.952 93.3948 230.444 92.4588 231.428C91.5228 232.388 91.0548 233.684 91.0548 235.316C91.0548 236.948 91.5228 238.256 92.4588 239.24C93.3948 240.2 94.5828 240.68 96.0228 240.68ZM110.397 218.288H116.013V245H110.397V218.288ZM140.953 218.288V245H135.589V242.768C134.197 244.448 132.181 245.288 129.541 245.288C127.717 245.288 126.061 244.88 124.573 244.064C123.109 243.248 121.957 242.084 121.117 240.572C120.277 239.06 119.857 237.308 119.857 235.316C119.857 233.324 120.277 231.572 121.117 230.06C121.957 228.548 123.109 227.384 124.573 226.568C126.061 225.752 127.717 225.344 129.541 225.344C132.013 225.344 133.945 226.124 135.337 227.684V218.288H140.953ZM130.513 240.68C131.929 240.68 133.105 240.2 134.041 239.24C134.977 238.256 135.445 236.948 135.445 235.316C135.445 233.684 134.977 232.388 134.041 231.428C133.105 230.444 131.929 229.952 130.513 229.952C129.073 229.952 127.885 230.444 126.949 231.428C126.013 232.388 125.545 233.684 125.545 235.316C125.545 236.948 126.013 238.256 126.949 239.24C127.885 240.2 129.073 240.68 130.513 240.68Z" fill="#1D295A"/>
</g>
<defs>
<filter id="filter0_d" x="9" y="90" width="100.803" height="109.132" filterUnits="userSpaceOnUse" color-interpolation-filters="sRGB">
<feFlood flood-opacity="0" result="BackgroundImageFix"/>
<feColorMatrix in="SourceAlpha" type="matrix" values="0 0 0 0 0 0 0 0 0 0 0 0 0 0 0 0 0 0 127 0"/>
<feOffset dy="4"/>
<feGaussianBlur stdDeviation="2"/>
<feColorMatrix type="matrix" values="0 0 0 0 0 0 0 0 0 0 0 0 0 0 0 0 0 0 0.25 0"/>
<feBlend mode="normal" in2="BackgroundImageFix" result="effect1_dropShadow"/>
<feBlend mode="normal" in="SourceGraphic" in2="effect1_dropShadow" result="shape"/>
</filter>
<filter id="filter1_d" x="91.0005" y="90" width="100.803" height="109.132" filterUnits="userSpaceOnUse" color-interpolation-filters="sRGB">
<feFlood flood-opacity="0" result="BackgroundImageFix"/>
<feColorMatrix in="SourceAlpha" type="matrix" values="0 0 0 0 0 0 0 0 0 0 0 0 0 0 0 0 0 0 127 0"/>
<feOffset dy="4"/>
<feGaussianBlur stdDeviation="2"/>
<feColorMatrix type="matrix" values="0 0 0 0 0 0 0 0 0 0 0 0 0 0 0 0 0 0 0.25 0"/>
<feBlend mode="normal" in2="BackgroundImageFix" result="effect1_dropShadow"/>
<feBlend mode="normal" in="SourceGraphic" in2="effect1_dropShadow" result="shape"/>
</filter>
<filter id="filter2_d" x="17.875" y="7.81238" width="164.25" height="162.174" filterUnits="userSpaceOnUse" color-interpolation-filters="sRGB">
<feFlood flood-opacity="0" result="BackgroundImageFix"/>
<feColorMatrix in="SourceAlpha" type="matrix" values="0 0 0 0 0 0 0 0 0 0 0 0 0 0 0 0 0 0 127 0"/>
<feOffset dy="4"/>
<feGaussianBlur stdDeviation="2"/>
<feColorMatrix type="matrix" values="0 0 0 0 0 0 0 0 0 0 0 0 0 0 0 0 0 0 0.25 0"/>
<feBlend mode="normal" in2="BackgroundImageFix" result="effect1_dropShadow"/>
<feBlend mode="normal" in="SourceGraphic" in2="effect1_dropShadow" result="shape"/>
</filter>
</defs>
</svg>
