<svg width="200" height="200" viewBox="0 0 200 200" fill="none" xmlns="http://www.w3.org/2000/svg">
<path d="M100 200C155.228 200 200 155.228 200 100C200 44.7715 155.228 0 100 0C44.7715 0 0 44.7715 0 100C0 155.228 44.7715 200 100 200Z" fill="#AACCAA"/>
<g filter="url(#filter0_d)">
<path d="M59.9572 189.321L48.2158 166.727C47.0096 164.406 44.5662 162.995 41.9529 163.111L16.5158 164.239C13.8642 164.357 12.1291 161.5 13.456 159.201L53.4092 90L105.803 120.25L65.8502 189.451C64.5232 191.75 61.181 191.676 59.9572 189.321Z" fill="#FFF442"/>
</g>
<path d="M31.9006 127.255C43.8831 143.931 61.5612 156.235 82.0885 161.327L105.804 120.251L53.4096 90.0009L31.9006 127.255Z" fill="#FFE400"/>
<path d="M41.9531 163.111C44.5664 162.995 47.0098 164.406 48.216 166.727L51.7535 173.535L88.3387 110.167L70.8738 100.084L34.2891 163.452L41.9531 163.111Z" fill="#FFE400"/>
<path d="M62.9671 154.113L88.339 110.167L70.8741 100.084L46.2007 142.82C51.3136 147.196 56.9378 150.991 62.9671 154.113Z" fill="#FEBB00"/>
<g filter="url(#filter1_d)">
<path d="M140.847 189.321L152.588 166.727C153.794 164.406 156.238 162.995 158.851 163.111L184.288 164.239C186.94 164.357 188.675 161.5 187.348 159.201L147.395 90L95.0005 120.25L134.954 189.451C136.281 191.75 139.623 191.676 140.847 189.321V189.321Z" fill="#FFF442"/>
</g>
<path d="M95 120.25L118.715 161.326C139.243 156.235 156.921 143.93 168.903 127.255L147.394 90.0004L95 120.25Z" fill="#FFE400"/>
<path d="M158.851 163.111C156.237 162.995 153.794 164.406 152.588 166.727L149.05 173.535L112.465 110.167L129.93 100.084L166.515 163.452L158.851 163.111Z" fill="#FFE400"/>
<path d="M154.603 142.82L129.93 100.084L112.465 110.167L137.837 154.113C143.866 150.991 149.49 147.196 154.603 142.82V142.82Z" fill="#FEBB00"/>
<g filter="url(#filter2_d)">
<path d="M178.125 84.8992C178.125 89.4367 174.69 93.618 173.933 97.9387C173.155 102.382 174.942 107.482 173.433 111.627C171.897 115.845 167.236 118.599 165.017 122.434C162.778 126.305 162.708 131.714 159.848 135.119C156.981 138.533 151.662 139.535 148.248 142.402C144.844 145.262 142.939 150.329 139.068 152.569C135.234 154.787 129.897 153.918 125.679 155.454C121.534 156.962 118.011 161.072 113.568 161.85C109.247 162.607 104.537 159.961 99.9996 159.961C95.4621 159.961 90.7523 162.607 86.4316 161.85C81.9883 161.072 78.4648 156.962 74.3203 155.454C70.102 153.918 64.7656 154.788 60.9309 152.568C57.0598 150.329 55.1555 145.261 51.7512 142.402C48.3371 139.534 43.0188 138.532 40.1508 135.118C37.2914 131.713 37.2215 126.304 34.982 122.433C32.7633 118.598 28.102 115.844 26.5664 111.626C25.0574 107.482 26.8449 102.382 26.0664 97.9383C25.3102 93.618 21.875 89.4367 21.875 84.8992C21.875 80.3617 25.3102 76.1805 26.0672 71.8598C26.8453 67.4164 25.0582 62.3164 26.5672 58.1715C28.1027 53.9531 32.7641 51.1992 34.9828 47.3641C37.2223 43.493 37.2922 38.084 40.1516 34.6797C43.0191 31.2656 48.3379 30.2637 51.752 27.3961C55.1563 24.5367 57.0605 19.4691 60.9316 17.2297C64.7664 15.0109 70.1027 15.8805 74.3211 14.3449C78.4656 12.8359 81.9891 8.72655 86.4324 7.94843C90.7531 7.19179 95.4629 9.83788 100 9.83788C104.538 9.83788 109.248 7.19179 113.568 7.94843C118.012 8.72655 121.535 12.8363 125.68 14.3449C129.898 15.8805 135.234 15.0109 139.069 17.2301C142.94 19.4695 144.845 24.5371 148.249 27.3969C151.663 30.2644 156.981 31.2668 159.849 34.6808C162.709 38.0851 162.779 43.4941 165.018 47.3652C167.237 51.2 171.898 53.9543 173.434 58.1723C174.943 62.3168 173.155 67.4168 173.934 71.8601C174.69 76.1809 178.125 80.3617 178.125 84.8992Z" fill="#FFE400"/>
</g>
<path d="M100 150.004C135.956 150.004 165.104 120.855 165.104 84.8992C165.104 48.9431 135.956 19.7949 100 19.7949C64.0439 19.7949 34.8958 48.9431 34.8958 84.8992C34.8958 120.855 64.0439 150.004 100 150.004Z" fill="#60B550"/>
<path d="M100 143.493C132.36 143.493 158.594 117.26 158.594 84.8992C158.594 52.5387 132.36 26.3054 100 26.3054C67.6396 26.3054 41.4062 52.5387 41.4062 84.8992C41.4062 117.26 67.6396 143.493 100 143.493Z" fill="#AACCAA"/>
<path d="M99.9573 137.798C129.269 137.798 153.031 114.036 153.031 84.7238C153.031 55.4117 129.269 31.6495 99.9573 31.6495C70.6452 31.6495 46.8831 55.4117 46.8831 84.7238C46.8831 114.036 70.6452 137.798 99.9573 137.798Z" fill="#3997EE"/>
<path d="M53.994 111.26C66.1819 132.37 90.6819 141.937 113.187 136.132C94.5569 132.57 77.5237 121.236 67.2955 103.52C57.1084 85.875 55.7807 65.5504 61.9252 47.6868C45.7498 64.2797 41.8369 90.2032 53.994 111.26Z" fill="#1F7FE8"/>
<path d="M93.4202 32.0398C95.5815 36.3484 95.5928 36.2261 95.4831 36.6039C93.4846 43.4929 93.5327 43.1031 93.6541 43.4273C95.6061 48.6355 95.4647 48.4672 95.8147 48.648L100.917 51.2871C101.407 51.5406 101.991 51.1851 101.991 50.6332V44.4379C101.991 44.1 102.221 43.8058 102.549 43.7238C106.706 42.6847 106.397 42.7672 106.483 42.7285C114.819 39.0023 114.847 39.1886 114.847 38.5097C114.847 38.423 114.847 36.1652 114.847 33.7812C107.952 31.7672 100.657 31.1449 93.4202 32.0398Z" fill="#32CC65"/>
<path d="M89.8698 101.753C89.1756 101.589 86.426 98.2305 85.8006 97.8406C80.9331 94.8226 83.1194 95.7383 77.2835 94.0562C77.0338 93.9832 77.1917 94.0289 72.6807 91.389C72.2088 91.1117 72.2862 91.2836 66.6545 91.2308C66.4522 91.2308 66.2557 91.2875 66.0815 91.3883L59.5229 87.973L58.1038 84.6973C57.3155 82.8773 55.6506 83.109 48.9686 80.3062C49.0979 78.3695 48.6131 77.3207 49.5475 76.7891C53.7823 74.5211 53.9928 73.9262 54.8475 74.2297C58.221 75.2797 56.1471 75.0406 58.9878 75.0758C60.7756 75.0758 60.0909 71.7922 60.9616 70.9308L64.7983 67.1363C65.2292 66.7105 67.5585 61.2976 67.971 60.9109L70.5713 58.473C71.2795 57.809 71.1948 55.6312 72.1737 55.1828C75.8991 53.5359 75.928 53.318 76.4995 53.3933C84.2846 54.1855 80.8018 54.7469 85.6913 52.9758C86.4835 52.6769 86.6885 51.6519 86.0725 51.0711C83.5815 48.7141 84.8803 50.2129 80.6045 44.673C80.1897 44.1367 79.7092 44.2715 77.9967 43.8293C76.4772 43.4969 77.1221 40.2293 75.2604 40.4695C74.312 40.675 73.4397 40.45 73.0159 41.2445L70.3229 46.2937C68.8299 49.0426 68.8983 49.7285 68.0663 49.9574C67.0217 50.1219 65.7585 51.0078 65.0565 49.9855C63.5171 47.766 63.1807 47.1676 62.8217 46.7875C52.3233 57.05 46.6932 71.1379 46.8831 85.4742C46.9717 85.5453 47.0569 85.5875 47.1713 85.6312C47.1713 85.6312 47.1721 85.6324 47.1725 85.6328L53.4807 87.9703L54.8276 91.0789C55.4983 92.6273 56.4745 92.4281 63.7905 96.4453C64.2088 97.3133 64.6717 97.6762 64.5057 98.3535C63.1651 104.109 63.3518 100.916 64.5561 106.332C64.6573 106.72 64.4776 106.32 69.0635 112.484C69.3206 112.827 69.1608 112.613 74.5561 115.678C75.2038 116.041 74.944 116.198 77.5194 122.725C77.6042 122.949 77.2768 122.392 83.928 132.457C84.2319 132.916 84.5463 132.877 86.3729 133.756C87.417 134.228 88.4307 133.044 87.803 132.085C87.1358 131.066 88.2877 130.371 89.876 127.437C90.028 127.189 89.9342 127.336 91.4698 121.887C91.7436 120.905 92.6124 121.119 96.3561 119.652C97.0788 119.398 97.0393 118.824 98.4682 116.269C98.8374 115.561 98.3022 112.873 98.7717 112.121L101.051 108.469C101.595 107.597 100.776 106.955 99.8026 104.548C99.387 103.651 99.0885 104.086 89.8698 101.753Z" fill="#32CC65"/>
<path d="M90.0249 127.069C80.9195 121.393 73.0359 113.461 67.296 103.519C66.2859 101.769 65.3663 99.9921 64.5284 98.1945C64.523 98.2464 64.5198 98.2976 64.5062 98.3534C63.1655 104.109 63.3523 100.916 64.5566 106.332C64.6577 106.72 64.478 106.32 69.064 112.484C69.321 112.827 69.1612 112.613 74.5566 115.678C75.2042 116.041 74.9445 116.198 77.5198 122.725C77.6046 122.949 77.2773 122.392 83.9284 132.457C84.2323 132.916 84.5468 132.877 86.3737 133.756C87.4179 134.228 88.4316 133.044 87.8038 132.085C87.1366 131.066 88.2886 130.371 89.8773 127.437C89.9292 127.351 89.9527 127.311 90.0249 127.069Z" fill="#23B658"/>
<path d="M60.9529 88.7176L59.5236 87.973L58.1041 84.6972C57.3158 82.8773 55.6514 83.109 48.969 80.3062C49.0983 78.3695 48.6135 77.3207 49.5479 76.789C53.7826 74.5211 53.9932 73.9261 54.8479 74.2297C57.9737 75.2027 56.4252 75.0691 58.4408 75.0719C57.7072 65.7562 58.9194 56.4273 61.9256 47.6879C52.0877 57.7656 46.6979 71.4429 46.8838 85.4742C46.9725 85.5453 47.0576 85.5875 47.1721 85.6312C47.1721 85.6312 47.1729 85.6324 47.1733 85.6328L53.4815 87.9703L54.8283 91.0789C55.4975 92.623 56.4713 92.4304 63.7303 96.4121C62.6381 93.8812 61.7147 91.3117 60.9529 88.7176Z" fill="#23B658"/>
<path d="M145.921 58.186C141.792 51.0348 136.25 45.2083 129.852 40.8547C129.951 41.2946 129.921 41.7661 129.723 42.2071C129.336 42.884 129.212 44.052 127.984 44.5063C121.253 47.0981 125.496 44.7676 118.99 50.5922C118.403 51.1586 118.188 52.0079 118.432 52.7848C118.817 54.009 118.147 55.3055 116.889 55.561L114.73 55.9993C112.534 56.445 113.075 58.9321 113.007 59.2145C113.007 60.4028 113.97 61.3657 115.158 61.3657C117.105 61.3657 118.761 61.3657 120.702 61.3657C122.445 61.3657 122.75 59.7297 124.915 57.1372C125.637 56.1622 126.468 56.3528 129.704 55.3348C131.081 54.9524 131.802 55.959 134.219 57.1739C135.279 57.777 136.629 57.3786 137.191 56.2965L137.714 55.2918C138.822 53.1606 142.142 54.2731 142.142 56.4583C142.064 59.5903 142.335 60.0735 141.845 60.9055C141.488 61.7782 139.877 63.2059 141.017 64.8157L142.513 66.9274C143.773 68.7059 141.797 70.1399 141.644 70.4243C141.12 71.0235 140.307 71.284 139.532 71.1016C134.642 69.9004 134.487 70.0368 133.887 69.6083C130.514 67.2536 130.466 67.0317 129.784 66.8614C124.897 65.7454 124.439 65.2622 123.393 65.636C116.362 68.236 116.175 68.004 115.536 68.7227C113.604 70.902 112.327 72.3368 111.472 73.2954L104.135 80.2477V85.6497L108.173 91.018C113.029 94.2598 113.152 94.7446 114.254 94.7446C118.178 94.7446 121.421 94.7446 125.058 94.7446C125.938 94.7446 126.729 95.2801 127.055 96.0969C127.684 97.8286 128.099 98.2758 127.989 99.1544C126.928 107.169 128.06 102.897 124.296 110.72C120.292 118.574 121.107 116.649 120.305 119.33C119.746 121.158 121.672 122.752 123.364 121.862C125.298 120.766 122.411 123.042 134.52 110.822C134.767 110.567 140.413 102.868 140.66 102.587C144.253 98.5383 142.178 100.382 149.038 95.0633C150.042 94.2848 150.764 93.193 151.081 91.9622C152.024 88.2989 152.626 84.5868 152.903 80.8696C152.343 73.1184 150.068 65.3688 145.921 58.186Z" fill="#32CC65"/>
<defs>
<filter id="filter0_d" x="9" y="90" width="100.803" height="109.132" filterUnits="userSpaceOnUse" color-interpolation-filters="sRGB">
<feFlood flood-opacity="0" result="BackgroundImageFix"/>
<feColorMatrix in="SourceAlpha" type="matrix" values="0 0 0 0 0 0 0 0 0 0 0 0 0 0 0 0 0 0 127 0"/>
<feOffset dy="4"/>
<feGaussianBlur stdDeviation="2"/>
<feColorMatrix type="matrix" values="0 0 0 0 0 0 0 0 0 0 0 0 0 0 0 0 0 0 0.25 0"/>
<feBlend mode="normal" in2="BackgroundImageFix" result="effect1_dropShadow"/>
<feBlend mode="normal" in="SourceGraphic" in2="effect1_dropShadow" result="shape"/>
</filter>
<filter id="filter1_d" x="91.0005" y="90" width="100.803" height="109.132" filterUnits="userSpaceOnUse" color-interpolation-filters="sRGB">
<feFlood flood-opacity="0" result="BackgroundImageFix"/>
<feColorMatrix in="SourceAlpha" type="matrix" values="0 0 0 0 0 0 0 0 0 0 0 0 0 0 0 0 0 0 127 0"/>
<feOffset dy="4"/>
<feGaussianBlur stdDeviation="2"/>
<feColorMatrix type="matrix" values="0 0 0 0 0 0 0 0 0 0 0 0 0 0 0 0 0 0 0.25 0"/>
<feBlend mode="normal" in2="BackgroundImageFix" result="effect1_dropShadow"/>
<feBlend mode="normal" in="SourceGraphic" in2="effect1_dropShadow" result="shape"/>
</filter>
<filter id="filter2_d" x="17.875" y="7.81238" width="164.25" height="162.174" filterUnits="userSpaceOnUse" color-interpolation-filters="sRGB">
<feFlood flood-opacity="0" result="BackgroundImageFix"/>
<feColorMatrix in="SourceAlpha" type="matrix" values="0 0 0 0 0 0 0 0 0 0 0 0 0 0 0 0 0 0 127 0"/>
<feOffset dy="4"/>
<feGaussianBlur stdDeviation="2"/>
<feColorMatrix type="matrix" values="0 0 0 0 0 0 0 0 0 0 0 0 0 0 0 0 0 0 0.25 0"/>
<feBlend mode="normal" in2="BackgroundImageFix" result="effect1_dropShadow"/>
<feBlend mode="normal" in="SourceGraphic" in2="effect1_dropShadow" result="shape"/>
</filter>
</defs>
</svg>
