<svg width="40" height="40" viewBox="0 0 40 40" fill="none" xmlns="http://www.w3.org/2000/svg">
<path d="M20 11.6667C24.6 11.6667 28.3333 15.4 28.3333 20C28.3333 21.0833 28.1166 22.1 27.7333 23.05L32.6 27.9167C35.1166 25.8167 37.1 23.1 38.3166 20C35.4333 12.6833 28.3166 7.5 19.9833 7.5C17.65 7.5 15.4166 7.91667 13.35 8.66667L16.95 12.2667C17.9 11.8833 18.9166 11.6667 20 11.6667ZM3.33329 7.11667L7.13329 10.9167L7.89996 11.6833C5.13329 13.8333 2.96663 16.7 1.66663 20C4.54996 27.3167 11.6666 32.5 20 32.5C22.5833 32.5 25.05 32 27.3 31.1L28 31.8L32.8833 36.6667L35 34.55L5.44996 5L3.33329 7.11667ZM12.55 16.3333L15.1333 18.9167C15.05 19.2667 15 19.6333 15 20C15 22.7667 17.2333 25 20 25C20.3666 25 20.7333 24.95 21.0833 24.8667L23.6666 27.45C22.55 28 21.3166 28.3333 20 28.3333C15.4 28.3333 11.6666 24.6 11.6666 20C11.6666 18.6833 12 17.45 12.55 16.3333V16.3333ZM19.7333 15.0333L24.9833 20.2833L25.0166 20.0167C25.0166 17.25 22.7833 15.0167 20.0166 15.0167L19.7333 15.0333Z" fill="#824EA0"/>
</svg>
