<svg width="50" height="50" viewBox="0 0 50 50" fill="none" xmlns="http://www.w3.org/2000/svg">
<path d="M24.9997 14.5833C30.7497 14.5833 35.4163 19.25 35.4163 25C35.4163 26.3542 35.1455 27.625 34.6663 28.8125L40.7497 34.8958C43.8955 32.2708 46.3747 28.875 47.8955 25C44.2913 15.8542 35.3955 9.375 24.9788 9.375C22.0622 9.375 19.2705 9.89583 16.6872 10.8333L21.1872 15.3333C22.3747 14.8542 23.6455 14.5833 24.9997 14.5833ZM4.16634 8.89583L8.91634 13.6458L9.87467 14.6042C6.41634 17.2917 3.70801 20.875 2.08301 25C5.68717 34.1458 14.583 40.625 24.9997 40.625C28.2288 40.625 31.3122 40 34.1247 38.875L34.9997 39.75L41.1038 45.8333L43.7497 43.1875L6.81217 6.25L4.16634 8.89583ZM15.6872 20.4167L18.9163 23.6458C18.8122 24.0833 18.7497 24.5417 18.7497 25C18.7497 28.4583 21.5413 31.25 24.9997 31.25C25.458 31.25 25.9163 31.1875 26.3538 31.0833L29.583 34.3125C28.1872 35 26.6455 35.4167 24.9997 35.4167C19.2497 35.4167 14.583 30.75 14.583 25C14.583 23.3542 14.9997 21.8125 15.6872 20.4167V20.4167ZM24.6663 18.7917L31.2288 25.3542L31.2705 25.0208C31.2705 21.5625 28.4788 18.7708 25.0205 18.7708L24.6663 18.7917Z" fill="#824EA0"/>
</svg>
