<svg width="60" height="60" viewBox="0 0 60 60" fill="none" xmlns="http://www.w3.org/2000/svg">
<path d="M42.3065 45.9375V50.625C42.3065 55.7945 38.1009 60 32.9311 60H9.37541C4.20566 60 0 55.7945 0 50.625V9.375C0 4.20547 4.20566 0 9.37541 0H32.9311C38.1009 0 42.3065 4.20547 42.3065 9.375V14.0625C42.3065 15.3571 41.2573 16.4062 39.9627 16.4062C38.6681 16.4062 37.6188 15.3571 37.6188 14.0625V9.375C37.6188 6.79047 35.5158 4.6875 32.9311 4.6875H9.37541C6.79076 4.6875 4.68771 6.79047 4.68771 9.375V50.625C4.68771 53.2095 6.79076 55.3125 9.37541 55.3125H32.9311C35.5158 55.3125 37.6188 53.2095 37.6188 50.625V45.9375C37.6188 44.6429 38.6681 43.5938 39.9627 43.5938C41.2573 43.5938 42.3065 44.6429 42.3065 45.9375ZM58.2864 25.974L53.0379 20.7257C52.1223 19.8102 50.6382 19.8102 49.7231 20.7257C48.8075 21.6408 48.8075 23.1248 49.7231 24.0399L53.4563 27.7734H25.3136C24.019 27.7734 22.9698 28.8226 22.9698 30.1172C22.9698 31.4117 24.019 32.4609 25.3136 32.4609H53.4563L49.7231 36.1945C48.8075 37.1095 48.8075 38.5936 49.7231 39.5087C50.1809 39.9664 50.7806 40.1953 51.3803 40.1953C51.9804 40.1953 52.5801 39.9664 53.0379 39.5087L58.2864 34.2604C60.5712 31.9757 60.5712 28.2587 58.2864 25.974Z" fill="#F5F5F5"/>
</svg>
