<svg width="326" height="326" viewBox="0 0 326 326" fill="none" xmlns="http://www.w3.org/2000/svg">
<g clip-path="url(#clip0)">
<path d="M107.1 43.2002C107.1 31.2002 97.1 21.2002 85.1 21.2002C73.1 21.2002 63.1 30.8002 63.1 43.2002C63.1 55.2002 73.1 65.2002 85.1 65.2002C97.1 65.2002 107.1 55.2002 107.1 43.2002ZM73.5 43.2002C73.5 36.8002 78.7 31.6002 85.1 31.6002C91.5 31.6002 96.7 36.8002 96.7 43.2002C96.7 49.6002 91.5 54.8002 85.1 54.8002C78.7 54.8002 73.5 49.6002 73.5 43.2002Z" fill="#F5F5F5"/>
<path d="M297.5 96L210.7 45.6H210.3H209.9C209.5 45.6 209.1 45.2 209.1 45.2H208.7H208.3C207.9 45.2 207.5 45.2 207.1 45.2C207.1 45.2 207.1 45.2 206.7 45.2H206.3H205.9L122.7 92.4L110.7 86C119.5 71.2 127.9 54.4 127.9 43.2C127.9 19.6 108.7 0 84.7 0C60.7 0 41.5 19.2 41.5 43.2C41.5 45.6 41.9 48 42.3 50.4L32.7 45.2C31.1 44.4 29.1 44.4 27.5 45.2C25.9 46 25.1 48 25.1 49.6V274.8C25.5 277.2 26.7 278.8 28.3 279.6L120.7 324.4H121.1C121.5 324.8 122.3 324.8 122.7 324.8H123.1C123.5 324.8 123.9 324.8 123.9 324.8H124.3H124.7H125.1L207.9 278.4L292.7 324.8C294.3 325.6 296.3 325.6 297.9 324.8C299.5 324 300.3 322 300.3 320.4V100.4C300.3 98.4 299.1 96.8 297.5 96ZM85.1 10.4C103.1 10.4 117.9 25.2 117.9 43.2C117.9 58.4 97.1 90 85.1 106.4C73.1 90.4 52.3 59.2 52.3 43.2C52.3 24.8 66.7 10.4 85.1 10.4ZM117.9 311.2L35.9 271.6V163.6L117.9 204.8V311.2ZM117.9 193.2L35.9 152V58.4L47.5 64.4C57.5 87.6 77.9 114 81.1 118L85.1 123.2L89.1 118C90.7 116 97.9 106.8 105.5 94.8L117.9 101.2V193.2ZM128.3 101.2L194.7 63.6L128.3 182V101.2ZM128.3 203.2L156.7 152.8L201.5 184L128.3 301.6V203.2ZM203.1 269.2L137.9 305.6L203.1 200.4V269.2V269.2ZM203.1 172L161.5 143.6L203.1 69.6V172ZM290.3 311.2L213.5 269.2V192L290.3 245.6V311.2ZM290.3 232.8L213.5 179.6V58.8L290.3 102.4V232.8Z" fill="#F5F5F5"/>
</g>
<defs>
<clipPath id="clip0">
<rect width="325.4" height="325.4" fill="white"/>
</clipPath>
</defs>
</svg>
