<svg width="63" height="63" viewBox="0 0 63 63" fill="none" xmlns="http://www.w3.org/2000/svg">
<g clip-path="url(#clip0)">
<path d="M31.5002 0C22.7617 0 15.6531 7.10866 15.6531 15.8471C15.6531 24.5855 22.7617 31.6942 31.5002 31.6942C40.2386 31.6942 47.3472 24.5855 47.3472 15.8471C47.3472 7.10866 40.2386 0 31.5002 0ZM31.5002 27.0333C25.3322 27.0333 20.314 22.0151 20.314 15.8471C20.314 9.67911 25.3322 4.66089 31.5002 4.66089C37.6681 4.66089 42.6863 9.67911 42.6863 15.8471C42.6863 22.0151 37.6681 27.0333 31.5002 27.0333Z" fill="#F5F5F5"/>
<path d="M31.5 37.2872C17.5608 37.2872 6.64185 48.5813 6.64185 63H11.3027C11.3027 50.9981 19.986 41.9481 31.5 41.9481C43.014 41.9481 51.6973 50.9988 51.6973 63H56.3582C56.3582 48.5815 45.4393 37.2872 31.5 37.2872Z" fill="#F5F5F5"/>
</g>
<defs>
<clipPath id="clip0">
<rect width="63" height="63" fill="white"/>
</clipPath>
</defs>
</svg>
