<svg width="60" height="60" viewBox="0 0 60 60" fill="none" xmlns="http://www.w3.org/2000/svg">
<path d="M8.78906 42.4219H10.6641V49.4531H25.0289C25.5594 50.9489 26.7464 52.1359 28.2422 52.6664V56.4844H21.2109V60H38.7891V56.4844H31.7578V52.6664C33.2536 52.1359 34.4406 50.9489 34.9711 49.4531H49.3359V42.4219H51.2109C56.0572 42.4219 60 38.4791 60 33.6328V31.875H35.2734V33.6328C35.2734 38.4791 39.2162 42.4219 44.0625 42.4219H45.8203V45.9375H34.9704C34.8634 45.6345 34.7303 45.3404 34.5689 45.0608L30 37.149L25.4311 45.0608C25.2696 45.3404 25.1366 45.6345 25.0296 45.9375H14.1797V42.4219H15.9375C20.7838 42.4219 24.7266 38.4791 24.7266 33.6328V31.875H0V33.6328C0 38.4791 3.94277 42.4219 8.78906 42.4219ZM39.0902 35.3895H56.1832C55.4577 37.4368 53.5027 38.9062 51.2109 38.9062H44.0625C41.7708 38.9062 39.8157 37.4368 39.0902 35.3895ZM28.4757 46.8187L30 44.1791L31.5243 46.8186C31.6792 47.0871 31.7578 47.3821 31.7578 47.6952C31.7578 48.6645 30.9693 49.453 30 49.453C29.0307 49.453 28.2422 48.6645 28.2422 47.6952C28.2422 47.3821 28.3208 47.087 28.4757 46.8187V46.8187ZM20.9098 35.3906C20.1843 37.4368 18.2292 38.9062 15.9375 38.9062H8.78906C6.49734 38.9062 4.5423 37.4368 3.8168 35.3906H20.9098Z" fill="#F5F5F5"/>
<path d="M22.8099 7.03125H17.6962V5.27344C17.6962 2.36566 15.3305 0 12.4227 0C9.51496 0 7.1493 2.36566 7.1493 5.27344V7.03125H2.03559L0.000976562 28.3594H24.8445L22.8099 7.03125ZM10.6649 5.27344C10.6649 4.30418 11.4535 3.51562 12.4227 3.51562C13.392 3.51562 14.1805 4.30418 14.1805 5.27344V7.03125H10.6649V5.27344ZM3.86793 24.8438L5.23176 10.5469H7.1493V14.0625H10.6649V10.5469H14.1805V14.0625H17.6962V10.5469H19.6137L20.9775 24.8438H3.86793Z" fill="#F5F5F5"/>
<path d="M42.3047 5.27344V7.03125H37.191L35.1564 28.3594H59.9999L57.9653 7.03125H52.8516V5.27344C52.8516 2.36566 50.4859 0 47.5781 0C44.6704 0 42.3047 2.36566 42.3047 5.27344V5.27344ZM54.7691 10.5469L56.1329 24.8438H39.0233L40.3872 10.5469H42.3047V14.0625H45.8203V10.5469H49.3359V14.0625H52.8516V10.5469H54.7691ZM47.5781 3.51562C48.5474 3.51562 49.3359 4.30418 49.3359 5.27344V7.03125H45.8203V5.27344C45.8203 4.30418 46.6089 3.51562 47.5781 3.51562Z" fill="#F5F5F5"/>
</svg>
