<svg width="61" height="60" viewBox="0 0 61 60" fill="none" xmlns="http://www.w3.org/2000/svg">
<path d="M6.58444 1.5559L6.58444 38.5346L4.82073 38.5346C2.23391 38.5346 0.129395 40.2793 0.129395 42.4239L0.129395 48.459C0.129395 50.6036 2.23391 52.3482 4.82073 52.3482L6.58444 52.3482L6.58444 58.4443C6.58444 59.3036 7.4248 60 8.46108 60C9.49737 60 10.3376 59.3036 10.3376 58.4443L10.3376 52.3485L12.1007 52.3485C14.6876 52.3485 16.7921 50.6038 16.7921 48.4593L16.7921 42.424C16.7921 40.2795 14.6876 38.5348 12.1007 38.5348L10.3376 38.5348L10.3376 1.5559C10.3376 0.696682 9.49723 0.000236623 8.46109 0.000236611C7.4248 0.000118343 6.58444 0.696682 6.58444 1.5559ZM12.1007 41.646C12.6181 41.646 13.0391 41.995 13.0391 42.4239L13.0391 48.4591C13.0391 48.888 12.6181 49.237 12.1007 49.237L4.82073 49.237C4.30337 49.237 3.88241 48.888 3.88241 48.4591L3.88241 42.4239C3.88241 41.995 4.30337 41.646 4.82073 41.646L12.1007 41.646Z" fill="#F5F5F5"/>
<path d="M27.4854 1.55566L27.4854 7.65164L25.7211 7.65164C23.1343 7.65164 21.0298 9.39632 21.0298 11.5409L21.0298 17.5761C21.0298 19.7207 23.1343 21.4653 25.7211 21.4653L27.4854 21.4653L27.4854 58.4443C27.4854 59.3036 28.3256 60 29.3619 60C30.3982 60 31.2384 59.3036 31.2384 58.4443L31.2384 21.4655L33.001 21.4655C35.5878 21.4655 37.6923 19.7208 37.6923 17.5762L37.6923 11.541C37.6923 9.39644 35.5878 7.65176 33.001 7.65176L31.2384 7.65176L31.2384 1.55578C31.2384 0.69656 30.398 0.000114553 29.3619 0.00011454C28.3256 -3.7277e-06 27.4854 0.696442 27.4854 1.55566ZM33.0011 10.7631C33.5185 10.7631 33.9394 11.1121 33.9394 11.541L33.9394 17.5762C33.9394 18.0052 33.5185 18.3541 33.0011 18.3541L25.7211 18.3541C25.2038 18.3541 24.7828 18.0052 24.7828 17.5762L24.7828 11.541C24.7828 11.1121 25.2038 10.7631 25.7211 10.7631L33.0011 10.7631Z" fill="#F5F5F5"/>
<path d="M49.9213 1.55566L49.9213 27.6056L48.1581 27.6056C45.5713 27.6056 43.4668 29.3503 43.4668 31.4948L43.4668 37.5301C43.4668 39.6746 45.5713 41.4193 48.1581 41.4193L49.9213 41.4193L49.9213 58.4443C49.9213 59.3036 50.7616 60 51.7978 60C52.8341 60 53.6743 59.3036 53.6743 58.4443L53.6743 41.4195L55.438 41.4195C58.0248 41.4195 60.1293 39.6748 60.1293 37.5302L60.1293 31.495C60.1293 29.3504 58.0248 27.6057 55.438 27.6057L53.6743 27.6057L53.6743 1.55578C53.6743 0.69656 52.8339 0.000114553 51.7978 0.00011454C50.7614 -3.72771e-06 49.9213 0.696442 49.9213 1.55566ZM55.4381 30.7171C55.9555 30.7171 56.3765 31.0661 56.3765 31.495L56.3765 37.5302C56.3765 37.9591 55.9555 38.3081 55.4381 38.3081L48.1581 38.3081C47.6408 38.3081 47.2198 37.9591 47.2198 37.5302L47.2198 31.495C47.2198 31.0661 47.6408 30.7171 48.1581 30.7171L55.4381 30.7171Z" fill="#F5F5F5"/>
</svg>
