<svg width="200" height="200" viewBox="0 0 200 200" fill="none" xmlns="http://www.w3.org/2000/svg">
<path d="M100 200C155.228 200 200 155.228 200 100C200 44.7715 155.228 0 100 0C44.7715 0 0 44.7715 0 100C0 155.228 44.7715 200 100 200Z" fill="#AACCAA"/>
<g filter="url(#filter0_d)">
<path d="M59.9572 189.321L48.2158 166.727C47.0096 164.406 44.5662 162.995 41.9529 163.111L16.5158 164.239C13.8642 164.357 12.1291 161.5 13.456 159.201L53.4092 90L105.803 120.25L65.8502 189.451C64.5232 191.75 61.181 191.676 59.9572 189.321Z" fill="#D0D0D0"/>
</g>
<path d="M31.9006 127.255C43.8831 143.931 61.5612 156.235 82.0885 161.327L105.804 120.251L53.4096 90.0009L31.9006 127.255Z" fill="#D0D0D0"/>
<path d="M41.9531 163.111C44.5664 162.995 47.0098 164.406 48.216 166.727L51.7535 173.535L88.3387 110.167L70.8738 100.084L34.2891 163.452L41.9531 163.111Z" fill="#FFE400"/>
<path d="M62.9671 154.113L88.339 110.167L70.8741 100.084L46.2007 142.82C51.3136 147.196 56.9378 150.991 62.9671 154.113Z" fill="#FEBB00"/>
<g filter="url(#filter1_d)">
<path d="M140.847 189.321L152.588 166.727C153.794 164.406 156.238 162.995 158.851 163.111L184.288 164.239C186.94 164.357 188.675 161.5 187.348 159.201L147.395 90L95.0005 120.25L134.954 189.451C136.281 191.75 139.623 191.676 140.847 189.321V189.321Z" fill="#D0D0D0"/>
</g>
<path d="M95 120.25L118.715 161.326C139.243 156.235 156.921 143.93 168.903 127.255L147.394 90.0004L95 120.25Z" fill="#D0D0D0"/>
<path d="M158.851 163.111C156.237 162.995 153.794 164.406 152.588 166.727L149.05 173.535L112.465 110.167L129.93 100.084L166.515 163.452L158.851 163.111Z" fill="#FFE400"/>
<path d="M154.603 142.82L129.93 100.084L112.465 110.167L137.837 154.113C143.866 150.991 149.49 147.196 154.603 142.82V142.82Z" fill="#FEBB00"/>
<g filter="url(#filter2_d)">
<path d="M178.125 84.8992C178.125 89.4367 174.69 93.618 173.933 97.9387C173.155 102.382 174.942 107.482 173.433 111.627C171.897 115.845 167.236 118.599 165.017 122.434C162.778 126.305 162.708 131.714 159.848 135.119C156.981 138.533 151.662 139.535 148.248 142.402C144.844 145.262 142.939 150.329 139.068 152.569C135.234 154.787 129.897 153.918 125.679 155.454C121.534 156.962 118.011 161.072 113.568 161.85C109.247 162.607 104.537 159.961 99.9996 159.961C95.4621 159.961 90.7523 162.607 86.4316 161.85C81.9883 161.072 78.4648 156.962 74.3203 155.454C70.102 153.918 64.7656 154.788 60.9309 152.568C57.0598 150.329 55.1555 145.261 51.7512 142.402C48.3371 139.534 43.0188 138.532 40.1508 135.118C37.2914 131.713 37.2215 126.304 34.982 122.433C32.7633 118.598 28.102 115.844 26.5664 111.626C25.0574 107.482 26.8449 102.382 26.0664 97.9383C25.3102 93.618 21.875 89.4367 21.875 84.8992C21.875 80.3617 25.3102 76.1805 26.0672 71.8598C26.8453 67.4164 25.0582 62.3164 26.5672 58.1715C28.1027 53.9531 32.7641 51.1992 34.9828 47.3641C37.2223 43.493 37.2922 38.084 40.1516 34.6797C43.0191 31.2656 48.3379 30.2637 51.752 27.3961C55.1563 24.5367 57.0605 19.4691 60.9316 17.2297C64.7664 15.0109 70.1027 15.8805 74.3211 14.3449C78.4656 12.8359 81.9891 8.72655 86.4324 7.94843C90.7531 7.19179 95.4629 9.83788 100 9.83788C104.538 9.83788 109.248 7.19179 113.568 7.94843C118.012 8.72655 121.535 12.8363 125.68 14.3449C129.898 15.8805 135.234 15.0109 139.069 17.2301C142.94 19.4695 144.845 24.5371 148.249 27.3969C151.663 30.2644 156.981 31.2668 159.849 34.6808C162.709 38.0851 162.779 43.4941 165.018 47.3652C167.237 51.2 171.898 53.9543 173.434 58.1723C174.943 62.3168 173.155 67.4168 173.934 71.8601C174.69 76.1809 178.125 80.3617 178.125 84.8992Z" fill="#D0D0D0"/>
</g>
<path d="M100 150.004C135.956 150.004 165.104 120.855 165.104 84.8992C165.104 48.9431 135.956 19.7949 100 19.7949C64.0439 19.7949 34.8958 48.9431 34.8958 84.8992C34.8958 120.855 64.0439 150.004 100 150.004Z" fill="#60B550"/>
<path d="M100 143.493C132.36 143.493 158.594 117.26 158.594 84.8992C158.594 52.5387 132.36 26.3054 100 26.3054C67.6396 26.3054 41.4062 52.5387 41.4062 84.8992C41.4062 117.26 67.6396 143.493 100 143.493Z" fill="#AACCAA"/>
<path d="M51.7536 94.7161H40.8777C41.7623 100.726 43.5396 106.444 46.0736 111.732L121.341 130.955L157.378 69.1707C150.129 44.3252 127.186 26.1719 99.9999 26.1719C80.1862 26.1719 62.6275 35.8163 51.7536 50.6641V94.7161Z" fill="#85FAF4"/>
<path d="M79.9359 93.412C79.0179 95.1336 78.8489 97.237 79.6537 99.1804C80.4586 101.124 82.0655 102.491 83.932 103.06C83.7427 105.001 84.3915 107.009 85.8789 108.497C87.3662 109.984 89.3742 110.632 91.3159 110.443C91.8841 112.31 93.252 113.917 95.1951 114.722C97.1381 115.527 99.2416 115.357 100.963 114.44C102.203 115.946 104.081 116.908 106.184 116.908C108.288 116.908 110.166 115.946 111.406 114.44C113.127 115.357 115.231 115.526 117.174 114.722C119.117 113.917 120.485 112.31 121.053 110.443C122.995 110.633 125.003 109.984 126.49 108.497C127.977 107.009 128.626 105.001 128.437 103.06C130.303 102.491 131.91 101.123 132.715 99.1804C133.52 97.2373 133.351 95.1338 132.433 93.412C133.94 92.1728 134.901 90.2942 134.901 88.1909C134.901 86.0877 133.94 84.2091 132.433 82.9699C133.351 81.2483 133.52 79.1449 132.715 77.2015C131.91 75.2584 130.303 73.8906 128.437 73.3224C128.626 71.3807 127.977 69.3725 126.49 67.8853C125.003 66.398 122.995 65.7494 121.053 65.9385C120.485 64.072 119.117 62.4651 117.174 61.6601C115.231 60.8552 113.127 61.0244 111.406 61.9424C110.166 60.4354 108.288 59.4742 106.184 59.4742C104.081 59.4742 102.203 60.4354 100.963 61.9424C99.2418 61.0244 97.1384 60.8554 95.1951 61.6601C93.2517 62.4651 91.8841 64.072 91.3159 65.9385C89.374 65.7492 87.366 66.398 85.8789 67.8853C84.3915 69.3725 83.7429 71.3807 83.932 73.3224C82.0655 73.8906 80.4586 75.2584 79.6537 77.2015C78.8487 79.1446 79.0179 81.2481 79.9359 82.9699C78.4289 84.2091 77.4678 86.0877 77.4678 88.1909C77.4678 90.2942 78.4292 92.1728 79.9359 93.412V93.412Z" fill="#389F4D"/>
<path d="M109.628 127.709C108.605 111.658 108.224 100.082 108.106 95.7564C108.078 94.7157 107.226 93.8881 106.184 93.8881C105.143 93.8881 104.291 94.7157 104.263 95.7564C104.145 100.082 103.764 111.658 102.741 127.709H109.628Z" fill="#B2381B"/>
<path d="M101.929 61.8688C101.062 63.4946 100.902 65.4811 101.662 67.3164C102.422 69.1516 103.94 70.4433 105.703 70.98C105.524 72.8139 106.137 74.7103 107.541 76.115C108.946 77.5195 110.842 78.1323 112.676 77.9535C113.213 79.7161 114.505 81.2338 116.34 81.994C118.175 82.7541 120.161 82.5944 121.787 81.7276C122.958 83.1507 124.732 84.0584 126.718 84.0584C128.704 84.0584 130.479 83.1507 131.649 81.7276C133.275 82.5944 135.261 82.7541 137.097 81.994C138.932 81.2338 140.224 79.7161 140.76 77.9535C142.594 78.1323 144.491 77.5195 145.895 76.115C147.3 74.7105 147.913 72.8139 147.734 70.98C149.496 70.4433 151.014 69.1516 151.774 67.3164C152.534 65.4811 152.375 63.4946 151.508 61.8688C152.931 60.6985 153.839 58.9242 153.839 56.9379C153.839 54.9516 152.931 53.1773 151.508 52.007C152.375 50.3812 152.534 48.3947 151.774 46.5595C151.014 44.7242 149.496 43.4325 147.734 42.8958C147.913 41.062 147.3 39.1656 145.895 37.7608C144.491 36.3561 142.594 35.7435 140.76 35.9223C140.224 34.1597 138.932 32.642 137.097 31.8819C135.261 31.1217 133.275 31.2814 131.649 32.1482C130.479 30.7251 128.704 29.8174 126.718 29.8174C124.732 29.8174 122.958 30.7251 121.787 32.1482C120.161 31.2814 118.175 31.1217 116.34 31.8819C114.505 32.642 113.213 34.1597 112.676 35.9223C110.842 35.7435 108.946 36.3561 107.541 37.7608C106.137 39.1653 105.524 41.0617 105.703 42.8958C103.94 43.4325 102.422 44.7242 101.662 46.5595C100.902 48.3947 101.062 50.3812 101.929 52.007C100.505 53.1773 99.5977 54.9516 99.5977 56.9379C99.5977 58.9242 100.506 60.6982 101.929 61.8688Z" fill="#A3EA6E"/>
<path d="M107.541 37.7608C106.137 39.1653 105.524 41.0617 105.703 42.8958C103.94 43.4325 102.422 44.7242 101.662 46.5592C100.902 48.3944 101.062 50.3809 101.929 52.0068C100.505 53.1771 99.5977 54.9514 99.5977 56.9377C99.5977 58.9239 100.505 60.6982 101.929 61.8686C101.062 63.4944 100.902 65.4809 101.662 67.3161C102.422 69.1513 103.94 70.4431 105.703 70.9798C105.524 72.8136 106.137 74.71 107.541 76.1147C108.946 77.5192 110.842 78.132 112.676 77.9532C113.213 79.7158 114.505 81.2336 116.34 81.9937C118.175 82.7538 120.161 82.5942 121.787 81.7273C122.958 83.1505 124.732 84.0582 126.718 84.0582C128.704 84.0582 130.479 83.1505 131.649 81.7273C132.137 81.9876 132.658 82.1826 133.197 82.3096C133.197 74.5274 133.197 66.5359 133.197 64.1247C133.197 59.004 129.766 56.0547 120.078 52.4361C110.389 48.8175 110.973 41.3468 112.676 35.9223C110.842 35.7437 108.946 36.3563 107.541 37.7608V37.7608Z" fill="#85D249"/>
<path d="M130.162 81.4564C129.139 65.4049 128.758 53.8293 128.64 49.5035C128.611 48.4627 127.759 47.6351 126.718 47.6351C125.677 47.6351 124.825 48.4627 124.796 49.5035C124.678 53.8293 124.297 65.4049 123.274 81.4564H130.162Z" fill="#C04A27"/>
<path d="M152.042 112.027L153.922 111.733C157.665 103.923 159.765 95.1763 159.765 85.9376C159.765 80.1163 158.93 74.4906 157.378 69.1705C156.069 68.2876 154.518 67.9175 153.007 68.0651C152.446 66.2247 151.098 64.64 149.181 63.8465C147.265 63.0527 145.191 63.2196 143.493 64.1247C142.271 62.6388 140.419 61.6909 138.345 61.6909C136.271 61.6909 134.418 62.6388 133.196 64.1247C131.499 63.2196 129.425 63.0529 127.508 63.8465C125.592 64.64 124.243 66.2247 123.683 68.0651C121.768 67.8785 119.788 68.5182 118.322 69.9848C116.855 71.4514 116.215 73.4314 116.402 75.3462C114.562 75.9065 112.977 77.2552 112.184 79.1714C111.39 81.0877 111.557 83.1617 112.462 84.8595C110.976 86.0814 110.028 87.9339 110.028 90.0079C110.028 92.082 110.976 93.9345 112.462 95.1564C111.557 96.8539 111.39 98.9282 112.184 100.844C112.977 102.761 114.562 104.109 116.402 104.67C116.216 106.585 116.855 108.564 118.322 110.031C119.788 111.498 121.768 112.137 123.683 111.951C124.243 113.791 125.592 115.376 127.508 116.169C129.425 116.963 131.499 116.796 133.196 115.891C134.418 117.377 136.271 118.325 138.345 118.325C140.419 118.325 142.271 117.377 143.493 115.891C145.191 116.796 147.265 116.963 149.181 116.169C150.772 115.511 151.969 114.306 152.652 112.864L152.042 112.027Z" fill="#85D249"/>
<path d="M152.042 112.027L153.922 111.733C155.733 107.954 157.159 103.957 158.149 99.7895C153.277 92.5636 143.343 93.2068 134.901 90.0077C124.9 86.218 126.07 72.008 133.197 64.1248C131.499 63.2196 129.425 63.053 127.509 63.8465C125.592 64.64 124.244 66.2247 123.683 68.0651C121.769 67.8786 119.789 68.5182 118.322 69.9848C116.855 71.4514 116.216 73.4314 116.402 75.3462C114.562 75.9065 112.977 77.2552 112.184 79.1715C111.39 81.0877 111.557 83.1618 112.462 84.8595C110.976 86.0814 110.028 87.9339 110.028 90.008C110.028 92.082 110.976 93.9345 112.462 95.1564C111.557 96.8539 111.39 98.9282 112.184 100.844C112.978 102.761 114.562 104.109 116.402 104.67C116.216 106.585 116.856 108.564 118.322 110.031C119.789 111.498 121.769 112.137 123.683 111.951C124.244 113.791 125.592 115.376 127.509 116.169C129.425 116.963 131.499 116.796 133.197 115.891C134.419 117.377 136.271 118.325 138.345 118.325C140.419 118.325 142.272 117.377 143.494 115.891C145.191 116.796 147.265 116.963 149.182 116.169C150.772 115.511 151.97 114.306 152.652 112.864L152.042 112.027Z" fill="#60B550"/>
<path d="M119.089 70.9189C119.264 70.2678 119.358 69.584 119.358 68.8778C119.358 65.5801 117.323 62.7597 114.44 61.5994C113.917 58.0289 110.988 55.2419 107.353 54.9328C106.097 52.2734 103.392 50.4326 100.256 50.4326C99.9148 50.4326 99.5796 50.4569 99.2499 50.4989C97.8153 48.6424 95.5683 47.4457 93.0408 47.4457C92.2417 47.4457 91.4706 47.5659 90.7443 47.7882C89.344 46.4869 87.4686 45.6899 85.4062 45.6899C84.0573 45.6899 82.7882 46.0305 81.6797 46.6302C80.3637 45.6324 78.7239 45.0397 76.9452 45.0397C75.1665 45.0397 73.5266 45.6327 72.2106 46.6302C71.1019 46.0307 69.8328 45.6899 68.4841 45.6899C66.4218 45.6899 64.5464 46.4869 63.1461 47.7882C62.4196 47.5659 61.6487 47.4457 60.8496 47.4457C58.3219 47.4457 56.0751 48.6424 54.6405 50.4989C54.3108 50.4566 53.9756 50.4326 53.6345 50.4326C52.9857 50.4326 52.3568 50.5155 51.7537 50.6639C44.513 60.551 40.2344 72.7439 40.2344 85.9376C40.2344 88.9203 40.4559 91.8507 40.8778 94.7161C42.1805 96.4958 44.2139 97.7065 46.5378 97.904C47.7933 100.563 50.4984 102.404 53.6345 102.404C53.9756 102.404 54.3108 102.38 54.6405 102.338C56.0751 104.194 58.3221 105.391 60.8496 105.391C61.6487 105.391 62.4198 105.271 63.1461 105.049C64.5464 106.35 66.4218 107.147 68.4841 107.147C69.8331 107.147 71.1022 106.806 72.2106 106.207C73.5266 107.204 75.1665 107.797 76.9452 107.797C78.7239 107.797 80.3637 107.204 81.6797 106.207C82.7884 106.806 84.0575 107.147 85.4062 107.147C87.4686 107.147 89.344 106.35 90.7443 105.049C91.4708 105.271 92.2417 105.391 93.0408 105.391C95.5685 105.391 97.8153 104.194 99.2499 102.338C99.5796 102.38 99.9148 102.404 100.256 102.404C103.392 102.404 106.097 100.563 107.353 97.904C110.988 97.5952 113.917 94.8079 114.44 91.2374C117.323 90.0773 119.358 87.2566 119.358 83.959C119.358 83.2528 119.264 82.5688 119.089 81.9179C120.481 80.5022 121.341 78.561 121.341 76.4183C121.341 74.2758 120.481 72.3346 119.089 70.9189V70.9189Z" fill="#60B550"/>
<path d="M96.3854 86.7096C96.3854 86.7096 90.9174 82.0152 92.6221 71.3594C92.7243 70.7197 92.2682 70.1244 91.6243 70.052C91.0696 69.9897 90.5525 70.3366 90.4005 70.8736C89.5294 73.9536 87.3674 84.1399 93.794 92.724L96.3854 86.7096Z" fill="#C04A27"/>
<path d="M52.1558 58.2231C51.289 59.8489 51.1293 61.8354 51.8894 63.6706C52.6496 65.5058 54.1673 66.7976 55.9299 67.3343C55.7511 69.1681 56.3639 71.0645 57.7684 72.4692C59.1729 73.8737 61.0695 74.4866 62.9033 74.3077C63.4401 76.0704 64.7318 77.5881 66.567 78.3482C68.4022 79.1084 70.3888 78.9487 72.0146 78.0818C73.1849 79.505 74.9592 80.4127 76.9455 80.4127C78.9317 80.4127 80.706 79.505 81.8764 78.0818C83.5022 78.9487 85.4887 79.1084 87.3239 78.3482C89.1591 77.5881 90.4509 76.0704 90.9876 74.3077C92.8214 74.4866 94.7178 73.8737 96.1225 72.4692C97.527 71.0648 98.1399 69.1681 97.961 67.3343C99.7236 66.7976 101.241 65.5058 102.002 63.6706C102.762 61.8354 102.602 59.8489 101.735 58.2231C103.158 57.0527 104.066 55.2784 104.066 53.2922C104.066 51.3059 103.158 49.5316 101.735 48.3613C102.602 46.7355 102.762 44.749 102.002 42.9137C101.241 41.0785 99.7236 39.7868 97.961 39.25C98.1399 37.4162 97.527 35.5198 96.1225 34.1151C94.718 32.7104 92.8216 32.0978 90.9876 32.2766C90.4509 30.514 89.1591 28.9963 87.3239 28.2361C85.4887 27.476 83.5022 27.6357 81.8764 28.5025C80.7058 27.0796 78.9315 26.1719 76.9452 26.1719C74.959 26.1719 73.1847 27.0796 72.0143 28.5027C70.3885 27.6359 68.402 27.4762 66.5668 28.2364C64.7316 28.9965 63.4398 30.514 62.9031 32.2768C61.0693 32.098 59.1729 32.7106 57.7682 34.1153C56.3637 35.5198 55.7508 37.4162 55.9297 39.2503C54.1671 39.787 52.6493 41.0787 51.8892 42.914C51.129 44.7492 51.2887 46.7357 52.1556 48.3615C50.7324 49.5318 49.8247 51.3061 49.8247 53.2924C49.8247 55.2787 50.7329 57.0527 52.1558 58.2231V58.2231Z" fill="#A3EA6E"/>
<path d="M57.7684 34.1151C56.3639 35.5196 55.7511 37.4162 55.9299 39.25C54.1673 39.7867 52.6496 41.0785 51.8894 42.9137C51.1293 44.7489 51.289 46.7354 52.1558 48.3612C50.7326 49.5316 49.825 51.3059 49.825 53.2921C49.825 55.2784 50.7326 57.0527 52.1558 58.223C51.289 59.8488 51.1293 61.8354 51.8894 63.6706C52.6496 65.5058 54.1673 66.7975 55.9299 67.3343C55.7511 69.1681 56.3639 71.0645 57.7684 72.4692C59.1729 73.8739 61.0693 74.4865 62.9034 74.3077C63.4401 76.0703 64.7318 77.588 66.567 78.3482C68.4023 79.1083 70.3888 78.9486 72.0146 78.0818C73.1849 79.505 74.9592 80.4127 76.9455 80.4127C78.9318 80.4127 80.7061 79.505 81.8764 78.0818C83.5022 78.9486 85.4887 79.1083 87.3239 78.3482C89.1592 77.588 90.4509 76.0703 90.9876 74.3077C85.7098 70.6151 83.8914 64.8094 88.5606 55.5877C93.2298 46.3661 84.8252 38.8954 76.0705 42.2805C67.3157 45.6657 60.7789 39.7125 62.9031 32.2766C61.0693 32.098 59.1729 32.7106 57.7684 34.1151V34.1151Z" fill="#85D249"/>
<path d="M136.767 101.617C136.767 101.617 129.86 99.5604 127.071 89.1357C126.904 88.5098 126.244 88.1524 125.627 88.3489C125.095 88.5182 124.764 89.0458 124.844 89.5982C125.305 92.7658 127.485 102.948 136.853 108.165L136.767 101.617Z" fill="#D85E41"/>
<path d="M73.463 86.8702C73.463 86.8702 63.2118 87.7389 54.0674 75.3419C53.5162 74.5946 52.4528 74.4569 51.7319 75.0424C51.1142 75.5439 50.9479 76.4177 51.342 77.1087C53.6049 81.0766 61.8146 93.4813 76.9939 95.5304L73.463 86.8702Z" fill="#C04A27"/>
<path d="M93.7938 92.7239L96.3852 86.7096C96.3852 86.7096 95.0946 85.5974 93.9628 83.235C92.7701 84.4296 91.5901 85.4029 90.4548 86.1964C91.1428 88.3825 92.2053 90.6023 93.7938 92.7239V92.7239Z" fill="#B2381B"/>
<path d="M76.9941 95.5307L73.4632 86.8703C73.4632 86.8703 72.0228 86.9924 69.74 86.4918C69.5897 88.7176 69.4265 91.0347 69.2493 93.4361C71.5948 94.4112 74.1739 95.1499 76.9941 95.5307Z" fill="#B2381B"/>
<path d="M102.256 81.3421C101.535 80.7568 100.472 80.8943 99.9205 81.6416C92.0704 92.2839 83.4051 93.15 81.1093 93.182C79.5348 71.7222 79.0095 55.9471 78.8671 50.7274C78.8386 49.6866 77.9867 48.859 76.9453 48.859C75.9041 48.859 75.0519 49.6866 75.0234 50.7274C74.9674 52.7776 74.8523 56.4583 74.638 61.47C72.4619 60.2572 66.9434 56.2583 64.9952 46.1434C64.8481 45.38 64.0894 44.8958 63.3334 45.0783C62.6835 45.2352 62.2413 45.8378 62.2903 46.5045C62.5639 50.2343 64.2262 62.0793 74.275 69.2013C73.6304 81.8634 72.4899 99.558 70.5041 119.748H83.3857C82.736 113.142 82.1769 106.803 81.6959 100.82C93.8867 97.1851 100.629 86.9456 102.646 83.4089C103.04 82.7174 102.874 81.8436 102.256 81.3421V81.3421Z" fill="#D85E41"/>
<path d="M73.463 86.8702L73.2349 86.7383C72.5773 96.4869 71.692 107.67 70.5042 119.748H83.3857C82.736 113.141 82.1769 106.803 81.696 100.819C74.1316 96.4406 73.463 86.8702 73.463 86.8702Z" fill="#C04A27"/>
<path d="M132.038 104.516C133.384 105.867 134.971 107.117 136.853 108.165L136.767 101.617C136.767 101.617 134.677 100.991 132.332 98.6968C132.246 100.514 132.148 102.456 132.038 104.516Z" fill="#C04A27"/>
<path d="M141.789 115.499C140.766 99.4479 140.385 87.8722 140.267 83.5465C140.238 82.5057 139.386 81.6781 138.345 81.6781C137.304 81.6781 136.452 82.5057 136.423 83.5465C136.305 87.8722 135.924 99.4479 134.901 115.499H141.789Z" fill="#D85E41"/>
<path d="M100 133.532H136.147L136.148 133.533C143.673 127.808 149.801 120.342 153.926 111.732C127.872 112.441 113.936 117.884 100 123.326V133.532Z" fill="#85D249"/>
<path d="M112.216 118.776C107.956 120.22 103.978 121.773 100 123.327V133.533H136.147L112.216 118.777L112.216 118.776Z" fill="#60B550"/>
<path d="M136.147 133.532C126.109 141.168 113.585 145.703 100 145.703C76.2304 145.703 55.7028 131.826 46.0737 111.732C91.5348 112.969 100.101 128.618 136.147 133.532V133.532Z" fill="#A3EA6E"/>
<path d="M54.5588 112.155C51.8766 111.957 49.0552 111.813 46.0737 111.732C55.7028 131.826 76.2304 145.703 100 145.703C113.585 145.703 126.109 141.168 136.147 133.532C95.7184 145.875 65.6815 128.427 54.5588 112.155V112.155Z" fill="#85D249"/>
<defs>
<filter id="filter0_d" x="9" y="90" width="100.803" height="109.132" filterUnits="userSpaceOnUse" color-interpolation-filters="sRGB">
<feFlood flood-opacity="0" result="BackgroundImageFix"/>
<feColorMatrix in="SourceAlpha" type="matrix" values="0 0 0 0 0 0 0 0 0 0 0 0 0 0 0 0 0 0 127 0"/>
<feOffset dy="4"/>
<feGaussianBlur stdDeviation="2"/>
<feColorMatrix type="matrix" values="0 0 0 0 0 0 0 0 0 0 0 0 0 0 0 0 0 0 0.25 0"/>
<feBlend mode="normal" in2="BackgroundImageFix" result="effect1_dropShadow"/>
<feBlend mode="normal" in="SourceGraphic" in2="effect1_dropShadow" result="shape"/>
</filter>
<filter id="filter1_d" x="91.0005" y="90" width="100.803" height="109.132" filterUnits="userSpaceOnUse" color-interpolation-filters="sRGB">
<feFlood flood-opacity="0" result="BackgroundImageFix"/>
<feColorMatrix in="SourceAlpha" type="matrix" values="0 0 0 0 0 0 0 0 0 0 0 0 0 0 0 0 0 0 127 0"/>
<feOffset dy="4"/>
<feGaussianBlur stdDeviation="2"/>
<feColorMatrix type="matrix" values="0 0 0 0 0 0 0 0 0 0 0 0 0 0 0 0 0 0 0.25 0"/>
<feBlend mode="normal" in2="BackgroundImageFix" result="effect1_dropShadow"/>
<feBlend mode="normal" in="SourceGraphic" in2="effect1_dropShadow" result="shape"/>
</filter>
<filter id="filter2_d" x="17.875" y="7.81238" width="164.25" height="162.174" filterUnits="userSpaceOnUse" color-interpolation-filters="sRGB">
<feFlood flood-opacity="0" result="BackgroundImageFix"/>
<feColorMatrix in="SourceAlpha" type="matrix" values="0 0 0 0 0 0 0 0 0 0 0 0 0 0 0 0 0 0 127 0"/>
<feOffset dy="4"/>
<feGaussianBlur stdDeviation="2"/>
<feColorMatrix type="matrix" values="0 0 0 0 0 0 0 0 0 0 0 0 0 0 0 0 0 0 0.25 0"/>
<feBlend mode="normal" in2="BackgroundImageFix" result="effect1_dropShadow"/>
<feBlend mode="normal" in="SourceGraphic" in2="effect1_dropShadow" result="shape"/>
</filter>
</defs>
</svg>
