<svg width="200" height="264" viewBox="0 0 200 264" fill="none" xmlns="http://www.w3.org/2000/svg">
<path d="M100 200C155.228 200 200 155.228 200 100C200 44.7715 155.228 0 100 0C44.7715 0 0 44.7715 0 100C0 155.228 44.7715 200 100 200Z" fill="#AACCAA"/>
<g filter="url(#filter0_d)">
<path d="M59.9572 189.321L48.2158 166.727C47.0096 164.406 44.5662 162.995 41.9529 163.111L16.5158 164.239C13.8642 164.357 12.1291 161.5 13.456 159.201L53.4092 90L105.803 120.25L65.8502 189.451C64.5232 191.75 61.181 191.676 59.9572 189.321Z" fill="#D0D0D0"/>
</g>
<path d="M31.9006 127.255C43.8831 143.931 61.5612 156.235 82.0885 161.327L105.804 120.251L53.4096 90.001L31.9006 127.255Z" fill="#D0D0D0"/>
<path d="M41.9531 163.111C44.5664 162.995 47.0098 164.406 48.216 166.727L51.7535 173.535L88.3387 110.167L70.8738 100.084L34.2891 163.452L41.9531 163.111Z" fill="#FFE400"/>
<path d="M62.9671 154.113L88.339 110.167L70.8741 100.084L46.2007 142.82C51.3136 147.196 56.9378 150.991 62.9671 154.113Z" fill="#FEBB00"/>
<g filter="url(#filter1_d)">
<path d="M140.847 189.321L152.588 166.727C153.794 164.406 156.238 162.995 158.851 163.111L184.288 164.239C186.94 164.357 188.675 161.5 187.348 159.201L147.395 90L95.0005 120.25L134.954 189.451C136.281 191.75 139.623 191.676 140.847 189.321Z" fill="#D0D0D0"/>
</g>
<path d="M95 120.25L118.715 161.326C139.243 156.235 156.921 143.931 168.903 127.255L147.394 90.0005L95 120.25Z" fill="#D0D0D0"/>
<path d="M158.851 163.111C156.237 162.995 153.794 164.406 152.588 166.727L149.05 173.535L112.465 110.167L129.93 100.084L166.515 163.452L158.851 163.111Z" fill="#FFE400"/>
<path d="M154.603 142.82L129.93 100.084L112.465 110.167L137.837 154.113C143.866 150.991 149.49 147.196 154.603 142.82Z" fill="#FEBB00"/>
<g filter="url(#filter2_d)">
<path d="M178.125 84.8991C178.125 89.4366 174.69 93.6178 173.933 97.9385C173.155 102.382 174.942 107.482 173.433 111.627C171.897 115.845 167.236 118.599 165.017 122.434C162.778 126.305 162.708 131.714 159.848 135.119C156.981 138.533 151.662 139.535 148.248 142.402C144.844 145.262 142.939 150.329 139.068 152.569C135.234 154.787 129.897 153.918 125.679 155.453C121.534 156.962 118.011 161.072 113.568 161.85C109.247 162.607 104.537 159.96 99.9996 159.96C95.4621 159.96 90.7523 162.607 86.4316 161.85C81.9883 161.072 78.4648 156.962 74.3203 155.453C70.102 153.918 64.7656 154.787 60.9309 152.568C57.0598 150.329 55.1555 145.261 51.7512 142.401C48.3371 139.534 43.0188 138.532 40.1508 135.117C37.2914 131.713 37.2215 126.304 34.982 122.433C32.7633 118.598 28.102 115.844 26.5664 111.626C25.0574 107.482 26.8449 102.382 26.0664 97.9381C25.3102 93.6178 21.875 89.4366 21.875 84.8991C21.875 80.3616 25.3102 76.1803 26.0672 71.8596C26.8453 67.4163 25.0582 62.3163 26.5672 58.1714C28.1027 53.953 32.7641 51.1991 34.9828 47.3639C37.2223 43.4928 37.2922 38.0839 40.1516 34.6796C43.0191 31.2655 48.3379 30.2635 51.752 27.396C55.1562 24.5366 57.0605 19.469 60.9316 17.2296C64.7664 15.0108 70.1027 15.8803 74.3211 14.3448C78.4656 12.8358 81.9891 8.72643 86.4324 7.94831C90.7531 7.19167 95.4629 9.83776 100 9.83776C104.538 9.83776 109.248 7.19167 113.568 7.94831C118.012 8.72643 121.535 12.8362 125.68 14.3448C129.898 15.8803 135.234 15.0108 139.069 17.2299C142.94 19.4694 144.845 24.537 148.249 27.3967C151.663 30.2643 156.981 31.2667 159.849 34.6807C162.709 38.085 162.779 43.494 165.018 47.3651C167.237 51.1999 171.898 53.9542 173.434 58.1721C174.943 62.3167 173.155 67.4167 173.934 71.86C174.69 76.1807 178.125 80.3616 178.125 84.8991Z" fill="#D0D0D0"/>
</g>
<path d="M100 150.004C135.956 150.004 165.104 120.855 165.104 84.8992C165.104 48.9431 135.956 19.7949 100 19.7949C64.0439 19.7949 34.8958 48.9431 34.8958 84.8992C34.8958 120.855 64.0439 150.004 100 150.004Z" fill="#60B550"/>
<path d="M100 143.493C132.36 143.493 158.594 117.26 158.594 84.8992C158.594 52.5387 132.36 26.3054 100 26.3054C67.6396 26.3054 41.4062 52.5387 41.4062 84.8992C41.4062 117.26 67.6396 143.493 100 143.493Z" fill="#AACCAA"/>
<path d="M51.7538 94.7161H40.8778C41.7624 100.726 43.5397 106.444 46.0737 111.732L121.341 130.955L157.378 69.1707C150.129 44.3252 127.186 26.1719 100 26.1719C80.1863 26.1719 62.6276 35.8163 51.7538 50.6641V94.7161Z" fill="#85FAF4"/>
<path d="M79.9358 93.4119C79.0178 95.1334 78.8488 97.2369 79.6535 99.1802C80.4585 101.124 82.0654 102.491 83.9319 103.059C83.7426 105.001 84.3914 107.009 85.8787 108.496C87.3661 109.984 89.3741 110.632 91.3158 110.443C91.884 112.31 93.2519 113.917 95.1949 114.722C97.138 115.527 99.2415 115.357 100.963 114.439C102.202 115.946 104.081 116.908 106.184 116.908C108.288 116.908 110.166 115.946 111.405 114.439C113.127 115.357 115.23 115.526 117.174 114.722C119.117 113.917 120.485 112.31 121.053 110.443C122.995 110.633 125.003 109.984 126.49 108.496C127.977 107.009 128.626 105.001 128.437 103.059C130.303 102.491 131.91 101.123 132.715 99.1802C133.52 97.2371 133.351 95.1337 132.433 93.4119C133.94 92.1727 134.901 90.2941 134.901 88.1908C134.901 86.0876 133.94 84.2089 132.433 82.9697C133.351 81.2482 133.52 79.1447 132.715 77.2014C131.91 75.2583 130.303 73.8905 128.437 73.3222C128.626 71.3806 127.977 69.3723 126.49 67.8852C125.003 66.3978 122.995 65.7493 121.053 65.9384C120.485 64.0719 119.117 62.465 117.174 61.66C115.231 60.855 113.127 61.0243 111.405 61.9423C110.166 60.4353 108.288 59.4741 106.184 59.4741C104.081 59.4741 102.202 60.4353 100.963 61.9423C99.2417 61.0243 97.1383 60.8553 95.1949 61.66C93.2516 62.465 91.884 64.0719 91.3158 65.9384C89.3739 65.749 87.3659 66.3978 85.8787 67.8852C84.3914 69.3723 83.7428 71.3806 83.9319 73.3222C82.0654 73.8905 80.4585 75.2583 79.6535 77.2014C78.8486 79.1445 79.0178 81.248 79.9358 82.9697C78.4288 84.2089 77.4677 86.0876 77.4677 88.1908C77.4677 90.2941 78.429 92.1727 79.9358 93.4119Z" fill="#389F4D"/>
<path d="M109.628 127.709C108.605 111.658 108.224 100.082 108.106 95.7563C108.078 94.7156 107.226 93.8879 106.184 93.8879C105.143 93.8879 104.291 94.7156 104.263 95.7563C104.145 100.082 103.764 111.658 102.741 127.709H109.628Z" fill="#B2381B"/>
<path d="M101.929 61.8688C101.062 63.4946 100.902 65.4811 101.662 67.3164C102.422 69.1516 103.94 70.4433 105.703 70.98C105.524 72.8139 106.137 74.7103 107.541 76.115C108.946 77.5195 110.842 78.1323 112.676 77.9535C113.213 79.7161 114.505 81.2338 116.34 81.994C118.175 82.7541 120.161 82.5944 121.787 81.7276C122.958 83.1507 124.732 84.0584 126.718 84.0584C128.704 84.0584 130.479 83.1507 131.649 81.7276C133.275 82.5944 135.261 82.7541 137.097 81.994C138.932 81.2338 140.224 79.7161 140.76 77.9535C142.594 78.1323 144.491 77.5195 145.895 76.115C147.3 74.7105 147.913 72.8139 147.734 70.98C149.496 70.4433 151.014 69.1516 151.774 67.3164C152.534 65.4811 152.375 63.4946 151.508 61.8688C152.931 60.6985 153.839 58.9242 153.839 56.9379C153.839 54.9516 152.931 53.1773 151.508 52.007C152.375 50.3812 152.534 48.3947 151.774 46.5595C151.014 44.7242 149.496 43.4325 147.734 42.8958C147.913 41.062 147.3 39.1656 145.895 37.7608C144.491 36.3561 142.594 35.7435 140.76 35.9223C140.224 34.1597 138.932 32.642 137.097 31.8819C135.261 31.1217 133.275 31.2814 131.649 32.1482C130.479 30.7251 128.704 29.8174 126.718 29.8174C124.732 29.8174 122.958 30.7251 121.787 32.1482C120.161 31.2814 118.175 31.1217 116.34 31.8819C114.505 32.642 113.213 34.1597 112.676 35.9223C110.842 35.7435 108.946 36.3561 107.541 37.7608C106.137 39.1653 105.524 41.0617 105.703 42.8958C103.94 43.4325 102.422 44.7242 101.662 46.5595C100.902 48.3947 101.062 50.3812 101.929 52.007C100.505 53.1773 99.5977 54.9516 99.5977 56.9379C99.5977 58.9242 100.506 60.6982 101.929 61.8688Z" fill="#A3EA6E"/>
<path d="M107.541 37.7608C106.137 39.1653 105.524 41.0617 105.703 42.8958C103.94 43.4325 102.422 44.7242 101.662 46.5592C100.902 48.3944 101.062 50.3809 101.929 52.0068C100.505 53.1771 99.5977 54.9514 99.5977 56.9377C99.5977 58.9239 100.505 60.6982 101.929 61.8686C101.062 63.4944 100.902 65.4809 101.662 67.3161C102.422 69.1513 103.94 70.4431 105.703 70.9798C105.524 72.8136 106.137 74.71 107.541 76.1147C108.946 77.5192 110.842 78.132 112.676 77.9532C113.213 79.7158 114.505 81.2336 116.34 81.9937C118.175 82.7538 120.161 82.5942 121.787 81.7273C122.958 83.1505 124.732 84.0582 126.718 84.0582C128.704 84.0582 130.479 83.1505 131.649 81.7273C132.137 81.9876 132.658 82.1826 133.197 82.3096C133.197 74.5274 133.197 66.5359 133.197 64.1247C133.197 59.004 129.766 56.0547 120.078 52.4361C110.389 48.8175 110.973 41.3468 112.676 35.9223C110.842 35.7437 108.946 36.3563 107.541 37.7608Z" fill="#85D249"/>
<path d="M130.162 81.4563C129.139 65.4048 128.758 53.8292 128.64 49.5034C128.611 48.4626 127.759 47.635 126.718 47.635C125.677 47.635 124.824 48.4626 124.796 49.5034C124.678 53.8292 124.297 65.4048 123.274 81.4563H130.162Z" fill="#C04A27"/>
<path d="M152.042 112.027L153.922 111.733C157.665 103.923 159.766 95.1763 159.766 85.9376C159.766 80.1163 158.93 74.4906 157.378 69.1705C156.069 68.2876 154.518 67.9175 153.007 68.0651C152.446 66.2247 151.098 64.64 149.181 63.8465C147.265 63.0527 145.191 63.2196 143.493 64.1247C142.272 62.6388 140.419 61.6909 138.345 61.6909C136.271 61.6909 134.418 62.6388 133.196 64.1247C131.499 63.2196 129.425 63.0529 127.508 63.8465C125.592 64.64 124.244 66.2247 123.683 68.0651C121.768 67.8785 119.788 68.5182 118.322 69.9848C116.855 71.4514 116.216 73.4314 116.402 75.3462C114.562 75.9065 112.977 77.2552 112.184 79.1714C111.39 81.0877 111.557 83.1617 112.462 84.8595C110.976 86.0814 110.028 87.9339 110.028 90.0079C110.028 92.082 110.976 93.9345 112.462 95.1564C111.557 96.8539 111.39 98.9282 112.184 100.844C112.977 102.761 114.562 104.109 116.402 104.67C116.216 106.584 116.855 108.564 118.322 110.031C119.788 111.498 121.768 112.137 123.683 111.951C124.244 113.791 125.592 115.376 127.508 116.169C129.425 116.963 131.499 116.796 133.196 115.891C134.418 117.377 136.271 118.325 138.345 118.325C140.419 118.325 142.272 117.377 143.493 115.891C145.191 116.796 147.265 116.963 149.181 116.169C150.772 115.511 151.969 114.306 152.652 112.864L152.042 112.027Z" fill="#85D249"/>
<path d="M152.042 112.027L153.922 111.733C155.733 107.954 157.159 103.957 158.149 99.7893C153.278 92.5635 143.343 93.2067 134.901 90.0076C124.9 86.2179 126.07 72.0079 133.197 64.1246C131.499 63.2195 129.425 63.0528 127.509 63.8464C125.592 64.6399 124.244 66.2246 123.683 68.065C121.769 67.8784 119.789 68.5181 118.322 69.9847C116.855 71.4513 116.216 73.4313 116.403 75.3461C114.562 75.9064 112.978 77.2551 112.184 79.1714C111.39 81.0876 111.557 83.1616 112.462 84.8594C110.976 86.0813 110.028 87.9338 110.028 90.0078C110.028 92.0819 110.976 93.9344 112.462 95.1563C111.557 96.8538 111.39 98.9281 112.184 100.844C112.978 102.761 114.562 104.109 116.403 104.67C116.216 106.584 116.856 108.564 118.322 110.031C119.789 111.498 121.769 112.137 123.683 111.951C124.244 113.791 125.592 115.376 127.509 116.169C129.425 116.963 131.499 116.796 133.197 115.891C134.419 117.377 136.271 118.325 138.345 118.325C140.419 118.325 142.272 117.377 143.494 115.891C145.191 116.796 147.265 116.963 149.182 116.169C150.772 115.51 151.97 114.306 152.652 112.864L152.042 112.027Z" fill="#60B550"/>
<path d="M119.089 70.9188C119.264 70.2677 119.358 69.5839 119.358 68.8776C119.358 65.58 117.323 62.7596 114.44 61.5993C113.917 58.0288 110.988 55.2417 107.353 54.9326C106.097 52.2733 103.392 50.4325 100.256 50.4325C99.9148 50.4325 99.5796 50.4567 99.2499 50.4988C97.8153 48.6423 95.5683 47.4456 93.0408 47.4456C92.2417 47.4456 91.4706 47.5658 90.7443 47.7881C89.344 46.4868 87.4686 45.6897 85.4062 45.6897C84.0573 45.6897 82.7882 46.0304 81.6797 46.6301C80.3637 45.6323 78.7239 45.0396 76.9452 45.0396C75.1665 45.0396 73.5266 45.6325 72.2106 46.6301C71.1019 46.0306 69.8328 45.6897 68.4841 45.6897C66.4218 45.6897 64.5464 46.4868 63.1461 47.7881C62.4196 47.5658 61.6487 47.4456 60.8496 47.4456C58.3219 47.4456 56.0751 48.6423 54.6405 50.4988C54.3108 50.4565 53.9756 50.4325 53.6345 50.4325C52.9857 50.4325 52.3568 50.5153 51.7537 50.6638C44.513 60.5508 40.2344 72.7437 40.2344 85.9375C40.2344 88.9202 40.4559 91.8505 40.8778 94.716C42.1805 96.4957 44.2139 97.7064 46.5378 97.9039C47.7933 100.563 50.4984 102.404 53.6345 102.404C53.9756 102.404 54.3108 102.38 54.6405 102.338C56.0751 104.194 58.3221 105.391 60.8496 105.391C61.6487 105.391 62.4198 105.271 63.1461 105.048C64.5464 106.35 66.4218 107.147 68.4841 107.147C69.8331 107.147 71.1022 106.806 72.2106 106.206C73.5266 107.204 75.1665 107.797 76.9452 107.797C78.7239 107.797 80.3637 107.204 81.6797 106.206C82.7884 106.806 84.0575 107.147 85.4062 107.147C87.4686 107.147 89.344 106.35 90.7443 105.048C91.4708 105.271 92.2417 105.391 93.0408 105.391C95.5685 105.391 97.8153 104.194 99.2499 102.338C99.5796 102.38 99.9148 102.404 100.256 102.404C103.392 102.404 106.097 100.563 107.353 97.9039C110.988 97.595 113.917 94.8078 114.44 91.2372C117.323 90.0772 119.358 87.2565 119.358 83.9589C119.358 83.2527 119.264 82.5686 119.089 81.9178C120.481 80.5021 121.341 78.5609 121.341 76.4182C121.341 74.2757 120.481 72.3345 119.089 70.9188Z" fill="#60B550"/>
<path d="M96.3853 86.7095C96.3853 86.7095 90.9172 82.0151 92.622 71.3593C92.7242 70.7196 92.268 70.1243 91.6242 70.0519C91.0695 69.9896 90.5523 70.3365 90.4004 70.8734C89.5293 73.9535 87.3673 84.1398 93.7939 92.7239L96.3853 86.7095Z" fill="#C04A27"/>
<path d="M52.1558 58.2231C51.289 59.8489 51.1293 61.8354 51.8894 63.6706C52.6496 65.5058 54.1673 66.7976 55.9299 67.3343C55.7511 69.1681 56.3639 71.0645 57.7684 72.4692C59.1729 73.8737 61.0695 74.4866 62.9033 74.3077C63.4401 76.0704 64.7318 77.5881 66.567 78.3482C68.4022 79.1084 70.3888 78.9487 72.0146 78.0818C73.1849 79.505 74.9592 80.4127 76.9455 80.4127C78.9317 80.4127 80.706 79.505 81.8764 78.0818C83.5022 78.9487 85.4887 79.1084 87.3239 78.3482C89.1591 77.5881 90.4509 76.0704 90.9876 74.3077C92.8214 74.4866 94.7178 73.8737 96.1225 72.4692C97.527 71.0648 98.1399 69.1681 97.961 67.3343C99.7236 66.7976 101.241 65.5058 102.002 63.6706C102.762 61.8354 102.602 59.8489 101.735 58.2231C103.158 57.0527 104.066 55.2785 104.066 53.2922C104.066 51.3059 103.158 49.5316 101.735 48.3613C102.602 46.7355 102.762 44.749 102.002 42.9137C101.241 41.0785 99.7236 39.7868 97.961 39.25C98.1399 37.4162 97.527 35.5198 96.1225 34.1151C94.718 32.7104 92.8216 32.0978 90.9876 32.2766C90.4509 30.514 89.1591 28.9963 87.3239 28.2361C85.4887 27.476 83.5022 27.6357 81.8764 28.5025C80.7058 27.0796 78.9315 26.1719 76.9452 26.1719C74.959 26.1719 73.1847 27.0796 72.0143 28.5027C70.3885 27.6359 68.402 27.4762 66.5668 28.2364C64.7316 28.9965 63.4398 30.514 62.9031 32.2768C61.0693 32.098 59.1729 32.7106 57.7682 34.1153C56.3637 35.5198 55.7508 37.4162 55.9297 39.2503C54.1671 39.787 52.6493 41.0787 51.8892 42.914C51.129 44.7492 51.2887 46.7357 52.1556 48.3615C50.7324 49.5318 49.8247 51.3061 49.8247 53.2924C49.8247 55.2787 50.7329 57.0527 52.1558 58.2231Z" fill="#A3EA6E"/>
<path d="M57.7684 34.1151C56.3639 35.5196 55.7511 37.4162 55.9299 39.25C54.1673 39.7867 52.6496 41.0785 51.8894 42.9137C51.1293 44.7489 51.289 46.7354 52.1558 48.3612C50.7326 49.5316 49.825 51.3059 49.825 53.2921C49.825 55.2784 50.7326 57.0527 52.1558 58.223C51.289 59.8488 51.1293 61.8354 51.8894 63.6706C52.6496 65.5058 54.1673 66.7975 55.9299 67.3343C55.7511 69.1681 56.3639 71.0645 57.7684 72.4692C59.1729 73.8739 61.0693 74.4865 62.9034 74.3077C63.4401 76.0703 64.7318 77.588 66.567 78.3482C68.4023 79.1083 70.3888 78.9486 72.0146 78.0818C73.1849 79.505 74.9592 80.4127 76.9455 80.4127C78.9318 80.4127 80.7061 79.505 81.8764 78.0818C83.5022 78.9486 85.4887 79.1083 87.3239 78.3482C89.1592 77.588 90.4509 76.0703 90.9876 74.3077C85.7098 70.6151 83.8914 64.8094 88.5606 55.5877C93.2298 46.3661 84.8252 38.8954 76.0705 42.2805C67.3157 45.6657 60.7789 39.7125 62.9031 32.2766C61.0693 32.098 59.1729 32.7106 57.7684 34.1151Z" fill="#85D249"/>
<path d="M136.767 101.617C136.767 101.617 129.86 99.5604 127.071 89.1357C126.903 88.5098 126.244 88.1524 125.627 88.3489C125.095 88.5182 124.764 89.0458 124.844 89.5982C125.305 92.7658 127.485 102.948 136.853 108.165L136.767 101.617Z" fill="#D85E41"/>
<path d="M73.463 86.8702C73.463 86.8702 63.2118 87.7389 54.0674 75.3419C53.5162 74.5946 52.4528 74.4569 51.7319 75.0424C51.1142 75.5439 50.9479 76.4177 51.342 77.1087C53.6049 81.0766 61.8146 93.4813 76.9939 95.5303L73.463 86.8702Z" fill="#C04A27"/>
<path d="M93.7938 92.7241L96.3852 86.7097C96.3852 86.7097 95.0946 85.5975 93.9628 83.2351C92.7701 84.4297 91.5901 85.403 90.4548 86.1965C91.1428 88.3827 92.2053 90.6024 93.7938 92.7241Z" fill="#B2381B"/>
<path d="M76.9942 95.5306L73.4633 86.8701C73.4633 86.8701 72.0229 86.9922 69.7401 86.4917C69.5898 88.7175 69.4266 91.0346 69.2494 93.436C71.595 94.4111 74.174 95.1498 76.9942 95.5306Z" fill="#B2381B"/>
<path d="M102.256 81.3421C101.535 80.7568 100.472 80.8943 99.9206 81.6416C92.0705 92.2839 83.4052 93.15 81.1094 93.182C79.5349 71.7222 79.0097 55.9471 78.8672 50.7274C78.8388 49.6866 77.9869 48.859 76.9454 48.859C75.9042 48.859 75.052 49.6866 75.0236 50.7274C74.9675 52.7776 74.8524 56.4583 74.6381 61.47C72.462 60.2572 66.9435 56.2583 64.9953 46.1434C64.8482 45.38 64.0895 44.8958 63.3335 45.0783C62.6836 45.2352 62.2414 45.8378 62.2904 46.5045C62.5641 50.2343 64.2263 62.0793 74.2751 69.2013C73.6305 81.8634 72.4901 99.558 70.5043 119.748H83.3859C82.7361 113.142 82.177 106.803 81.6961 100.82C93.8869 97.1851 100.629 86.9456 102.646 83.4089C103.04 82.7174 102.874 81.8436 102.256 81.3421Z" fill="#D85E41"/>
<path d="M73.4631 86.8702L73.235 86.7383C72.5774 96.4869 71.6921 107.67 70.5043 119.748H83.3859C82.7362 113.141 82.177 106.803 81.6961 100.819C74.1318 96.4406 73.4631 86.8702 73.4631 86.8702Z" fill="#C04A27"/>
<path d="M132.038 104.516C133.384 105.867 134.971 107.117 136.853 108.165L136.767 101.617C136.767 101.617 134.677 100.991 132.332 98.6968C132.246 100.514 132.148 102.456 132.038 104.516Z" fill="#C04A27"/>
<path d="M141.789 115.499C140.766 99.4478 140.385 87.8721 140.267 83.5464C140.238 82.5056 139.386 81.678 138.345 81.678C137.304 81.678 136.452 82.5056 136.423 83.5464C136.305 87.8721 135.924 99.4478 134.901 115.499H141.789Z" fill="#D85E41"/>
<path d="M100 133.532H136.147L136.148 133.533C143.673 127.808 149.801 120.342 153.926 111.732C127.872 112.441 113.936 117.884 100 123.326V133.532Z" fill="#85D249"/>
<path d="M112.216 118.776C107.956 120.22 103.978 121.773 100 123.326V133.532H136.147L112.216 118.777L112.216 118.776Z" fill="#60B550"/>
<path d="M136.147 133.532C126.109 141.168 113.585 145.703 100 145.703C76.2305 145.703 55.7029 131.826 46.0739 111.732C91.535 112.969 100.101 128.618 136.147 133.532Z" fill="#A3EA6E"/>
<path d="M54.5589 112.155C51.8767 111.957 49.0554 111.813 46.0739 111.732C55.7029 131.826 76.2305 145.703 100 145.703C113.585 145.703 126.109 141.168 136.147 133.532C95.7186 145.875 65.6817 128.427 54.5589 112.155Z" fill="#85D249"/>
<rect width="200" height="64" transform="translate(0 200)" fill="#AACCAA"/>
<path d="M40.7048 224.48V231.14H52.3688V235.82H40.7048V245H34.8728V219.8H53.9168V224.48H40.7048ZM64.7536 225.344C67.7536 225.344 70.0576 226.064 71.6656 227.504C73.2736 228.92 74.0776 231.068 74.0776 233.948V245H68.8216V242.588C67.7656 244.388 65.7976 245.288 62.9176 245.288C61.4296 245.288 60.1336 245.036 59.0296 244.532C57.9496 244.028 57.1216 243.332 56.5456 242.444C55.9696 241.556 55.6816 240.548 55.6816 239.42C55.6816 237.62 56.3536 236.204 57.6976 235.172C59.0656 234.14 61.1656 233.624 63.9976 233.624H68.4616C68.4616 232.4 68.0896 231.464 67.3456 230.816C66.6016 230.144 65.4856 229.808 63.9976 229.808C62.9656 229.808 61.9456 229.976 60.9376 230.312C59.9536 230.624 59.1136 231.056 58.4176 231.608L56.4016 227.684C57.4576 226.94 58.7176 226.364 60.1816 225.956C61.6696 225.548 63.1936 225.344 64.7536 225.344ZM64.3216 241.508C65.2816 241.508 66.1336 241.292 66.8776 240.86C67.6216 240.404 68.1496 239.744 68.4616 238.88V236.9H64.6096C62.3056 236.9 61.1536 237.656 61.1536 239.168C61.1536 239.888 61.4296 240.464 61.9816 240.896C62.5576 241.304 63.3376 241.508 64.3216 241.508ZM84.5244 228.188C85.1964 227.252 86.0964 226.544 87.2244 226.064C88.3764 225.584 89.6964 225.344 91.1844 225.344V230.528C90.5604 230.48 90.1404 230.456 89.9244 230.456C88.3164 230.456 87.0564 230.912 86.1444 231.824C85.2324 232.712 84.7764 234.056 84.7764 235.856V245H79.1604V225.632H84.5244V228.188ZM119.328 225.344C121.752 225.344 123.672 226.064 125.088 227.504C126.528 228.92 127.248 231.056 127.248 233.912V245H121.632V234.776C121.632 233.24 121.308 232.1 120.66 231.356C120.036 230.588 119.136 230.204 117.96 230.204C116.64 230.204 115.596 230.636 114.828 231.5C114.06 232.34 113.676 233.6 113.676 235.28V245H108.06V234.776C108.06 231.728 106.836 230.204 104.388 230.204C103.092 230.204 102.06 230.636 101.292 231.5C100.524 232.34 100.14 233.6 100.14 235.28V245H94.5236V225.632H99.8876V227.864C100.608 227.048 101.484 226.424 102.516 225.992C103.572 225.56 104.724 225.344 105.972 225.344C107.34 225.344 108.576 225.62 109.68 226.172C110.784 226.7 111.672 227.48 112.344 228.512C113.136 227.504 114.132 226.724 115.332 226.172C116.556 225.62 117.888 225.344 119.328 225.344ZM151.464 235.388C151.464 235.46 151.428 235.964 151.356 236.9H136.704C136.968 238.1 137.592 239.048 138.576 239.744C139.56 240.44 140.784 240.788 142.248 240.788C143.256 240.788 144.144 240.644 144.912 240.356C145.704 240.044 146.436 239.564 147.108 238.916L150.096 242.156C148.272 244.244 145.608 245.288 142.104 245.288C139.92 245.288 137.988 244.868 136.308 244.028C134.628 243.164 133.332 241.976 132.42 240.464C131.508 238.952 131.052 237.236 131.052 235.316C131.052 233.42 131.496 231.716 132.384 230.204C133.296 228.668 134.532 227.48 136.092 226.64C137.676 225.776 139.44 225.344 141.384 225.344C143.28 225.344 144.996 225.752 146.532 226.568C148.068 227.384 149.268 228.56 150.132 230.096C151.02 231.608 151.464 233.372 151.464 235.388ZM141.42 229.592C140.148 229.592 139.08 229.952 138.216 230.672C137.352 231.392 136.824 232.376 136.632 233.624H146.172C145.98 232.4 145.452 231.428 144.588 230.708C143.724 229.964 142.668 229.592 141.42 229.592ZM160.567 228.188C161.239 227.252 162.139 226.544 163.267 226.064C164.419 225.584 165.739 225.344 167.227 225.344V230.528C166.603 230.48 166.183 230.456 165.967 230.456C164.359 230.456 163.099 230.912 162.187 231.824C161.275 232.712 160.819 234.056 160.819 235.856V245H155.203V225.632H160.567V228.188Z" fill="#1D295A"/>
<defs>
<filter id="filter0_d" x="9" y="90" width="100.803" height="109.132" filterUnits="userSpaceOnUse" color-interpolation-filters="sRGB">
<feFlood flood-opacity="0" result="BackgroundImageFix"/>
<feColorMatrix in="SourceAlpha" type="matrix" values="0 0 0 0 0 0 0 0 0 0 0 0 0 0 0 0 0 0 127 0"/>
<feOffset dy="4"/>
<feGaussianBlur stdDeviation="2"/>
<feColorMatrix type="matrix" values="0 0 0 0 0 0 0 0 0 0 0 0 0 0 0 0 0 0 0.25 0"/>
<feBlend mode="normal" in2="BackgroundImageFix" result="effect1_dropShadow"/>
<feBlend mode="normal" in="SourceGraphic" in2="effect1_dropShadow" result="shape"/>
</filter>
<filter id="filter1_d" x="91.0005" y="90" width="100.803" height="109.132" filterUnits="userSpaceOnUse" color-interpolation-filters="sRGB">
<feFlood flood-opacity="0" result="BackgroundImageFix"/>
<feColorMatrix in="SourceAlpha" type="matrix" values="0 0 0 0 0 0 0 0 0 0 0 0 0 0 0 0 0 0 127 0"/>
<feOffset dy="4"/>
<feGaussianBlur stdDeviation="2"/>
<feColorMatrix type="matrix" values="0 0 0 0 0 0 0 0 0 0 0 0 0 0 0 0 0 0 0.25 0"/>
<feBlend mode="normal" in2="BackgroundImageFix" result="effect1_dropShadow"/>
<feBlend mode="normal" in="SourceGraphic" in2="effect1_dropShadow" result="shape"/>
</filter>
<filter id="filter2_d" x="17.875" y="7.81226" width="164.25" height="162.174" filterUnits="userSpaceOnUse" color-interpolation-filters="sRGB">
<feFlood flood-opacity="0" result="BackgroundImageFix"/>
<feColorMatrix in="SourceAlpha" type="matrix" values="0 0 0 0 0 0 0 0 0 0 0 0 0 0 0 0 0 0 127 0"/>
<feOffset dy="4"/>
<feGaussianBlur stdDeviation="2"/>
<feColorMatrix type="matrix" values="0 0 0 0 0 0 0 0 0 0 0 0 0 0 0 0 0 0 0.25 0"/>
<feBlend mode="normal" in2="BackgroundImageFix" result="effect1_dropShadow"/>
<feBlend mode="normal" in="SourceGraphic" in2="effect1_dropShadow" result="shape"/>
</filter>
</defs>
</svg>
