<svg width="40" height="40" viewBox="0 0 40 40" fill="none" xmlns="http://www.w3.org/2000/svg">
<path d="M20 35C28.2843 35 35 28.2843 35 20C35 11.7157 28.2843 5 20 5C11.7157 5 5 11.7157 5 20C5 28.2843 11.7157 35 20 35Z" fill="#039BE5"/>
<path d="M11.8638 19.6749L26.3263 14.0986C26.9976 13.8561 27.5838 14.2624 27.3663 15.2774L27.3676 15.2761L24.9051 26.8774C24.7226 27.6999 24.2338 27.8999 23.5501 27.5124L19.8001 24.7486L17.9913 26.4911C17.7913 26.6911 17.6226 26.8599 17.2351 26.8599L17.5013 23.0436L24.4513 16.7649C24.7538 16.4986 24.3838 16.3486 23.9851 16.6136L15.3963 22.0211L11.6938 20.8661C10.8901 20.6111 10.8726 20.0624 11.8638 19.6749V19.6749Z" fill="white"/>
</svg>
