<svg width="900" height="650" viewBox="0 0 984 587" fill="none" xmlns="http://www.w3.org/2000/svg">
<g clip-path="url(#clip0)">
<path d="M700.929 564.049L620.507 580.51L618.674 580.323L548 573.19V483.627L634.516 469L697.275 476.319L697.298 476.716V476.903L700.929 564.049Z" fill="#E6E6E6"/>
<path opacity="0.1" d="M700.929 564.049L620.507 580.51L618.674 580.323V488.507L697.298 476.716L700.929 564.049Z" fill="black"/>
<path opacity="0.05" d="M697.298 476.903L697.275 476.926L618.674 488.507L548 483.627L634.516 469L697.275 476.319L697.298 476.716V476.903Z" fill="black"/>
<path d="M606.626 518.076L557.73 514.884L556.232 537.836L605.128 541.027L606.626 518.076Z" fill="white"/>
<path d="M594.662 524.811L568.717 523.117L568.196 531.1L594.141 532.794L594.662 524.811Z" fill="#6CC49A"/>
<path d="M768.929 569.049L688.507 585.51L686.674 585.323L616 578.19V488.627L702.516 474L765.275 481.319L765.298 481.716V481.903L768.929 569.049Z" fill="#6CC49A"/>
<path opacity="0.1" d="M768.929 569.049L688.507 585.51L686.674 585.323V493.507L765.298 481.716L768.929 569.049Z" fill="black"/>
<path opacity="0.05" d="M765.298 481.903L765.275 481.926L686.674 493.507L616 488.627L702.516 474L765.275 481.319L765.298 481.716V481.903Z" fill="black"/>
<path d="M674.626 523.076L625.73 519.884L624.232 542.836L673.128 546.027L674.626 523.076Z" fill="white"/>
<path d="M662.662 529.811L636.717 528.117L636.196 536.1L662.141 537.794L662.662 529.811Z" fill="#6CC49A"/>
<path d="M819.238 581.297C810.246 573.698 804.783 561.695 806.216 550.009C807.648 538.323 816.521 527.581 828.029 525.099C839.538 522.618 852.657 529.487 856.152 540.729C858.076 519.055 860.293 496.472 871.816 478.014C882.251 461.301 900.323 449.342 919.91 447.203C939.496 445.063 960.118 453.144 972.333 468.603C984.548 484.062 987.539 506.537 978.984 524.285C972.682 537.36 961.07 547.091 948.905 555.007C909.593 580.371 862.444 590.686 816.133 584.053" fill="#F2F2F2"/>
<path d="M952.964 453.592C936.803 466.755 921.977 481.477 908.7 497.546C887.922 522.606 871.109 550.704 858.845 580.86C857.947 583.06 861.519 584.017 862.407 581.842C882.473 532.833 914.506 489.636 955.577 456.204C957.421 454.702 954.794 452.102 952.964 453.592V453.592Z" fill="white"/>
<path d="M483.5 37C483.499 37.265 483.394 37.5189 483.206 37.7062C483.019 37.8936 482.765 37.9992 482.5 38H482.02C481.28 37.36 480.56 36.69 479.86 36H482.5C482.765 36.0008 483.019 36.1064 483.206 36.2938C483.394 36.4811 483.499 36.735 483.5 37Z" fill="#F2F2F2"/>
<path d="M507.5 7.62939e-06H256.5C254.644 0.00206952 252.865 0.74022 251.553 2.05253C250.24 3.36484 249.502 5.14413 249.5 7.00001V143C249.502 144.856 250.24 146.635 251.553 147.947C252.865 149.26 254.644 149.998 256.5 150H507.5C509.356 149.998 511.135 149.26 512.447 147.947C513.76 146.635 514.498 144.856 514.5 143V7.00001C514.498 5.14413 513.76 3.36484 512.447 2.05253C511.135 0.74022 509.356 0.00206952 507.5 7.62939e-06V7.62939e-06ZM512.5 143C512.499 144.326 511.973 145.597 511.035 146.535C510.097 147.473 508.826 147.999 507.5 148H256.5C255.174 147.999 253.903 147.473 252.965 146.535C252.027 145.597 251.501 144.326 251.5 143V7.00001C251.501 5.67409 252.027 4.40262 252.965 3.46505C253.903 2.52748 255.174 2.00054 256.5 2.00001H507.5C508.826 2.00054 510.097 2.52748 511.035 3.46505C511.973 4.40262 512.499 5.67409 512.5 7.00001V143Z" fill="#3F3D56"/>
<path d="M483.5 37C483.499 37.265 483.394 37.5189 483.206 37.7062C483.019 37.8936 482.765 37.9992 482.5 38H400.5C400.235 38 399.98 37.8946 399.793 37.7071C399.605 37.5196 399.5 37.2652 399.5 37C399.5 36.7348 399.605 36.4804 399.793 36.2929C399.98 36.1054 400.235 36 400.5 36H482.5C482.765 36.0008 483.019 36.1064 483.206 36.2938C483.394 36.4811 483.499 36.735 483.5 37V37Z" fill="#3F3D56"/>
<path d="M482.5 53H400.5C400.235 53 399.98 52.8946 399.793 52.7071C399.605 52.5196 399.5 52.2652 399.5 52C399.5 51.7348 399.605 51.4804 399.793 51.2929C399.98 51.1054 400.235 51 400.5 51H482.5C482.765 51 483.02 51.1054 483.207 51.2929C483.395 51.4804 483.5 51.7348 483.5 52C483.5 52.2652 483.395 52.5196 483.207 52.7071C483.02 52.8946 482.765 53 482.5 53Z" fill="#3F3D56"/>
<path d="M482.5 68H400.5C400.235 68 399.98 67.8946 399.793 67.7071C399.605 67.5196 399.5 67.2652 399.5 67C399.5 66.7348 399.605 66.4804 399.793 66.2929C399.98 66.1054 400.235 66 400.5 66H482.5C482.765 66 483.02 66.1054 483.207 66.2929C483.395 66.4804 483.5 66.7348 483.5 67C483.5 67.2652 483.395 67.5196 483.207 67.7071C483.02 67.8946 482.765 68 482.5 68Z" fill="#3F3D56"/>
<path d="M482.5 83H400.5C400.235 83 399.98 82.8946 399.793 82.7071C399.605 82.5196 399.5 82.2652 399.5 82C399.5 81.7348 399.605 81.4804 399.793 81.2929C399.98 81.1054 400.235 81 400.5 81H482.5C482.765 81 483.02 81.1054 483.207 81.2929C483.395 81.4804 483.5 81.7348 483.5 82C483.5 82.2652 483.395 82.5196 483.207 82.7071C483.02 82.8946 482.765 83 482.5 83Z" fill="#3F3D56"/>
<path d="M482.5 98H400.5C400.235 98 399.98 97.8946 399.793 97.7071C399.605 97.5196 399.5 97.2652 399.5 97C399.5 96.7348 399.605 96.4804 399.793 96.2929C399.98 96.1054 400.235 96 400.5 96H482.5C482.765 96 483.02 96.1054 483.207 96.2929C483.395 96.4804 483.5 96.7348 483.5 97C483.5 97.2652 483.395 97.5196 483.207 97.7071C483.02 97.8946 482.765 98 482.5 98Z" fill="#3F3D56"/>
<path d="M482.5 113H400.5C400.235 113 399.98 112.895 399.793 112.707C399.605 112.52 399.5 112.265 399.5 112C399.5 111.735 399.605 111.48 399.793 111.293C399.98 111.105 400.235 111 400.5 111H482.5C482.765 111 483.02 111.105 483.207 111.293C483.395 111.48 483.5 111.735 483.5 112C483.5 112.265 483.395 112.52 483.207 112.707C483.02 112.895 482.765 113 482.5 113Z" fill="#3F3D56"/>
<path d="M186.131 246.555C183.344 246.563 180.653 245.536 178.58 243.674C177.42 242.639 176.483 241.378 175.828 239.968C175.173 238.558 174.812 237.029 174.769 235.475L130.393 203.201C129.054 202.227 127.942 200.975 127.134 199.53C126.325 198.085 125.839 196.483 125.71 194.832C125.58 193.182 125.81 191.523 126.383 189.969C126.957 188.416 127.86 187.006 129.03 185.835L162.069 152.797C163.43 151.435 165.164 150.508 167.053 150.133C168.941 149.757 170.898 149.95 172.677 150.687C174.456 151.423 175.976 152.671 177.046 154.272C178.115 155.873 178.686 157.755 178.686 159.68C178.416 164.731 176.426 169.537 173.045 173.299L150.613 195.731L185.821 223.796C185.93 223.789 186.038 223.783 186.148 223.783C189.055 223.783 191.852 224.895 193.966 226.89C196.08 228.886 197.35 231.614 197.517 234.517C197.684 237.419 196.734 240.275 194.863 242.499C192.992 244.724 190.341 246.149 187.453 246.481C187.014 246.53 186.572 246.555 186.131 246.555V246.555Z" fill="#FFB8B8"/>
<path d="M238.863 437.183L250.77 432.738L239.291 384.695L221.717 391.256L238.863 437.183Z" fill="#FFB8B8"/>
<path d="M277.861 435.222L240.439 449.192L235.041 434.734L258.517 425.97C262.216 424.589 266.312 424.734 269.904 426.373C273.496 428.012 276.289 431.011 277.67 434.71L277.861 435.222V435.222Z" fill="#2F2E41"/>
<path d="M131.741 439.363H144.451L150.497 390.339L131.739 390.34L131.741 439.363Z" fill="#FFB8B8"/>
<path d="M168.963 451.164L129.018 451.165L129.017 435.732L154.075 435.731C158.024 435.731 161.81 437.299 164.602 440.091C167.394 442.882 168.963 446.669 168.963 450.617L168.963 451.164V451.164Z" fill="#2F2E41"/>
<path d="M145.459 425.986C145.316 425.986 145.173 425.979 145.029 425.965L131.557 424.682C130.464 424.578 129.447 424.078 128.697 423.276C127.947 422.475 127.516 421.426 127.485 420.329C126.707 391.153 124.749 243.9 162.642 210.156C163.299 209.578 164.114 209.21 164.981 209.099V209.098C171.845 208.157 195.001 205.85 204.803 215.709C205.425 216.33 205.856 217.116 206.044 217.974L248.952 416.362C249.084 416.972 249.088 417.603 248.963 418.215C248.837 418.827 248.586 419.406 248.225 419.916C247.864 420.425 247.4 420.854 246.865 421.174C246.329 421.495 245.732 421.701 245.112 421.778L228.661 423.834C228.067 423.909 227.464 423.865 226.887 423.704C226.31 423.542 225.772 423.267 225.303 422.895C224.834 422.523 224.444 422.06 224.156 421.535C223.868 421.01 223.689 420.433 223.627 419.837C221.99 403.89 212.154 322.887 179.192 294.174C178.745 293.782 178.208 293.508 177.628 293.378C177.049 293.247 176.446 293.265 175.875 293.428C175.316 293.583 174.805 293.879 174.392 294.286C173.978 294.693 173.675 295.199 173.511 295.755C167.409 315.722 147.675 383.776 149.943 421.217C149.981 421.829 149.893 422.442 149.685 423.019C149.476 423.596 149.152 424.124 148.732 424.571C148.312 425.018 147.805 425.374 147.242 425.617C146.679 425.861 146.072 425.986 145.459 425.986V425.986Z" fill="#2F2E41"/>
<path d="M171.388 128.982C184.953 128.982 195.949 117.985 195.949 104.421C195.949 90.8561 184.953 79.8598 171.388 79.8598C157.823 79.8598 146.827 90.8561 146.827 104.421C146.827 117.985 157.823 128.982 171.388 128.982Z" fill="#FFB8B8"/>
<path d="M147.272 150.677C147.272 150.677 170.08 123.722 188.74 145.493C200.747 159.501 207.098 177.484 206.55 195.925L205.846 219.618L162.823 212.879L147.272 150.677Z" fill="#6CC49A"/>
<path d="M207.208 202.906C207.029 202.906 206.85 202.902 206.671 202.895C204.832 202.819 203.033 202.345 201.396 201.505C199.759 200.666 198.324 199.481 197.189 198.033L169.274 162.44C168.085 160.925 167.373 159.092 167.227 157.172C167.081 155.252 167.507 153.332 168.452 151.655C169.397 149.977 170.818 148.618 172.535 147.748C174.253 146.878 176.19 146.537 178.101 146.768L182.031 147.243C184.541 147.684 186.825 148.97 188.502 150.888L210.523 178.965L242.61 147.379C242.616 147.271 242.623 147.163 242.637 147.053C242.905 144.83 243.822 142.736 245.275 141.032C246.727 139.327 248.65 138.089 250.802 137.472C252.954 136.855 255.241 136.886 257.375 137.561C259.51 138.237 261.398 139.526 262.804 141.269C264.209 143.012 265.07 145.131 265.278 147.36C265.485 149.59 265.031 151.831 263.972 153.803C262.913 155.776 261.296 157.393 259.322 158.451C257.349 159.509 255.108 159.962 252.879 159.753L216.526 198.845C215.336 200.127 213.894 201.149 212.291 201.848C210.687 202.546 208.957 202.907 207.208 202.906V202.906Z" fill="#FFB8B8"/>
<path d="M175.369 108.67L185.922 96.2382C188.641 93.0344 191.486 89.5449 191.87 85.3602C192.292 80.7729 189.502 76.314 185.687 73.7314C181.873 71.1488 177.188 70.1769 172.596 69.8203C164.078 69.1588 155.114 70.5666 148.112 75.4617C141.109 80.3568 136.528 89.1943 138.235 97.5658C139.58 104.157 144.533 110.472 142.608 116.918C140.501 123.971 131.861 126.135 124.807 128.238C112.967 131.768 101.661 138.718 95.4557 149.402C89.2505 160.087 89.2776 174.819 97.5493 183.997C102.905 189.94 110.984 192.946 118.971 193.398C126.959 193.85 134.91 191.969 142.485 189.396C149.462 187.026 156.363 183.978 161.855 179.067C167.348 174.155 171.305 167.127 171.133 159.761C170.97 152.741 167.21 146.346 165.665 139.497C164.447 133.761 164.766 127.805 166.592 122.233C168.418 116.66 171.684 111.67 176.06 107.767" fill="#2F2E41"/>
<path d="M687.5 357H436.5C434.644 356.998 432.865 356.26 431.553 354.947C430.24 353.635 429.502 351.856 429.5 350V214C429.502 212.144 430.24 210.365 431.553 209.053C432.865 207.74 434.644 207.002 436.5 207H687.5C689.356 207.002 691.135 207.74 692.447 209.053C693.76 210.365 694.498 212.144 694.5 214V350C694.498 351.856 693.76 353.635 692.447 354.947C691.135 356.26 689.356 356.998 687.5 357ZM436.5 209C435.174 209.002 433.904 209.529 432.966 210.466C432.029 211.404 431.502 212.674 431.5 214V350C431.502 351.326 432.029 352.596 432.966 353.534C433.904 354.471 435.174 354.998 436.5 355H687.5C688.826 354.998 690.096 354.471 691.034 353.534C691.971 352.596 692.498 351.326 692.5 350V214C692.498 212.674 691.971 211.404 691.034 210.466C690.096 209.529 688.826 209.002 687.5 209H436.5Z" fill="#3F3D56"/>
<path d="M662.5 245H580.5C580.235 245 579.98 244.895 579.793 244.707C579.605 244.52 579.5 244.265 579.5 244C579.5 243.735 579.605 243.48 579.793 243.293C579.98 243.105 580.235 243 580.5 243H662.5C662.765 243 663.02 243.105 663.207 243.293C663.395 243.48 663.5 243.735 663.5 244C663.5 244.265 663.395 244.52 663.207 244.707C663.02 244.895 662.765 245 662.5 245Z" fill="#3F3D56"/>
<path d="M662.5 260H580.5C580.235 260 579.98 259.895 579.793 259.707C579.605 259.52 579.5 259.265 579.5 259C579.5 258.735 579.605 258.48 579.793 258.293C579.98 258.105 580.235 258 580.5 258H662.5C662.765 258 663.02 258.105 663.207 258.293C663.395 258.48 663.5 258.735 663.5 259C663.5 259.265 663.395 259.52 663.207 259.707C663.02 259.895 662.765 260 662.5 260Z" fill="#3F3D56"/>
<path d="M662.5 275H580.5C580.235 275 579.98 274.895 579.793 274.707C579.605 274.52 579.5 274.265 579.5 274C579.5 273.735 579.605 273.48 579.793 273.293C579.98 273.105 580.235 273 580.5 273H662.5C662.765 273 663.02 273.105 663.207 273.293C663.395 273.48 663.5 273.735 663.5 274C663.5 274.265 663.395 274.52 663.207 274.707C663.02 274.895 662.765 275 662.5 275Z" fill="#3F3D56"/>
<path d="M662.5 290H580.5C580.235 290 579.98 289.895 579.793 289.707C579.605 289.52 579.5 289.265 579.5 289C579.5 288.735 579.605 288.48 579.793 288.293C579.98 288.105 580.235 288 580.5 288H662.5C662.765 288 663.02 288.105 663.207 288.293C663.395 288.48 663.5 288.735 663.5 289C663.5 289.265 663.395 289.52 663.207 289.707C663.02 289.895 662.765 290 662.5 290Z" fill="#3F3D56"/>
<path d="M662.5 305H580.5C580.235 305 579.98 304.895 579.793 304.707C579.605 304.52 579.5 304.265 579.5 304C579.5 303.735 579.605 303.48 579.793 303.293C579.98 303.105 580.235 303 580.5 303H662.5C662.765 303 663.02 303.105 663.207 303.293C663.395 303.48 663.5 303.735 663.5 304C663.5 304.265 663.395 304.52 663.207 304.707C663.02 304.895 662.765 305 662.5 305Z" fill="#3F3D56"/>
<path d="M662.5 320H580.5C580.235 320 579.98 319.895 579.793 319.707C579.605 319.52 579.5 319.265 579.5 319C579.5 318.735 579.605 318.48 579.793 318.293C579.98 318.105 580.235 318 580.5 318H662.5C662.765 318 663.02 318.105 663.207 318.293C663.395 318.48 663.5 318.735 663.5 319C663.5 319.265 663.395 319.52 663.207 319.707C663.02 319.895 662.765 320 662.5 320Z" fill="#3F3D56"/>
<path d="M815.686 211.676C830.177 211.676 841.924 199.928 841.924 185.437C841.924 170.945 830.177 159.198 815.686 159.198C801.194 159.198 789.447 170.945 789.447 185.437C789.447 199.928 801.194 211.676 815.686 211.676Z" fill="#FFB8B8"/>
<path d="M737.487 572.021L725.009 568.044L734.412 518.019L752.829 523.889L737.487 572.021Z" fill="#FFB8B8"/>
<path d="M716.666 561.452L741.298 569.303L736.469 584.456L697.25 571.955L697.431 571.389C698.041 569.473 699.023 567.697 700.32 566.161C701.617 564.625 703.204 563.359 704.99 562.436C706.776 561.514 708.727 560.952 710.73 560.783C712.733 560.614 714.75 560.841 716.666 561.452V561.452Z" fill="#2F2E41"/>
<path d="M828.277 571.762H815.179L808.946 521.244H828.277V571.762Z" fill="#FFB8B8"/>
<path d="M805.229 568.02H831.083V583.924H789.92V583.329C789.92 581.319 790.316 579.328 791.086 577.471C791.855 575.613 792.983 573.926 794.404 572.504C795.826 571.082 797.514 569.955 799.371 569.185C801.228 568.416 803.219 568.02 805.229 568.02V568.02Z" fill="#2F2E41"/>
<path d="M827.893 555.368L823.473 554.708C810.066 552.711 809.263 552.591 807.134 551.657C806.048 551.179 805.971 543.963 806.624 503.401C807.103 473.626 807.699 436.571 806.541 416.678C806.494 415.893 806.183 415.147 805.659 414.561C805.136 413.974 804.43 413.581 803.655 413.444C802.881 413.308 802.083 413.436 801.391 413.809C800.698 414.181 800.151 414.776 799.838 415.498C789.863 438.535 773.126 490.088 762.051 524.202C758.199 536.068 755.156 545.441 753.231 551.059C752.859 552.122 752.105 553.007 751.115 553.543C750.125 554.079 748.97 554.227 747.877 553.957C738.763 551.679 739.373 550.71 726.392 547.353C725.269 547.066 724.3 546.356 723.688 545.372C723.077 544.388 722.869 543.205 723.11 542.071C725.458 530.999 768.425 351.471 771.713 334.405C771.825 333.821 772.051 333.265 772.378 332.769C772.706 332.272 773.128 331.846 773.621 331.514C774.115 331.181 774.669 330.95 775.252 330.834C775.835 330.717 776.435 330.717 777.019 330.834C786.692 332.783 792.578 334.851 802.137 336.85C812.453 339.008 823.12 341.239 833.524 343.322C834.559 343.53 835.487 344.099 836.143 344.927C838.717 348.179 842.535 350.004 846.577 351.936C849.301 353.239 843.127 353.121 845.5 355C855.11 362.607 841.29 517.088 832.94 551.978C832.672 553.07 832.007 554.023 831.073 554.65C830.139 555.277 829.006 555.533 827.893 555.368V555.368Z" fill="#2F2E41"/>
<path d="M819.984 380.28C819.686 378.924 819.688 377.519 819.992 376.164C820.295 374.809 820.892 373.537 821.74 372.438C822.588 371.339 823.667 370.439 824.901 369.802C826.135 369.164 827.493 368.805 828.88 368.75L850.088 344.812L863.257 360.722L838.868 378.54C838.807 380.876 837.891 383.11 836.293 384.816C834.695 386.522 832.527 387.583 830.199 387.798C827.871 388.012 825.546 387.365 823.663 385.98C821.78 384.594 820.471 382.566 819.984 380.28V380.28Z" fill="#FFB8B8"/>
<path d="M826.87 208.396C825.338 201.896 833.082 187.91 831.55 181.41C830.512 177.008 820.161 180 817.746 176.177C815.33 172.353 811.284 169.256 806.761 169.205C801.563 169.147 796.449 173.003 791.525 171.336C786.546 169.651 784.955 162.833 787.156 158.06C789.357 153.287 794.099 150.246 798.783 147.863C806.761 143.804 816.05 140.84 824.588 143.526C829.749 145.149 834.065 148.666 838.241 152.106C842.048 155.241 845.919 158.448 848.58 162.601C853.794 170.736 853.479 181.696 849.024 190.27C844.569 198.843 836.45 205.135 827.505 208.787" fill="#2F2E41"/>
<path d="M762.441 359.663C765.273 354.932 769.573 332.766 774.875 295.56C778.485 270.161 781.63 244.353 783.19 231.171C783.312 230.104 783.702 229.085 784.324 228.21C784.947 227.336 785.782 226.633 786.75 226.169C787.763 225.681 788.769 225.218 789.77 224.782C802.693 219.161 815.79 217.298 828.694 219.246C841.579 221.225 853.665 226.732 863.613 235.157L863.73 235.268L863.761 235.426C863.817 235.719 869.237 264.924 858.136 284.655C847.188 304.124 847.06 355.682 847.06 356.2V356.863L846.422 356.681C829.39 351.814 763.597 360.329 762.935 360.415L761.91 360.549L762.441 359.663Z" fill="#F37656"/>
<path d="M832.332 363.619L865.789 319.009L848.537 282.04L849.789 238.194L863.934 235.581L864.083 235.656C870.954 239.674 876.281 245.88 879.211 253.28C882.353 261.136 888.87 287.861 893.784 308.898C895.067 314.313 894.939 319.966 893.412 325.316C891.885 330.667 889.009 335.535 885.061 339.456L844.018 380.499L832.332 363.619Z" fill="#F37656"/>
<path d="M691.878 275.211C692.678 274.076 693.717 273.13 694.922 272.44C696.127 271.75 697.468 271.333 698.852 271.217C700.235 271.102 701.627 271.291 702.93 271.772C704.233 272.253 705.414 273.013 706.391 274L738.368 273.508L735.507 293.962L705.902 287.977C704.135 289.508 701.869 290.338 699.531 290.31C697.194 290.281 694.948 289.396 693.219 287.823C691.491 286.249 690.399 284.096 690.152 281.772C689.905 279.447 690.519 277.113 691.878 275.211Z" fill="#FFB8B8"/>
<path d="M707.929 293.103L712.503 273.087L768.003 267.691L783.218 231.1L783.663 230.019L789.643 224.862L789.77 224.782C802.693 219.161 815.789 217.299 828.695 219.246L829.148 219.314L829.119 219.771C828.828 224.454 827.626 229.035 825.58 233.257C819.839 245.165 784.516 295.786 784.16 296.296L784.002 296.521L707.929 293.103Z" fill="#F37656"/>
<path d="M382 451H1C0.734784 451 0.480436 450.895 0.2929 450.707C0.105364 450.52 0 450.265 0 450C0 449.735 0.105364 449.48 0.2929 449.293C0.480436 449.105 0.734784 449 1 449H382C382.265 449 382.52 449.105 382.707 449.293C382.895 449.48 383 449.735 383 450C383 450.265 382.895 450.52 382.707 450.707C382.52 450.895 382.265 451 382 451Z" fill="#3F3D56"/>
<path d="M343.192 29.7253C343.192 29.7253 338.566 42.649 343.926 48.4772L339.458 63.8297C339.458 63.8297 355.332 111.451 350.797 118.103C350.797 118.103 333.864 126.569 300 115.08L313.757 61.7131L311.792 39.1873L314.513 28.6047L320.56 28C320.56 28 316.932 41.6062 323.584 43.7227C330.236 45.8392 336.725 28.3396 336.725 28.3396L343.192 29.7253Z" fill="#F37656"/>
<path d="M538.493 261.947C536.378 259.409 532.742 258.036 529.25 257.295C529.355 256.977 518.632 254.763 518.453 255.219L514.411 252L501.996 258.447L495.019 253.698L491.778 254.848C491.91 254.276 481.717 256.041 481.717 256.041C479.77 256.111 477.283 256.233 474.499 256.447C464.75 257.197 464 282.445 464 282.445C468.486 280.61 473.268 279.609 478.113 279.49L480.748 309.692C494.301 308.53 508.515 309.882 523.244 313.192L530.153 289.452L546.242 283.195C546.242 283.195 543.492 267.946 538.493 261.947Z" fill="#6CC49A"/>
</g>
<defs>
<clipPath id="clip0">
<rect width="983.864" height="586.046" fill="white"/>
</clipPath>
</defs>
</svg>
